<svg xmlns="http://www.w3.org/2000/svg" xmlns:xlink="http://www.w3.org/1999/xlink" width="625.325" height="296.36" viewBox="0 0 468.994 222.27" xmlns:v="https://vecta.io/nano"><style><![CDATA[.B{overflow:visible}.C{stroke:none}.D{stroke:rgb(0%,0%,0%)}.E{stroke-miterlimit:10}.F{fill:rgb(0%,0%,0%)}.G{stroke-width:.398}]]></style><defs><symbol id="A" class="B"><path d="M8.234 0v-.297c-.53 0-.656-.172-1.297-1.656L4.266-8.25h-.328L1.28-1.703C.828-.578.688-.406.11-.297V0H2.53v-.297c-.703-.047-.984-.187-.984-.484 0-.156.094-.437.36-1.094l.172-.484h2.688c.406.953.547 1.375.547 1.625 0 .266-.156.375-.562.406l-.39.03V0zm-3.64-2.828H2.266l1.11-2.89zm0 0" class="C"/></symbol><symbol id="B" class="B"><path d="M3.047 0v-.28C2.656-.297 2.47-.53 2.47-1v-7.078H.188v.28c.422.047.61.25.61.703V-1c0 .438-.203.672-.61.72V0zm0 0" class="C"/></symbol><symbol id="C" class="B"><path d="M5.766.656c0-.922-.734-1.47-1.953-1.47h-.78c-.953 0-1.187-.078-1.187-.422 0-.36.328-.625.813-.625l.53.016c.563 0 .86-.062 1.266-.312.547-.312.813-.797.813-1.422a1.53 1.53 0 0 0-.469-1.172h.97v-.64H4.203c-.516-.187-.86-.266-1.328-.266-1.422 0-2.437.797-2.437 1.922 0 .406.156.813.438 1.14.266.28.484.438 1.047.688C.984-1.594.5-1.14.5-.516c0 .484.22.703.984.984-.75.11-1.156.406-1.156.89 0 .703.906 1.11 2.406 1.11 1.984 0 3.03-.625 3.03-1.812zm-.937.563c0 .547-.656.86-1.844.86-1.047 0-1.594-.266-1.594-.797 0-.25.078-.39.422-.656h2.063c.64 0 .953.203.953.594zM3.656-3.72c0 1.11-.22 1.547-.78 1.547-.578 0-.797-.437-.797-1.547 0-1.125.234-1.562.797-1.562s.78.453.78 1.563zm0 0" class="C"/></symbol><symbol id="D" class="B"><path d="M5.688-2.734c0-1.672-1.14-2.922-2.687-2.922-1.516 0-2.703 1.25-2.703 2.89C.297-1.062 1.438.172 3 .172c1.547 0 2.688-1.25 2.688-2.906zm-1.75.063c0 1.844-.25 2.47-.937 2.47-.703 0-.937-.61-.937-2.36 0-2.094.203-2.72.953-2.72.688 0 .922.656.922 2.61zm0 0" class="C"/></symbol><symbol id="E" class="B"><path d="M5.188-4.72c0-.547-.406-.937-.97-.937-.594 0-1.047.328-1.61 1.125v-.984H.344v.297c.516.063.64.22.64.703V-1c0 .484-.11.625-.64.72V0H3.53v-.28c-.734-.047-.875-.203-.875-.953v-2.25c0-.625.328-1.14.72-1.14.11 0 .203.078.344.28.22.313.406.422.72.422.438 0 .75-.328.75-.797zm0 0" class="C"/></symbol><symbol id="F" class="B"><path d="M3.047 0v-.28c-.422-.062-.562-.234-.562-.687v-4.547H.188v.297c.53.11.64.203.64.703V-1c0 .484-.094.578-.64.72V0zm-.484-7.344c0-.516-.406-.922-.922-.922S.72-7.86.72-7.344c0 .53.406.922.922.922s.922-.39.922-.922zm0 0" class="C"/></symbol><symbol id="G" class="B"><path d="M3.97-1.187l-.297-.14c-.234.453-.437.625-.687.625-.328 0-.47-.203-.47-.687v-3.594H3.64v-.53H2.516V-7.53H2.22C1.5-6.5 1.016-5.97.234-5.312v.328H.86v3.875c0 .78.516 1.25 1.344 1.25.797 0 1.28-.36 1.766-1.328zm0 0" class="C"/></symbol><symbol id="H" class="B"><path d="M6.39 0v-.28C5.953-.328 5.797-.5 5.797-1v-2.97c0-1.03-.64-1.687-1.61-1.687-.64 0-1.078.234-1.703.938v-3.36H.188v.28c.547.11.64.203.64.703V-1c0 .5-.094.61-.64.72V0h2.89v-.28c-.453-.062-.594-.25-.594-.687v-3.187c0-.047.078-.172.203-.28.266-.266.547-.422.828-.422.422 0 .625.328.625 1v2.89c0 .438-.156.64-.562.688V0zm0 0" class="C"/></symbol><symbol id="I" class="B"><path d="M9.734 0v-.28c-.47-.03-.61-.172-.61-.687v-3c0-1.03-.625-1.687-1.61-1.687-.672 0-1.125.28-1.75 1.047-.36-.75-.78-1.047-1.53-1.047S2.922-5.328 2.47-4.61v-.906H.188v.297c.53.063.656.203.656.703V-1c0 .484-.125.625-.656.72V0h2.875v-.28c-.422-.062-.547-.234-.547-.687v-3.187c0-.078.188-.297.344-.422.25-.187.453-.28.656-.28.47 0 .64.28.64 1v2.89c0 .484-.125.64-.578.688V0H6.39v-.28c-.422-.047-.562-.234-.562-.687v-3.187c0-.062.188-.297.344-.406.266-.203.47-.297.672-.297.453 0 .625.297.625 1v2.89c0 .5-.125.64-.578.688V0zm0 0" class="C"/></symbol><symbol id="J" class="B"><path d="M5.28 0v-.28C4.203-.312 4-.484 4-1.406V-8.22h-.203L.78-6.922v.313c.11-.03.203-.078.234-.094.328-.125.625-.203.78-.203.297 0 .422.266.422.828v4.594C2.22-.5 1.984-.297.797-.28V0zm0 0" class="C"/></symbol><symbol id="K" class="B"><path d="M8.328-7.687v-.22H5.875v.22c.656.03.875.172.875.5 0 .188-.078.516-.22.875l-1.766 4.39L2.97-5.97c-.406-.875-.5-1.14-.5-1.328 0-.22.172-.344.563-.36.047 0 .172-.016.344-.03v-.22H.188v.22c.594.03.75.188 1.266 1.25L4.406.125h.172l2.656-6.703c.39-.937.516-1.078 1.094-1.11zm0 0" class="C"/></symbol><symbol id="L" class="B"><path d="M5.28-.484V-.78c-.203.156-.344.22-.53.22-.266 0-.344-.172-.344-.687v-2.328c0-.625-.062-.953-.234-1.234-.25-.453-.766-.687-1.5-.687-.61 0-1.172.172-1.516.438-.297.25-.484.61-.484.906a.52.52 0 0 0 .516.516c.28 0 .53-.25.53-.5 0-.062-.016-.11-.016-.203a1.05 1.05 0 0 1-.047-.281c0-.328.39-.594.86-.594.594 0 .922.36.922 1v.734c-1.844.734-2.047.828-2.562 1.28a1.49 1.49 0 0 0-.437 1.047c0 .75.516 1.28 1.266 1.28.516 0 1.016-.25 1.734-.875.063.625.28.875.766.875.406 0 .656-.156 1.078-.61zM3.438-1.47c0 .375-.062.484-.312.625-.297.172-.625.266-.875.266-.422 0-.75-.406-.75-.922v-.047c0-.703.484-1.125 1.938-1.656zm0 0" class="C"/></symbol><symbol id="M" class="B"><path d="M3.078 0v-.172C2.313-.234 2.172-.344 2.172-1v-7.14l-.047-.016-1.89.516v.188h.063l.375-.016c.375 0 .5.172.5.734v5.688c0 .656-.172.813-.922.875V0zm0 0" class="C"/></symbol><symbol id="N" class="B"><path d="M5.72-.437v-.156h-.047c-.562 0-.687-.14-.687-.687v-4.094h-1.89v.203c.75.03.89.156.89.75v2.813c0 .313-.062.5-.203.61-.344.28-.703.422-1.078.422-.47 0-.844-.406-.844-.906v-3.89H.11v.156c.578.047.734.22.734.766v3.016c0 .953.578 1.563 1.453 1.563.438 0 .906-.203 1.234-.516l.516-.516v.984l.047.03a15.27 15.27 0 0 1 1.625-.547zm0 0" class="C"/></symbol><symbol id="O" class="B"><path d="M5.063-1.875l-.187-.078c-.578.906-1.078 1.25-1.844 1.25-.672 0-1.172-.312-1.516-.953-.234-.47-.328-.89-.36-1.656h3.688c-.094-.78-.22-1.125-.516-1.5-.36-.437-.906-.687-1.53-.687-1.484 0-2.5 1.203-2.5 2.938 0 1.656.86 2.688 2.234 2.688 1.156 0 2.03-.703 2.53-2zM3.625-3.687H1.188c.125-.953.53-1.375 1.266-1.375.72 0 1.016.328 1.172 1.375zm0 0" class="C"/></symbol><symbol id="P" class="B"><path d="M4.578-7.422c0-.437-.53-.734-1.25-.734-.75 0-1.375.313-1.672.86-.312.53-.406.97-.422 1.922H.25V-5h.984v3.75c0 .875-.14 1.016-1 1.078V0h3.11v-.172C2.36-.22 2.234-.344 2.234-1.25V-5h1.453v-.375H2.22v-1.39c0-.703.234-1.062.688-1.062.266 0 .422.125.625.47.203.313.344.422.547.422a.48.48 0 0 0 .5-.484zm0 0" class="C"/></symbol><symbol id="Q" class="B"><path d="M5.797 0v-.172c-.578-.062-.734-.203-.734-.797v-2.734c0-1.125-.516-1.797-1.406-1.797-.547 0-.922.203-1.734.97v-.937l-.078-.03-1.656.547v.203c.078-.047.188-.062.328-.062.328 0 .438.188.438.766v2.97c0 .688-.125.844-.734.906V0h2.53v-.172c-.61-.062-.797-.203-.797-.625v-3.36c.578-.547.844-.687 1.234-.687.594 0 .875.375.875 1.156v2.5c0 .75-.156.953-.75 1.016V0zm0 0" class="C"/></symbol><symbol id="R" class="B"><path d="M4.922-1.75l-.172-.11c-.562.828-1 1.125-1.672 1.125-1.11 0-1.86-.97-1.86-2.344 0-1.234.656-2.078 1.625-2.078.438 0 .594.14.703.578l.078.266c.094.344.313.547.578.547.297 0 .547-.234.547-.5 0-.672-.828-1.234-1.828-1.234-.562 0-1.14.22-1.625.61-.64.547-1 1.36-1 2.36C.297-.984 1.25.125 2.563.125c.516 0 .97-.172 1.375-.5.36-.297.61-.64.984-1.375zm0 0" class="C"/></symbol><symbol id="S" class="B"><path d="M3.328-.78l-.156-.14C2.922-.61 2.72-.5 2.47-.5c-.453 0-.625-.312-.625-1.078V-5h1.203v-.375H1.844v-1.39c0-.125-.03-.156-.094-.156a1.25 1.25 0 0 1-.234.328c-.437.672-.844 1.11-1.156 1.28-.125.094-.203.156-.203.234 0 .03.016.063.047.078h.64v3.594c0 1.016.344 1.53 1.047 1.53.594 0 1.047-.297 1.438-.906zm0 0" class="C"/></symbol><symbol id="T" class="B"><path d="M3.03 0v-.172c-.797-.062-.89-.187-.89-1.047v-4.25l-.047-.03-1.86.656v.188l.094-.016c.156-.03.313-.03.406-.03.297 0 .406.188.406.703v2.78c0 .86-.125.984-.953 1.047V0zm-.78-7.547a.6.6 0 0 0-.609-.609.6.6 0 0 0-.609.609.6.6 0 0 0 .609.609.6.6 0 0 0 .609-.609zm0 0" class="C"/></symbol><symbol id="U" class="B"><path d="M5.625-2.797c0-1.562-1.11-2.703-2.64-2.703-1.547 0-2.64 1.156-2.64 2.797 0 1.61 1.11 2.828 2.625 2.828 1.5 0 2.656-1.266 2.656-2.922zm-1.078.422C4.547-1.03 4-.22 3.11-.22c-.47 0-.906-.28-1.156-.766-.344-.625-.53-1.453-.53-2.297 0-1.14.563-1.875 1.406-1.875 1.016 0 1.72 1.14 1.72 2.78zm0 0" class="C"/></symbol><symbol id="V" class="B"><path d="M4-4.86c0-.406-.25-.64-.656-.64-.5 0-.844.28-1.437 1.125V-5.47L1.86-5.5l-1.78.64v.203c.172-.047.28-.047.422-.047.297 0 .406.188.406.703v3c0 .594-.078.672-.844.828V0h2.86v-.172C2.11-.22 1.906-.39 1.906-1.078v-2.687c0-.375.516-.984.844-.984.078 0 .172.063.313.188.188.156.313.234.47.234.297 0 .47-.203.47-.53zm0 0" class="C"/></symbol><symbol id="W" class="B"><path d="M5.97-2.406v-.578H0v.578zm0 0" class="C"/></symbol><symbol id="X" class="B"><path d="M4.156-1.406c0-.61-.266-1-1-1.422L1.86-3.594c-.328-.203-.516-.5-.516-.812 0-.5.375-.812.922-.812.688 0 1.047.39 1.313 1.47h.188L3.72-5.375h-.14l-.016.016c-.11.094-.125.094-.172.094-.062 0-.187-.016-.312-.078-.25-.094-.53-.14-.812-.14-.984 0-1.656.594-1.656 1.47 0 .672.375 1.14 1.406 1.72l.688.39c.422.25.625.53.625.906 0 .516-.39.86-1 .86C1.5-.14 1.094-.594.813-1.812H.625v1.86H.78c.078-.125.125-.14.266-.14s.266.016.563.094c.328.078.625.125.875.125.906 0 1.672-.703 1.672-1.53zm0 0" class="C"/></symbol><symbol id="Y" class="B"><path d="M5.875-.5v-.187h-.28c-.437 0-.53-.125-.53-.672v-6.78l-.047-.016c-.578.203-1 .313-1.766.516v.188h.266c.438 0 .547.11.547.61v1.86C3.61-5.36 3.28-5.5 2.813-5.5 1.438-5.5.328-4.14.328-2.453.328-.922 1.22.125 2.53.125c.672 0 1.125-.25 1.53-.812v.766l.047.047zm-1.812-.72c0 .078-.078.234-.203.36-.22.234-.516.36-.86.36-.984 0-1.656-.953-1.656-2.422 0-1.36.594-2.234 1.5-2.234.64 0 1.22.547 1.22 1.188zm0 0" class="C"/></symbol><symbol id="Z" class="B"><path d="M5.828 0v-.172c-.656-.125-.72-.22-.72-1.047v-2.375c0-1.266-.5-1.906-1.47-1.906-.72 0-1.22.28-1.766 1v-3.625l-.062-.03-1.375.422-.312.094v.188h.14c.516 0 .61.094.61.61v5.625C.875-.375.797-.28.11-.172V0h2.578v-.172C2-.25 1.875-.39 1.875-1.22v-2.875c.5-.562.86-.766 1.328-.766.594 0 .89.438.89 1.28v2.36c0 .813-.11.97-.812 1.047V0zm0 0" class="C"/></symbol><symbol id="a" class="B"><path d="M9.266 0v-.172l-.312-.03c-.36-.03-.516-.234-.516-.703v-2.47c0-1.406-.47-2.125-1.39-2.125-.687 0-1.297.313-1.937 1-.22-.672-.625-1-1.266-1-.53 0-.875.172-1.86.922v-.89l-.078-.03c-.61.234-1.016.36-1.672.547v.203a1.11 1.11 0 0 1 .375-.062c.313 0 .422.203.422.766v3.03c0 .64-.172.828-.844.844V0h2.656v-.172c-.625-.03-.812-.156-.812-.625v-3.375s.094-.14.188-.234c.297-.266.813-.47 1.22-.47.53 0 .797.422.797 1.25v2.594c0 .672-.14.797-.812.86V0h2.672v-.172c-.672-.016-.86-.22-.86-.97v-3c.36-.516.75-.734 1.297-.734.688 0 .906.328.906 1.313v2.516c0 .688-.094.78-.797.875V0zm0 0" class="C"/></symbol><symbol id="b" class="B"><path d="M5.625-2.953c0-1.484-.844-2.547-2-2.547-.672 0-1.203.297-1.72.953v-.922l-.078-.03-1.72.61v.188h.297c.406 0 .484.11.484.672v5.594c0 .625-.125.75-.828.828v.203h2.89v-.22c-.89-.016-1.047-.14-1.047-.89V-.39c.406.39.703.516 1.203.516 1.406 0 2.516-1.344 2.516-3.078zm-1.03.47c0 1.328-.594 2.22-1.453 2.22-.562 0-1.234-.422-1.234-.78V-4c0-.344.656-.78 1.22-.78.875 0 1.47.906 1.47 2.297zm0 0" class="C"/></symbol><symbol id="c" class="B"><path d="M2.156-.516c0-.375-.297-.672-.656-.672S.844-.89.844-.516c0 .344.297.64.64.64.375 0 .672-.297.672-.64zm0 0" class="C"/></symbol><symbol id="d" class="B"><path d="M4.25-6.453c0-.64-.64-1.078-1.562-1.078-.734 0-1.297.25-1.594.734-.25.39-.312.828-.312 1.766H.156v.484H.78v3.625c0 .47-.125.61-.625.656V0h3.03v-.266c-.766-.016-.89-.156-.89-.86v-3.422h.938v-.484h-.937V-6.36c0-.594.14-.844.53-.844.203 0 .328.078.328.22 0 .047-.03.11-.11.22-.094.172-.14.28-.14.39 0 .344.297.61.656.61.406 0 .688-.28.688-.687zm0 0" class="C"/></symbol><symbol id="e" class="B"><path d="M5.188-2.5c0-1.53-1.047-2.656-2.453-2.656-1.375 0-2.47 1.14-2.47 2.625C.266-.97 1.313.156 2.734.156 4.14.156 5.188-.984 5.188-2.5zm-1.594.063c0 1.688-.22 2.25-.86 2.25s-.86-.547-.86-2.14c0-1.922.203-2.5.875-2.5.625 0 .844.61.844 2.39zm0 0" class="C"/></symbol><symbol id="f" class="B"><path d="M4.734-4.312c0-.484-.375-.844-.89-.844-.547 0-.953.297-1.47 1.016v-.89H.313v.266c.47.063.594.203.594.64v3.203c0 .453-.11.578-.594.656V0H3.22v-.266c-.672-.047-.797-.187-.797-.86v-2.062c0-.562.297-1.03.672-1.03.078 0 .172.078.297.25.203.297.375.39.656.39.406 0 .688-.297.688-.734zm0 0" class="C"/></symbol><symbol id="g" class="B"><path d="M5.828-.22v-.25c-.5-.03-.64-.172-.64-.625v-6.28h-2.36v.266c.734.047.844.125.844.625v2c-.47-.5-.797-.672-1.312-.672-1.187 0-2.094 1.172-2.094 2.75C.266-.922 1.094.156 2.25.156c.578 0 .938-.172 1.453-.72V.14c.5-.14.766-.187 1.438-.266zm-2.156-1c0 .063-.11.25-.25.39-.22.25-.437.375-.687.375-.578 0-.844-.656-.844-2.047 0-1.406.297-2.047.922-2.047.36 0 .703.266.86.672zm0 0" class="C"/></symbol><symbol id="h" class="B"><path d="M2.78 0v-.266c-.375-.047-.516-.203-.516-.625v-4.14H.172v.266c.484.094.578.203.578.64v3.203c0 .453-.078.547-.578.656V0zm-.453-6.703c0-.47-.36-.828-.828-.828s-.844.36-.844.828a.83.83 0 0 0 .844.844c.47 0 .828-.36.828-.844zm0 0" class="C"/></symbol><symbol id="i" class="B"><path d="M3.625-1.094l-.28-.11c-.22.406-.39.563-.625.563-.297 0-.422-.187-.422-.625v-3.28h1.03v-.484h-1.03v-1.844H2.03C1.36-5.937.922-5.437.22-4.844v.297H.78v3.53c0 .703.47 1.14 1.22 1.14.734 0 1.172-.328 1.625-1.22zm0 0" class="C"/></symbol><symbol id="j" class="B"><path d="M5.828 0v-.266c-.39-.03-.53-.187-.53-.656v-2.703c0-.937-.578-1.53-1.484-1.53-.578 0-.984.22-1.547.844v-3.062H.172v.266c.5.094.578.188.578.625v5.563c0 .47-.078.563-.578.656V0h2.625v-.266c-.39-.047-.53-.22-.53-.625v-2.906c0-.047.078-.156.188-.25.234-.25.5-.375.75-.375.39 0 .578.28.578.906V-.89c0 .406-.156.578-.516.625V0zm0 0" class="C"/></symbol><symbol id="k" class="B"><path d="M4.64-1.203l-.25-.156c-.453.53-.78.734-1.25.734-.422 0-.734-.187-.953-.562-.22-.344-.297-.72-.344-1.484h2.75C4.53-3.578 4.36-4.078 4.03-4.5c-.36-.422-.875-.656-1.484-.656-1.36 0-2.28 1.078-2.28 2.672s.906 2.64 2.25 2.64c.89 0 1.422-.344 2.125-1.36zM3.25-3.078H1.78c.047-1.312.234-1.75.766-1.75.328 0 .516.188.61.516.047.22.078.516.094 1.078zm0 0" class="C"/></symbol><symbol id="l" class="B"><path d="M5.875 0v-.266c-.422-.03-.53-.156-.53-.625v-2.734c0-.937-.578-1.53-1.47-1.53-.656 0-1.156.297-1.562.953v-.828H.234v.266c.47.078.578.188.578.64v3.203c0 .47-.094.563-.578.656V0H2.86v-.266c-.406-.047-.53-.22-.53-.625v-2.906c0-.047.078-.156.188-.25.234-.25.5-.375.75-.375.375 0 .563.28.563.906V-.89c0 .406-.14.578-.516.625V0zm0 0" class="C"/></symbol><symbol id="m" class="B"><path d="M2.78 0v-.266c-.36 0-.53-.22-.53-.656v-6.453H.172v.266c.39.03.563.234.563.625v5.563c0 .406-.187.625-.562.656V0zm0 0" class="C"/></symbol><symbol id="n" class="B"><path d="M3.938-1.5c0-.78-.422-1.266-1.5-1.703-.75-.312-1.047-.594-1.047-.97 0-.36.297-.625.72-.625.297 0 .578.125.813.344s.344.422.516.89h.266V-5.14H3.47c-.062.172-.125.22-.266.22-.078 0-.172-.016-.344-.078-.344-.11-.61-.156-.86-.156-.984 0-1.703.672-1.703 1.594 0 .72.438 1.22 1.547 1.688.75.328 1.047.594 1.047.953 0 .422-.328.703-.812.703-.766 0-1.266-.484-1.5-1.437H.266V.14h.28c.125-.234.188-.297.28-.297.063 0 .14.016.25.063.313.125.875.25 1.172.25 1 0 1.688-.687 1.688-1.656zm0 0" class="C"/></symbol><symbol id="o" class="B"><path d="M3.234-4.672H2.36l.297-1.125c.016-.016.016-.03.016-.047 0-.078-.03-.11-.094-.11s-.094.016-.156.094C1.39-4.5.625-4.734.625-4.39v.078h.813l-.78 3c-.03.14-.25.813-.25 1.016 0 .25.22.422.516.422.5 0 .86-.312 1.547-1.328l-.14-.078c-.53.688-.703.86-.875.86-.094 0-.172-.078-.172-.203 0-.016 0-.03.016-.062l.953-3.625h.922zm0 0" class="C"/></symbol><symbol id="p" class="B"><path d="M6.906-7.125H1.094L.64-5.437l.203.03c.547-1.11.89-1.328 2.36-1.328h.234L1.86-.984c-.172.578-.437.75-1.156.813V0h3.172v-.172l-.422-.03c-.437-.03-.562-.14-.562-.47 0-.14.016-.25.125-.64L4.53-6.734h.61c.78 0 1.125.266 1.125.875 0 .14 0 .313-.03.5l.188.016zm0 0" class="C"/></symbol><symbol id="q" class="B"><path d="M4.094-3.703c0-.172 0-.328-.03-.484-.03-.25-.203-.625-.5-.625-.266 0-.406.22-.406.453 0 .22.172.375.266.547.14.25.172.516.172.797 0 .578-.187 1.156-.47 1.656-.22.422-.797 1.094-1.312 1.094-.422 0-.53-.39-.53-.75 0-.187 0-.406.047-.594l.797-3.172-.03-.03c-.547.14-1.094.234-1.64.297v.156c.453 0 .656 0 .656.313 0 .203-.36 1.47-.61 2.438l-.062.53C.438-.266.672.125 1.563.125c1.688 0 2.53-2.453 2.53-3.828zm0 0" class="C"/></symbol><symbol id="r" class="B"><path d="M3.313-1.297c0-.422-.22-.89-.734-1.53-.422-.516-.594-.844-.594-1.14a.55.55 0 0 1 .609-.594c.563 0 .89.406 1 1.266h.188l.203-1.53h-.14c-.094.156-.172.203-.328.203-.094 0-.187-.016-.39-.078-.28-.078-.437-.11-.61-.11-.812 0-1.328.47-1.328 1.203 0 .344.234.813.688 1.406.422.563.61.938.61 1.25 0 .5-.328.844-.812.844-.61 0-.937-.453-1.11-1.484H.39L.172.14h.172c.11-.187.14-.234.266-.234s.313.047.53.11c.25.078.422.11.61.11.906 0 1.563-.594 1.563-1.422zm0 0" class="C"/></symbol><symbol id="s" class="B"><path d="M5.188-1.172l-.156-.11c-.578.72-.734.86-.906.86C4.047-.422 4-.484 4-.594c0-.078 0-.078.203-.86l.875-3.266h-.812c-.594 1.625-.703 1.89-1.203 2.672-.656 1.03-1.187 1.594-1.53 1.594-.14 0-.234-.11-.234-.28 0-.047 0-.062.016-.094l.984-3.953-.03-.03-1.64.297v.156c.422 0 .438 0 .547.063.063.016.11.125.11.203s-.047.36-.14.72L.734-1.828.453-.484c0 .406.203.61.578.61.78 0 1.36-.594 2.61-2.703L3.156-.422c0 .328.188.516.516.516.516 0 .75-.203 1.516-1.266zm0 0" class="C"/></symbol><symbol id="t" class="B"><path d="M5.188-1.094l-.125-.11-.312.313c-.328.344-.47.438-.562.438s-.156-.062-.156-.14c0-.22.47-2.094.97-3.953l.078-.234L5-4.812l-.672.078-.03.03-.125.53c-.078-.406-.39-.64-.875-.64-1.437 0-3.11 1.984-3.11 3.72 0 .766.406 1.22 1.11 1.22.766 0 1.234-.36 2.188-1.72-.22.89-.25.984-.25 1.25 0 .328.14.453.438.453.438 0 .703-.203 1.516-1.203zM3.984-3.906c0 .922-.562 2.203-1.297 3.016-.266.297-.64.47-.953.47-.39 0-.64-.297-.64-.797 0-.594.39-1.656.844-2.344.438-.64.938-1 1.375-1h.063a.62.62 0 0 1 .609.656zm0 0" class="C"/></symbol><symbol id="u" class="B"><path d="M5.03-6.547c0-.328-.5-.625-1.39-.625-.875 0-1.578.5-1.578 1.156 0 .72.75 1.516.75 1.516-.016 0-2.61.438-2.61 2.906 0 .75.375 1.75 1.47 1.75 1.563 0 2.78-1.406 2.78-3.187 0-1.812-1.984-2.047-1.984-3.094 0-.5.578-.703.938-.703 1.016 0 .797.625 1.25.625.234 0 .375-.156.375-.344zM3.594-2.672c0 1.406-.906 2.547-1.656 2.547-.61 0-.828-.828-.828-1.437 0-2.516 1.906-2.703 1.906-2.703 0 .016.578.703.578 1.594zm0 0" class="C"/></symbol><symbol id="v" class="B"><path d="M6.016-3.594v-.61H.438v.61zm0 2.203V-2H.438v.61zm0 0" class="C"/></symbol><symbol id="w" class="B"><path d="M2.125-.062c0-.906-.625-1.047-.875-1.047-.28 0-.64.156-.64.625 0 .438.39.547.672.547.078 0 .14-.016.172-.016.047-.016.078-.03.094-.03.078 0 .156.063.156.156 0 .203-.172.703-.89 1.156l.094.203c.328-.11 1.22-.828 1.22-1.594zm0 0" class="C"/></symbol><symbol id="x" class="B"><path d="M1.97-.47c0-.344-.28-.625-.61-.625s-.594.28-.594.625c0 .422.375.594.594.594.234 0 .61-.187.61-.594zm0 0" class="C"/></symbol><symbol id="y" class="B"><path d="M4.297 0v-.156c-.86-.016-1.03-.125-1.03-.656v-6.53l-.094-.03-1.97 1v.14l.297-.11c.203-.078.39-.125.5-.125.22 0 .328.172.328.516v4.938c0 .36-.094.61-.266.703-.172.11-.312.14-.78.156V0zm0 0" class="C"/></symbol><symbol id="z" class="B"><path d="M8.453 0v-.156l-.28-.03c-.328-.016-.47-.22-.47-.64v-2.25c0-1.28-.422-1.937-1.266-1.937-.64 0-1.187.28-1.78.922-.203-.625-.562-.922-1.156-.922-.484 0-.78.156-1.687.844V-5l-.078-.016-1.53.484v.188c.14-.03.234-.047.36-.047.28 0 .375.188.375.703v2.766c0 .578-.156.75-.766.766V0h2.422v-.156c-.578-.03-.734-.156-.734-.578v-3.078s.078-.125.156-.203a1.87 1.87 0 0 1 1.125-.437c.484 0 .72.39.72 1.156v2.36c0 .61-.125.734-.734.78V0h2.438v-.156c-.625-.016-.78-.203-.78-.875v-2.75c.328-.47.688-.672 1.188-.672.625 0 .813.297.813 1.203v2.297c0 .625-.078.72-.72.797V0zm0 0" class="C"/></symbol><symbol id="AA" class="B"><path d="M4.828-.437v-.28c-.187.156-.328.203-.484.203-.25 0-.328-.156-.328-.625v-2.125c0-.562-.062-.875-.203-1.125-.234-.406-.703-.625-1.375-.625-.547 0-1.078.156-1.375.406-.28.22-.453.547-.453.813a.47.47 0 0 0 .469.469c.266 0 .5-.22.5-.453 0-.047-.016-.094-.03-.172l-.03-.266c0-.297.344-.53.78-.53.53 0 .828.313.828.906v.656C1.453-2.516 1.266-2.422.797-2c-.234.22-.39.578-.39.938C.406-.375.875.11 1.547.11c.484 0 .922-.234 1.594-.797.063.578.25.797.703.797.36 0 .594-.125.984-.547zm-1.703-.906c0 .344-.047.438-.28.578a1.65 1.65 0 0 1-.797.234c-.375 0-.687-.36-.687-.828v-.047c0-.64.453-1.03 1.766-1.516zm0 0" class="C"/></symbol><symbol id="AB" class="B"><path d="M5.22 0v-.156c-.328 0-.547-.187-.89-.656l-1.39-2.14.906-1.312a1.12 1.12 0 0 1 .875-.484v-.156H3v.156c.328.03.438.094.438.25 0 .125-.14.36-.406.703l-.328.484-.156-.22c-.297-.453-.5-.828-.5-.97 0-.156.14-.234.47-.25v-.156H.266v.156H.36c.328 0 .5.14.844.656L2.22-2.516.984-.72c-.328.453-.437.516-.797.563V0h1.578v-.156c-.297 0-.437-.062-.437-.203 0-.062.078-.234.22-.453l.86-1.344 1 1.53c.047.063.063.14.063.203 0 .188-.078.234-.437.266V0zm0 0" class="C"/></symbol><symbol id="AC" class="B"><path d="M3.656-4.437c0-.36-.234-.578-.61-.578-.453 0-.766.25-1.297 1.03V-5l-.062-.016-1.61.594v.172a1.75 1.75 0 0 1 .375-.047c.28 0 .375.172.375.656v2.72c0 .547-.078.625-.78.766V0h2.625v-.156C1.938-.203 1.75-.36 1.75-.984v-2.453c0-.344.47-.89.766-.89.063 0 .156.047.28.156.172.156.297.22.438.22.25 0 .422-.187.422-.484zm0 0" class="C"/></symbol><symbol id="AD" class="B"><path d="M5.125-4.234v-.422H4.28c-.22 0-.375-.03-.594-.11l-.234-.094c-.297-.11-.594-.156-.875-.156-1.016 0-1.828.78-1.828 1.78 0 .688.297 1.094 1.016 1.453l-.47.438c-.36.313-.5.53-.5.75 0 .234.125.36.578.578C.594.563.313.922.313 1.313c0 .578.844 1.063 1.875 1.063.828 0 1.672-.28 2.234-.734.422-.344.61-.687.61-1.11 0-.672-.516-1.125-1.328-1.156L2.297-.703C1.72-.72 1.453-.812 1.453-1c0-.203.36-.594.656-.672.094 0 .172.016.203.016l.406.03c.406 0 .844-.156 1.188-.453.36-.312.516-.687.516-1.234 0-.312-.047-.562-.203-.922zM4.72.703c0 .625-.828 1.047-2.062 1.047-.953 0-1.594-.312-1.594-.797 0-.25.078-.39.547-.937.36.078 1.22.14 1.766.14.984 0 1.344.156 1.344.547zM3.594-2.89c0 .61-.328 1-.828 1-.656 0-1.11-.72-1.11-1.766v-.03c0-.64.313-1.03.813-1.03.328 0 .625.188.797.516.188.39.328.89.328 1.313zm0 0" class="C"/></symbol><symbol id="AE" class="B"><path d="M3.047-.72l-.14-.125c-.25.28-.422.39-.656.39-.406 0-.578-.28-.578-.984v-3.125h1.11v-.344h-1.11v-1.266c0-.11-.016-.14-.062-.14l-.22.297C.984-5.406.61-5 .328-4.844c-.125.078-.187.14-.187.203 0 .03.016.063.047.078h.578v3.28c0 .922.328 1.39.953 1.39.547 0 .97-.266 1.328-.828zm0 0" class="C"/></symbol><symbol id="AF" class="B"><path d="M5.72-3.266v-.72H.438v.72zm0 1.797v-.72H.438v.72zm0 0" class="C"/></symbol><symbol id="AG" class="B"><path d="M6.47-5.36l-.062-1.86H.25L.188-5.36h.266c.25-1.203.5-1.406 1.734-1.406h.578v5.453c0 .938-.11 1.047-1.016 1.11V0h3.172v-.203C4.03-.25 3.875-.39 3.875-1.187v-5.578h.594c1.25 0 1.484.203 1.734 1.406zm0 0" class="C"/></symbol><symbol id="AH" class="B"><path d="M6.906-1.234l-.203-.187C5.906-.656 5.188-.328 4.28-.328c-.656 0-1.25-.203-1.703-.578-.64-.53-1-1.516-1-2.78 0-1.97 1-3.25 2.594-3.25.625 0 1.188.234 1.625.672.344.344.5.656.72 1.36h.25l-.11-2.47h-.22a.46.46 0 0 1-.453.359c-.11 0-.266-.03-.437-.094-.53-.172-1.062-.266-1.594-.266a3.82 3.82 0 0 0-2.375.859C.75-5.828.313-4.78.313-3.547.313-1.328 1.75.156 3.922.156c1.234 0 2.313-.5 2.984-1.39zm0 0" class="C"/></symbol><symbol id="AI" class="B"><path d="M5.125-2.547c0-1.437-1-2.47-2.406-2.47S.313-3.97.313-2.47C.313-1 1.328.11 2.703.11s2.422-1.156 2.422-2.656zm-.984.375c0 1.234-.484 1.97-1.312 1.97-.422 0-.828-.25-1.047-.687C1.47-1.47 1.297-2.22 1.297-3c0-1.03.516-1.72 1.28-1.72.922 0 1.563 1.047 1.563 2.547zm0 0" class="C"/></symbol><symbol id="AJ" class="B"><path d="M8.453 0v-.156l-.28-.03c-.328-.016-.47-.22-.47-.64v-2.25c0-1.28-.422-1.937-1.266-1.937-.64 0-1.187.28-1.78.922-.203-.625-.562-.922-1.156-.922-.484 0-.78.156-1.687.844V-5l-.078-.016-1.53.484v.188c.14-.03.234-.047.36-.047.28 0 .375.188.375.703v2.766c0 .578-.156.75-.766.766V0h2.422v-.156c-.578-.03-.734-.156-.734-.578v-3.078s.078-.125.156-.203a1.87 1.87 0 0 1 1.125-.437c.484 0 .72.39.72 1.156v2.36c0 .61-.125.734-.734.78V0h2.438v-.156c-.625-.016-.78-.203-.78-.875v-2.75c.328-.47.688-.672 1.188-.672.625 0 .813.297.813 1.203v2.297c0 .625-.078.72-.72.797V0zm0 0" class="C"/></symbol><symbol id="AK" class="B"><path d="M5.125-2.687c0-1.36-.766-2.328-1.828-2.328-.61 0-1.078.266-1.562.86V-5l-.062-.016-1.578.563v.172c.11-.016.172-.016.28-.016.36 0 .438.11.438.625v5.094c0 .578-.11.688-.766.766v.172h2.64v-.187c-.812-.016-.953-.125-.953-.812V-.36c.375.36.64.47 1.094.47 1.297 0 2.297-1.22 2.297-2.797zm-.937.422c0 1.203-.53 2.03-1.312 2.03-.516 0-1.14-.39-1.14-.72V-3.64c0-.328.61-.72 1.11-.72.813 0 1.344.828 1.344 2.094zm0 0" class="C"/></symbol><symbol id="AL" class="B"><path d="M5.22-.39v-.156h-.047c-.5 0-.625-.125-.625-.625v-3.734h-1.72v.188c.672.03.797.14.797.688v2.563c0 .297-.047.453-.172.547-.312.266-.656.39-.984.39-.422 0-.78-.36-.78-.828v-3.547H.094v.156c.53.03.688.188.688.688v2.75C.78-.453 1.297.11 2.094.11c.406 0 .828-.172 1.125-.47l.47-.47v.906l.047.016c.547-.22.938-.328 1.484-.484zm0 0" class="C"/></symbol><symbol id="AM" class="B"><path d="M4.625-1.72l-.172-.062c-.53.828-1 1.14-1.687 1.14-.61 0-1.062-.28-1.375-.875-.22-.422-.312-.812-.328-1.5h3.36c-.094-.72-.203-1.03-.47-1.375-.328-.39-.828-.625-1.406-.625-1.344 0-2.28 1.094-2.28 2.688 0 1.5.797 2.438 2.047 2.438 1.047 0 1.86-.64 2.313-1.828zM3.297-3.375h-2.22c.125-.86.5-1.25 1.156-1.25.672 0 .922.313 1.063 1.25zm0 0" class="C"/></symbol><symbol id="AN" class="B"><path d="M4.172-6.766c0-.406-.47-.687-1.125-.687-.687 0-1.266.297-1.547.797-.28.484-.36.875-.375 1.75h-.89v.344h.89v3.422c0 .797-.125.938-.906.984V0h2.828v-.156c-.89-.047-1-.156-1-.984v-3.422h1.328v-.344H2.03v-1.266c0-.64.203-.97.625-.97.234 0 .375.11.578.422.172.297.297.39.484.39a.43.43 0 0 0 .453-.437zm0 0" class="C"/></symbol><symbol id="AO" class="B"><path d="M3.656-4.437c0-.36-.234-.578-.61-.578-.453 0-.766.25-1.297 1.03V-5l-.062-.016-1.61.594v.172a1.75 1.75 0 0 1 .375-.047c.28 0 .375.172.375.656v2.72c0 .547-.078.625-.78.766V0h2.625v-.156C1.938-.203 1.75-.36 1.75-.984v-2.453c0-.344.47-.89.766-.89.063 0 .156.047.28.156.172.156.297.22.438.22.25 0 .422-.187.422-.484zm0 0" class="C"/></symbol><symbol id="AP" class="B"><path d="M4.828-.437v-.28c-.187.156-.328.203-.484.203-.25 0-.328-.156-.328-.625v-2.125c0-.562-.062-.875-.203-1.125-.234-.406-.703-.625-1.375-.625-.547 0-1.078.156-1.375.406-.28.22-.453.547-.453.813a.47.47 0 0 0 .469.469c.266 0 .5-.22.5-.453 0-.047-.016-.094-.03-.172l-.03-.266c0-.297.344-.53.78-.53.53 0 .828.313.828.906v.656C1.453-2.516 1.266-2.422.797-2c-.234.22-.39.578-.39.938C.406-.375.875.11 1.547.11c.484 0 .922-.234 1.594-.797.063.578.25.797.703.797.36 0 .594-.125.984-.547zm-1.703-.906c0 .344-.047.438-.28.578a1.65 1.65 0 0 1-.797.234c-.375 0-.687-.36-.687-.828v-.047c0-.64.453-1.03 1.766-1.516zm0 0" class="C"/></symbol><symbol id="AQ" class="B"><path d="M4.5-1.61l-.156-.094c-.53.766-.922 1.03-1.547 1.03-1 0-1.687-.875-1.687-2.125 0-1.14.61-1.906 1.484-1.906.39 0 .53.125.64.53l.063.234c.094.313.297.5.53.5.28 0 .516-.203.516-.453 0-.61-.766-1.125-1.687-1.125a2.28 2.28 0 0 0-1.469.563C.594-3.97.266-3.22.266-2.312.266-.906 1.14.11 2.344.11a1.92 1.92 0 0 0 1.25-.453c.328-.266.547-.578.906-1.266zm0 0" class="C"/></symbol><symbol id="AR" class="B"><path d="M5.313 0v-.156c-.594-.11-.656-.203-.656-.953V-3.28c0-1.14-.453-1.734-1.344-1.734-.64 0-1.094.266-1.594.922v-3.328l-.062-.03c-.375.14-.64.22-1.25.39L.11-6.97v.172c.047-.016.078-.016.125-.016.47 0 .563.094.563.563v5.14c0 .766-.062.86-.703.953V0h2.36v-.156C1.828-.234 1.72-.36 1.72-1.11v-2.625c.453-.516.78-.687 1.203-.687.547 0 .813.39.813 1.156v2.156c0 .734-.11.875-.734.953V0zm0 0" class="C"/></symbol><symbol id="AS" class="B"><path d="M5.11-2.656c0-1.328-.828-2.36-1.922-2.36-.672 0-1.297.39-1.516.922v-3.328l-.062-.03c-.453.172-.75.25-1.266.39L.03-6.97v.172c.063-.016.11-.016.188-.016.438 0 .53.11.53.563v5.656c0 .344.922.703 1.797.703C3.984.11 5.11-1.094 5.11-2.656zm-.97.5c0 1.22-.516 1.922-1.422 1.922-.562 0-1.047-.25-1.047-.53v-2.75c0-.422.516-.812 1.078-.812.844 0 1.39.844 1.39 2.172zm0 0" class="C"/></symbol><symbol id="AT" class="B"><path d="M5.188-4.75v-.156H3.703v.156c.36 0 .53.11.53.28a.54.54 0 0 1-.047.188l-1.062 3-1.25-2.75c-.062-.156-.11-.297-.11-.422 0-.187.172-.266.64-.297v-.156H.156v.156c.28.03.47.156.547.344L2.516-.61c.063.188.11.313.11.406 0 .156-.25.844-.437 1.172-.14.28-.39.5-.547.5-.062 0-.156-.03-.266-.078-.203-.078-.39-.125-.578-.125-.25 0-.47.22-.47.484 0 .36.344.625.813.625.72 0 1.25-.61 1.844-2.172L4.656-4.25c.14-.36.266-.47.53-.5zm0 0" class="C"/></symbol><symbol id="AU" class="B"><path d="M5.297 0v-.156C4.75-.22 4.625-.344 4.625-.89v-2.484c0-1.03-.484-1.64-1.28-1.64-.516 0-.844.188-1.594.875V-5l-.078-.016-1.5.484v.188c.063-.03.172-.047.297-.047.313 0 .406.172.406.703v2.703c0 .625-.125.78-.672.828V0h2.313v-.156c-.562-.047-.734-.187-.734-.578v-3.062c.53-.484.766-.625 1.125-.625.547 0 .797.344.797 1.063v2.28c0 .688-.14.875-.687.922V0zm0 0" class="C"/></symbol><symbol id="AV" class="B"><path d="M5.36-.453v-.172h-.25c-.39 0-.484-.11-.484-.625v-6.172l-.062-.03c-.516.188-.89.297-1.594.484v.172c.078-.016.156-.016.234-.016.406 0 .5.11.5.563v1.703c-.406-.344-.703-.47-1.14-.47-1.25 0-2.266 1.234-2.266 2.78C.297-.844 1.11.11 2.313.11c.61 0 1.03-.22 1.39-.734v.703l.047.03zM3.703-1.11c0 .078-.078.203-.187.328-.187.22-.47.328-.78.328-.906 0-1.5-.875-1.5-2.22 0-1.234.53-2.047 1.36-2.047.578 0 1.11.516 1.11 1.094zm0 0" class="C"/></symbol><symbol id="AW" class="B"><path d="M3.797-1.28c0-.547-.25-.906-.922-1.297L1.703-3.28c-.312-.172-.47-.453-.47-.75 0-.437.344-.734.844-.734.61 0 .938.36 1.188 1.344h.172L3.39-4.906h-.125l-.016.016c-.094.078-.11.094-.156.094a1.04 1.04 0 0 1-.297-.078C2.578-4.97 2.328-5 2.063-5c-.89 0-1.5.547-1.5 1.328 0 .625.344 1.047 1.266 1.578l.64.36c.375.22.563.484.563.813 0 .484-.344.797-.906.797-.75 0-1.125-.422-1.39-1.53H.563V.047h.14c.078-.11.125-.14.25-.14s.25.03.516.094c.297.063.578.11.797.11.828 0 1.53-.64 1.53-1.39zm0 0" class="C"/></symbol><symbol id="AX" class="B"><path d="M1.97-.47c0-.344-.28-.625-.61-.625s-.594.28-.594.625c0 .313.266.594.594.594a.62.62 0 0 0 .609-.594zm0 0" class="C"/></symbol><symbol id="AY" class="B"><path d="M4.578-3.516H1.53c-.812 0-1.297.875-1.36 1.03H.36c.03-.062.36-.453.797-.453h.453L.922-1.25C.72-.72.03-.703.03-.156v.03c0 .14.11.22.313.22.328 0 .64-.203 1.047-1.328l.72-1.703h.86l-.484 1.72-.062.594v.063c0 .344.28.656.78.656.234 0 .5-.062.5-.36v-.047c0-.53-.594-.453-.594-.97 0-.062 0-.156.03-.25l.39-1.406h.906zm0 0" class="C"/></symbol><symbol id="AZ" class="B"><path d="M5.47-5.203H.734L.39-3.97l.11.03c.438-.828.72-.984 1.953-.984h.188L1.484-.72c-.125.422-.344.547-.937.594V0h2.625l-.016-.125-.328-.03C2.47-.172 2.375-.25 2.375-.5c-.016-.094 0-.172.094-.453l1.094-3.97h.484c.625 0 .922.203.938.64 0 .11-.016.22-.03.36l.156.016zm0 0" class="C"/></symbol><symbol id="Aa" class="B"><path d="M4.344-.797L4.22-.875l-.234.22c-.266.266-.375.328-.47.328-.078 0-.125-.047-.125-.11-.016-.156.328-1.516.72-2.89l.03-.156-.047-.03-.562.063-.03.016-.078.39c-.094-.297-.36-.47-.75-.47-1.234 0-2.594 1.453-2.547 2.72.016.563.375.89.97.89.64 0 1.094-.234 1.813-1.25-.187.64-.203.703-.187.906 0 .234.125.328.375.328.36 0 .594-.156 1.25-.875zM3.266-2.86c.03.672-.406 1.61-1.016 2.203-.22.22-.53.36-.797.36-.328 0-.53-.234-.547-.594-.016-.437.28-1.22.64-1.72.36-.453.766-.734 1.14-.734h.047c.313.016.53.22.53.484zm0 0" class="C"/></symbol><symbol id="Ab" class="B"><path d="M2.047-.875l-.125-.062c-.437.5-.562.64-.703.64-.125 0-.187-.094-.14-.203l.734-2.64h.766l.047-.266H1.89l.203-.828-.078-.11h-.03c-.03 0-.062.016-.094.063-.344.406-.89.828-1.172.89-.22.063-.28.11-.28.203 0 0 0 .03.016.047h.672L.47-.797c-.094.266-.14.53-.14.61C.344-.03.53.11.766.11c.422 0 .72-.234 1.28-.984zm0 0" class="C"/></symbol><symbol id="Ac" class="B"><path d="M4.22-2.516c-.016-.625-.422-1-1.094-1-.594 0-1.03.25-1.547.906l.25-.875s-.016-.03-.03-.03H1.78l-1.406.172.03.125C.672-3.22 1-3.22 1-3c.016.094-.297 1.188-.61 2.25l-.437 1.78c-.078.375-.203.47-.594.47l.016.14h1.89l-.016-.125c-.422 0-.594-.062-.594-.234 0-.125.14-.72.297-1.328a1.28 1.28 0 0 0 .609.141c1.328 0 2.703-1.344 2.656-2.61zm-.844.016c.03.53-.203 1.188-.562 1.672-.375.516-.812.766-1.297.766-.25 0-.453-.125-.453-.297-.016-.266.28-1.312.516-1.906.234-.516.72-.906 1.172-.906h.03c.39.016.578.22.594.672zm0 0" class="C"/></symbol><symbol id="Ad" class="B"><path d="M2.484-2.03c0-.11-.078-.22-.187-.22-.14 0-.64.5-.812.61 0-.344.156-.687.156-.89 0-.125-.078-.203-.203-.203s-.203.078-.203.203c0 .234.156.563.156.89-.203-.11-.672-.625-.797-.625-.11 0-.203.11-.203.22 0 .203.703.344.953.484-.266.14-.734.22-.86.297-.062.047-.11.094-.11.172 0 .11.094.22.203.22.14 0 .625-.5.813-.61 0 .344-.172.688-.172.89 0 .125.094.203.203.203.125 0 .203-.078.203-.203 0-.25-.14-.562-.14-.89.188.11.672.625.78.625s.22-.094.22-.203c0-.094-.062-.14-.125-.172-.156-.11-.578-.172-.828-.328.28-.172.672-.187.844-.297.063-.03.11-.094.11-.172zm0 0" class="C"/></symbol><symbol id="Ae" class="B"><path d="M3.22-7.812C1.64-6.797.53-5.03.53-2.797c0 2.016 1.14 4.078 2.656 5l.125-.172C1.875.89 1.47-.422 1.47-2.828c0-2.422.438-3.687 1.844-4.812zm0 0" class="C"/></symbol><symbol id="Af" class="B"><path d="M.422-7.812l-.11.172c1.406 1.125 1.86 2.39 1.86 4.813 0 2.406-.422 3.72-1.86 4.86l.14.172c1.5-.922 2.656-2.984 2.656-5 0-2.234-1.11-4-2.687-5.016zm0 0" class="C"/></symbol><symbol id="Ag" class="B"><path d="M7.328-6.453c0-.86-1.53-1.187-2.187-1.187-1.266 0-2.875.61-2.875 2.094 0 2 3.375 2.063 3.375 3.89 0 1.125-1.547 1.36-2.406 1.36-.906 0-2.14-.625-2.14-1.672a1.38 1.38 0 0 1 .188-.687l-.078-.016C.813-2.5.078-1.797.078-1.344.078-.094 2 .313 2.953.313c1.063 0 2.125-.39 2.89-1.125.344-.328.984-1.094.984-1.594 0-1.734-3.53-2.094-3.53-3.797 0-.734.89-1.016 1.484-1.016.875 0 1.625.5 1.625 1.438 0 .203-.062.375-.22.516.61-.016 1.14-.578 1.14-1.187zm0 0" class="C"/></symbol><symbol id="Ah" class="B"><path d="M2.72-3.125H.328v.72h2.39V0h.72v-2.406h2.39v-.72h-2.39v-2.39h-.72zm0 0" class="C"/></symbol><symbol id="Ai" class="B"><path d="M4.547-3.97H.516l-.25.938.047.016c.36-.625.61-.734 1.656-.734h.172L1.266-.547c-.11.328-.28.422-.797.453V0h2.25l-.016-.094-.266-.016c-.312-.03-.39-.078-.39-.266-.016-.016-.016-.03-.016-.047 0-.062.016-.125.078-.312l.828-3.016h.406c.53 0 .78.14.797.484.016.03.016.047.016.078 0 .063-.016.125-.016.203h.14zm0 0" class="C"/></symbol><symbol id="Aj" class="B"><path d="M1.766-.672l-.11-.047c-.36.39-.484.484-.61.484-.078 0-.125-.047-.125-.11 0-.016 0-.03.016-.047L1.5-2.375h.672l.047-.22h-.64l.156-.64-.062-.078h-.03c-.016 0-.062.016-.094.047-.28.313-.75.64-1 .688-.187.063-.266.094-.25.156v.047h.61L.39-.61c-.062.203-.11.39-.11.47 0 .14.188.234.406.234.36 0 .61-.172 1.078-.766zm0 0" class="C"/></symbol><symbol id="Ak" class="B"><path d="M3.703-2.687H1.22c-.656 0-1.047.672-1.11.797H.28c.016-.047.28-.344.656-.344h.344L.734-.953c-.156.406-.72.422-.72.828v.03c0 .11.094.156.266.156.266 0 .516-.14.844-1l.578-1.297h.703l-.39 1.297-.047.453v.063c0 .25.25.484.656.484.188 0 .406-.047.406-.266v-.03c0-.406-.5-.36-.5-.734 0-.062 0-.125.016-.203l.328-1.062h.72zm0 0" class="C"/></symbol><symbol id="Al" class="B"><path d="M3.86-.062V-.47H2.344c-.72 0-1.422-.578-1.516-1.375h2.89v-.406H.828c.094-.75.72-1.39 1.516-1.39H3.86v-.39H2.375c-1.11 0-1.953.922-1.953 1.984S1.266-.062 2.375-.062zm0 0" class="C"/></symbol><symbol id="Am" class="B"><path d="M6.875-.297v-.11c-.078.03-.172.078-.266.078-.312 0-.437-1.25-.437-1.5 0-1.016.047-2.484.578-3.375l-.047-.03c-.266.11-.547.14-.844.14-.61 0-1.22-.094-1.828-.094-.594 0-1.203.28-1.703.578-.266.156-1 .672-1 1.016 0 .22.438.72.672.72h.047c-.11-.187-.172-.39-.172-.61 0-1.047 1.422-1.375 2.25-1.375l.813.016C4.11-4.5 3.734-3.61 3.406-2.828c-.328.016-.937.156-.937.578 0 .063.047.11.094.14.11-.22.406-.297.64-.297h.094C2.938-1.5 2.547-.11 1.344-.11c-.61 0-1.03-.5-1.03-1.094l-.047-.03c-.156.188-.203.422-.203.64 0 .594.47.906 1.016.906.984 0 2.03-1.22 2.453-2.016.125-.22.22-.453.313-.687.61.03 1-.078 1.53-.36-.03.484-.078 2.953.47 2.953.266 0 .844-.328 1.03-.5zM5.78-4.875c-.156.625-.28 1.266-.375 1.906-.187.094-.406.172-.64.172A12.54 12.54 0 0 1 4-2.828c.22-.766.97-1.828 1.78-2.047zm0 0" class="C"/></symbol><symbol id="An" class="B"><path d="M1.984-2.28H.234v.53h1.75V0h.53v-1.75H4.25v-.53H2.516v-1.75h-.53zm0 0" class="C"/></symbol><symbol id="Ao" class="B"><path d="M4.344 25.563c0-.062-.14-.156-.172-.172-1.016-.53-1.375-1.797-1.375-4.016V15.61c0-.78-.328-2.547-1.53-3.14 1.203-.61 1.53-2.36 1.53-3.14V3.625c0-2.22.36-3.484 1.375-4.016.03-.03.172-.11.172-.172 0-.03-.03-.047-.062-.047s-.11.016-.14.03c-.625.188-2.187 1-2.187 4.22v5.672c0 2.516-1.422 3.172-1.422 3.172s1.422.64 1.422 3.156v5.72c0 3.22 1.563 4.03 2.188 4.22.03.016.11.03.14.03s.063-.016.063-.047zm0 0" class="C"/></symbol><symbol id="Ap" class="B"><path d="M.53 25.563c0 .03.016.047.047.047.047 0 .11-.016.14-.03.625-.187 2.188-1 2.188-4.22v-5.72c0-2.516 1.422-3.156 1.438-3.156-.016 0-1.437-.656-1.437-3.172V3.64C2.906.422 1.344-.39.72-.578.688-.594.625-.61.578-.61.547-.61.53-.594.53-.562c0 .063.125.14.172.172C1.72.14 2.078 1.406 2.078 3.625v5.703c0 .78.313 2.53 1.516 3.14-1.203.594-1.516 2.36-1.516 3.14v5.766c0 2.22-.36 3.484-1.375 4.016-.047.016-.172.11-.172.172zm0 0" class="C"/></symbol><symbol id="Aq" class="B"><path d="M3.266 12.484v-.28h-.97c-.266 0-.5-.187-.5-.453V.11c0-.266.234-.453.5-.453h.97V-.61H.953v13.094zm0 0" class="C"/></symbol><symbol id="Ar" class="B"><path d="M1.594 6.547V-.328H.938v6.875zm0 0" class="C"/></symbol><symbol id="As" class="B"><path d="M2.672 12.484V-.61H.375v.266h.953c.28 0 .5.188.5.453v11.64c0 .266-.22.453-.5.453H.375v.28zm0 0" class="C"/></symbol><symbol id="At" class="B"><path d="M6.125-7.22l-.64-.016L4.313-4.28h-2.25L.922-7.22H.266L3.047.156h.172zM4.11-3.734l-.953 2.438-.906-2.437zm0 0" class="C"/></symbol><symbol id="Au" class="B"><path d="M5.28-.094v-.53H3.203c-.984 0-1.937-.812-2.062-1.906h3.953v-.547H1.14c.11-1.03.97-1.89 2.063-1.89H5.28v-.547H3.25C1.734-5.516.563-4.25.563-2.797.563-1.36 1.734-.094 3.25-.094zm0 0" class="C"/></symbol><symbol id="Av" class="B"><path d="M6.594-2.062h-.61C5.39-.687 4.75-.687 3.375-.687c-.156 0-.984.063-.984-.187l.016-2.53h1.438c.875.016.906.203 1.016 1h.547v-2.75H4.86c-.11.797-.156 1-1.016 1H2.406v-2.187c0-.172 0-.187.172-.187h1.516c.938 0 1.203.125 1.36 1.094h.563L5.97-7.234H.094v.5c.688.03.922.03.922.797v4.656c0 .75-.234.75-.922.797V.03H6.03zm-.437.39l-.36 1.375H.906c.375-.172.422-.594.422-.984v-4.656c0-.39-.03-.812-.437-.984h4.766l.03 1.016c-.25-.922-.86-.937-1.703-.937H2.578c-.375 0-.5.14-.5.5v2.5h1.766c.656 0 1.063-.078 1.234-.75v1.625c-.172-.687-.578-.734-1.234-.75l-1.766-.016V-.97c0 .734.766.594 1.297.594 1.297 0 2.156 0 2.78-1.297zm0 0" class="C"/></symbol><symbol id="Aw" class="B"><path d="M3.14 0v-.125c-.625 0-.766-.078-.766-.47v-4.78l-.062-.016-1.422.734v.11l.203-.094c.156-.047.28-.078.36-.078.172 0 .25.11.25.375v3.61c0 .25-.062.438-.203.516-.11.063-.22.094-.562.094V0zm0 0" class="C"/></symbol></defs><path d="M7.848 5.71H461.39" fill="none" stroke-width=".797" class="D E"/><g class="F"><use xlink:href="#A" x="7.419" y="21.406"/><use xlink:href="#B" x="16.051" y="21.406"/><use xlink:href="#C" x="19.374" y="21.406"/><use xlink:href="#D" x="25.352" y="21.406"/><use xlink:href="#E" x="31.33" y="21.406"/><use xlink:href="#F" x="36.638" y="21.406"/><use xlink:href="#G" x="39.961" y="21.406"/><use xlink:href="#H" x="43.942" y="21.406"/><use xlink:href="#I" x="50.589" y="21.406"/><use xlink:href="#J" x="63.537" y="21.406"/><use xlink:href="#K" x="72.503" y="21.406"/><use xlink:href="#L" x="80.059" y="21.406"/><use xlink:href="#M" x="85.367" y="21.406"/><use xlink:href="#N" x="88.691" y="21.406"/><use xlink:href="#O" x="94.668" y="21.406"/><use xlink:href="#P" x="102.965" y="21.406"/><use xlink:href="#N" x="106.946" y="21.406"/><use xlink:href="#Q" x="112.924" y="21.406"/><use xlink:href="#R" x="118.901" y="21.406"/><use xlink:href="#S" x="124.21" y="21.406"/><use xlink:href="#T" x="127.533" y="21.406"/><use xlink:href="#U" x="130.857" y="21.406"/><use xlink:href="#Q" x="136.834" y="21.406"/><use xlink:href="#T" x="145.801" y="21.406"/><use xlink:href="#S" x="149.124" y="21.406"/><use xlink:href="#O" x="152.448" y="21.406"/><use xlink:href="#V" x="157.756" y="21.406"/><use xlink:href="#L" x="161.737" y="21.406"/><use xlink:href="#S" x="167.045" y="21.406"/><use xlink:href="#T" x="170.369" y="21.406"/><use xlink:href="#U" x="173.692" y="21.406"/><use xlink:href="#Q" x="179.67" y="21.406"/><use xlink:href="#W" x="188.636" y="21.406"/><use xlink:href="#X" x="197.602" y="21.406"/><use xlink:href="#S" x="202.074" y="21.406"/><use xlink:href="#L" x="205.397" y="21.406"/><use xlink:href="#Q" x="210.705" y="21.406"/><use xlink:href="#Y" x="216.683" y="21.406"/><use xlink:href="#L" x="222.661" y="21.406"/><use xlink:href="#V" x="227.969" y="21.406"/><use xlink:href="#Y" x="231.95" y="21.406"/><use xlink:href="#Z" x="240.916" y="21.406"/><use xlink:href="#N" x="246.894" y="21.406"/><use xlink:href="#a" x="252.871" y="21.406"/><use xlink:href="#L" x="262.173" y="21.406"/><use xlink:href="#Q" x="267.481" y="21.406"/><use xlink:href="#R" x="276.447" y="21.406"/><use xlink:href="#L" x="281.755" y="21.406"/><use xlink:href="#b" x="287.063" y="21.406"/><use xlink:href="#T" x="293.041" y="21.406"/><use xlink:href="#S" x="296.364" y="21.406"/><use xlink:href="#L" x="299.688" y="21.406"/><use xlink:href="#M" x="304.996" y="21.406"/><use xlink:href="#a" x="311.308" y="21.406"/><use xlink:href="#U" x="320.61" y="21.406"/><use xlink:href="#Y" x="326.587" y="21.406"/><use xlink:href="#O" x="332.565" y="21.406"/><use xlink:href="#M" x="337.873" y="21.406"/><use xlink:href="#c" x="341.196" y="21.406"/></g><path d="M7.848 26.188H461.39" fill="none" class="D E G"/><g class="F"><use xlink:href="#d" x="18.758" y="44.393"/><use xlink:href="#e" x="22.064" y="44.393"/><use xlink:href="#f" x="27.518" y="44.393"/><use xlink:href="#o" x="35.046" y="44.393"/><use xlink:href="#v" x="41.741" y="44.393"/><use xlink:href="#p" x="50.848" y="44.393"/><use xlink:href="#w" x="57.961" y="44.393"/><use xlink:href="#x" x="62.805" y="44.393"/><use xlink:href="#x" x="67.703" y="44.393"/><use xlink:href="#x" x="72.612" y="44.393"/><use xlink:href="#w" x="77.346" y="44.393"/><use xlink:href="#y" x="82.008" y="44.393"/><use xlink:href="#g" x="90.19" y="44.393"/><use xlink:href="#e" x="96.256" y="44.393"/><use xlink:href="#h" x="35.122" y="59.297"/><use xlink:href="#d" x="38.155" y="59.297"/><use xlink:href="#AE" x="45.126" y="59.297"/><use xlink:href="#AF" x="50.886" y="59.297"/><use xlink:href="#AF" x="57.039" y="59.297"/><use xlink:href="#AG" x="65.919" y="59.297"/><use xlink:href="#i" x="75.311" y="59.297"/><use xlink:href="#j" x="78.944" y="59.297"/><use xlink:href="#k" x="85.009" y="59.297"/><use xlink:href="#l" x="89.853" y="59.297"/><use xlink:href="#q" x="51.595" y="76.447"/><use xlink:href="#AY" x="56.982" y="72.487"/><use xlink:href="#Ad" x="62.047" y="69.594"/><use xlink:href="#AZ" x="55.563" y="80.199"/><use xlink:href="#Ae" x="66.451" y="76.447"/><use xlink:href="#r" x="70.804" y="76.447"/><use xlink:href="#AZ" x="74.947" y="78.083"/><use xlink:href="#Af" x="81.909" y="76.447"/><use xlink:href="#v" x="89.117" y="76.447"/><use xlink:href="#z" x="100.95" y="76.447"/><use xlink:href="#AA" x="109.438" y="76.447"/><use xlink:href="#AB" x="114.281" y="76.447"/><use xlink:href="#Aa" x="98.885" y="83.768"/><use xlink:href="#Ai" x="103.225" y="84.964"/><use xlink:href="#Al" x="109.678" y="83.768"/><use xlink:href="#Am" x="114.707" y="83.768"/><use xlink:href="#Ao" x="122.625" y="61.051"/><use xlink:href="#s" x="127.676" y="76.447"/><use xlink:href="#Ae" x="134.047" y="76.447"/><use xlink:href="#r" x="138.399" y="76.447"/><use xlink:href="#AZ" x="142.542" y="78.083"/><use xlink:href="#w" x="149.504" y="76.447"/><use xlink:href="#t" x="154.315" y="76.447"/><use xlink:href="#AZ" x="159.851" y="78.083"/><use xlink:href="#Af" x="166.813" y="76.447"/><use xlink:href="#Ap" x="171.209" y="61.051"/><use xlink:href="#At" x="198.22" y="76.447"/><use xlink:href="#r" x="206.507" y="76.447"/><use xlink:href="#AZ" x="210.65" y="78.083"/><use xlink:href="#Au" x="220.86" y="76.447"/><use xlink:href="#Ag" x="229.958" y="76.447"/><use xlink:href="#AZ" x="236.772" y="78.083"/><use xlink:href="#k" x="35.122" y="95.353"/><use xlink:href="#m" x="39.966" y="95.353"/><use xlink:href="#n" x="42.999" y="95.353"/><use xlink:href="#k" x="47.242" y="95.353"/><use xlink:href="#AH" x="51.486" y="110.257"/><use xlink:href="#AI" x="58.763" y="110.257"/><use xlink:href="#AJ" x="64.217" y="110.257"/><use xlink:href="#AK" x="72.704" y="110.257"/><use xlink:href="#AL" x="78.159" y="110.257"/><use xlink:href="#AE" x="83.614" y="110.257"/><use xlink:href="#AM" x="86.646" y="110.257"/><use xlink:href="#q" x="94.326" y="110.257"/><use xlink:href="#AY" x="99.713" y="106.297"/><use xlink:href="#Ad" x="104.778" y="103.404"/><use xlink:href="#Ab" x="98.653" y="113.108"/><use xlink:href="#Ae" x="109.182" y="110.257"/><use xlink:href="#r" x="113.535" y="110.257"/><use xlink:href="#Ab" x="118.037" y="111.894"/><use xlink:href="#Af" x="121.763" y="110.257"/><use xlink:href="#AN" x="128.668" y="110.257"/><use xlink:href="#AI" x="131.865" y="110.257"/><use xlink:href="#AO" x="137.319" y="110.257"/><use xlink:href="#AM" x="143.679" y="110.257"/><use xlink:href="#AP" x="148.523" y="110.257"/><use xlink:href="#AQ" x="153.366" y="110.257"/><use xlink:href="#AR" x="158.046" y="110.257"/><use xlink:href="#r" x="166.512" y="110.257"/><use xlink:href="#Ab" x="171.013" y="111.894"/><use xlink:href="#Au" x="177.988" y="110.257"/><use xlink:href="#Ag" x="187.086" y="110.257"/><use xlink:href="#Ab" x="194.258" y="111.894"/><use xlink:href="#AS" x="200.711" y="110.257"/><use xlink:href="#AT" x="205.839" y="110.257"/><use xlink:href="#q" x="73.413" y="130.247"/><use xlink:href="#AY" x="78.801" y="126.287"/><use xlink:href="#Ad" x="83.866" y="123.393"/><use xlink:href="#Ab" x="77.74" y="133.098"/><use xlink:href="#Ae" x="88.27" y="130.247"/><use xlink:href="#r" x="92.622" y="130.247"/><use xlink:href="#Ab" x="97.124" y="131.883"/><use xlink:href="#Af" x="100.85" y="130.247"/><use xlink:href="#v" x="108.058" y="130.247"/><use xlink:href="#z" x="118.716" y="130.247"/><use xlink:href="#AA" x="127.204" y="130.247"/><use xlink:href="#AB" x="132.047" y="130.247"/><use xlink:href="#Aa" x="117.826" y="137.568"/><use xlink:href="#Aj" x="122.439" y="138.764"/><use xlink:href="#Al" x="126.27" y="137.568"/><use xlink:href="#Am" x="131.299" y="137.568"/><use xlink:href="#Ao" x="139.217" y="114.851"/><use xlink:href="#s" x="144.268" y="130.247"/><use xlink:href="#Ae" x="150.639" y="130.247"/><use xlink:href="#r" x="154.991" y="130.247"/><use xlink:href="#Ab" x="159.493" y="131.883"/><use xlink:href="#w" x="163.219" y="130.247"/><use xlink:href="#t" x="168.03" y="130.247"/><use xlink:href="#Ab" x="173.924" y="131.883"/><use xlink:href="#Af" x="177.65" y="130.247"/><use xlink:href="#Ah" x="184.25" y="130.247"/><use xlink:href="#u" x="192.982" y="130.247"/><use xlink:href="#Av" x="200.179" y="130.247"/><use xlink:href="#Ac" x="207.681" y="133.223"/><use xlink:href="#Ak" x="213.215" y="130.919"/><use xlink:href="#Ad" x="217.333" y="129.163"/><use xlink:href="#Aq" x="222.671" y="121.465"/><use xlink:href="#q" x="226.631" y="130.247"/><use xlink:href="#AY" x="232.019" y="126.287"/><use xlink:href="#Ad" x="237.084" y="123.393"/><use xlink:href="#Ab" x="230.958" y="134.17"/><use xlink:href="#An" x="234.186" y="134.17"/><use xlink:href="#Aw" x="238.681" y="134.17"/><use xlink:href="#Ae" x="243.71" y="130.247"/><use xlink:href="#r" x="248.063" y="130.247"/><use xlink:href="#Ab" x="252.564" y="131.883"/><use xlink:href="#An" x="255.792" y="131.883"/><use xlink:href="#Aw" x="260.287" y="131.883"/><use xlink:href="#Af" x="264.77" y="130.247"/><use xlink:href="#Ar" x="270.767" y="120.898"/><use xlink:href="#Ar" x="270.767" y="127.443"/><use xlink:href="#r" x="275.399" y="130.247"/><use xlink:href="#Ab" x="279.901" y="131.883"/><use xlink:href="#As" x="283.845" y="121.465"/><use xlink:href="#Ap" x="288.678" y="114.851"/><use xlink:href="#AP" x="51.486" y="149.017"/><use xlink:href="#AU" x="56.33" y="149.017"/><use xlink:href="#AV" x="61.784" y="149.017"/><use xlink:href="#AW" x="69.966" y="149.017"/><use xlink:href="#AM" x="74.21" y="149.017"/><use xlink:href="#AE" x="79.054" y="149.017"/><use xlink:href="#t" x="73.446" y="166.106"/><use xlink:href="#AY" x="80.181" y="162.146"/><use xlink:href="#Ad" x="85.246" y="159.253"/><use xlink:href="#Ab" x="79.344" y="168.958"/><use xlink:href="#Ae" x="89.65" y="166.106"/><use xlink:href="#r" x="94.002" y="166.106"/><use xlink:href="#Ab" x="98.504" y="167.743"/><use xlink:href="#Af" x="102.23" y="166.106"/><use xlink:href="#v" x="109.438" y="166.106"/><use xlink:href="#AA" x="118.927" y="166.106"/><use xlink:href="#AC" x="123.771" y="166.106"/><use xlink:href="#AD" x="127.24" y="166.106"/><use xlink:href="#z" x="134.516" y="166.106"/><use xlink:href="#AA" x="143.004" y="166.106"/><use xlink:href="#AB" x="147.847" y="166.106"/><use xlink:href="#Aa" x="125.829" y="175.686"/><use xlink:href="#Aj" x="130.442" y="176.882"/><use xlink:href="#Al" x="134.273" y="175.686"/><use xlink:href="#Am" x="139.302" y="175.686"/><use xlink:href="#Ao" x="153.843" y="150.711"/><use xlink:href="#s" x="158.894" y="166.106"/><use xlink:href="#Ae" x="165.265" y="166.106"/><use xlink:href="#r" x="169.618" y="166.106"/><use xlink:href="#Ab" x="174.119" y="167.743"/><use xlink:href="#w" x="177.845" y="166.106"/><use xlink:href="#t" x="182.656" y="166.106"/><use xlink:href="#Ab" x="188.551" y="167.743"/><use xlink:href="#Af" x="192.277" y="166.106"/><use xlink:href="#Ah" x="198.877" y="166.106"/><use xlink:href="#u" x="207.609" y="166.106"/><use xlink:href="#Av" x="214.805" y="166.106"/><use xlink:href="#Ac" x="222.307" y="169.082"/><use xlink:href="#Ak" x="227.841" y="166.779"/><use xlink:href="#Ad" x="231.959" y="165.023"/><use xlink:href="#Aq" x="237.297" y="157.325"/><use xlink:href="#q" x="241.257" y="166.106"/><use xlink:href="#AY" x="246.645" y="162.146"/><use xlink:href="#Ad" x="251.71" y="159.253"/><use xlink:href="#Ab" x="245.584" y="170.03"/><use xlink:href="#An" x="248.812" y="170.03"/><use xlink:href="#Aw" x="253.307" y="170.03"/><use xlink:href="#Ae" x="258.336" y="166.106"/><use xlink:href="#r" x="262.689" y="166.106"/><use xlink:href="#Ab" x="267.19" y="167.743"/><use xlink:href="#An" x="270.418" y="167.743"/><use xlink:href="#Aw" x="274.913" y="167.743"/><use xlink:href="#Af" x="279.397" y="166.106"/><use xlink:href="#Ar" x="285.393" y="156.757"/><use xlink:href="#Ar" x="285.393" y="163.303"/><use xlink:href="#r" x="290.026" y="166.106"/><use xlink:href="#Ab" x="294.527" y="167.743"/><use xlink:href="#As" x="298.471" y="157.325"/><use xlink:href="#Ap" x="303.304" y="150.711"/><use xlink:href="#AX" x="308.715" y="166.106"/><use xlink:href="#k" x="35.122" y="186.58"/><use xlink:href="#l" x="39.966" y="186.58"/><use xlink:href="#g" x="46.031" y="186.58"/><use xlink:href="#h" x="54.824" y="186.58"/><use xlink:href="#d" x="57.857" y="186.58"/><use xlink:href="#k" x="18.758" y="201.484"/><use xlink:href="#l" x="23.602" y="201.484"/><use xlink:href="#g" x="29.667" y="201.484"/><use xlink:href="#d" x="38.46" y="201.484"/><use xlink:href="#e" x="41.766" y="201.484"/><use xlink:href="#f" x="47.22" y="201.484"/></g><path d="M7.848 215.504H461.39" fill="none" class="D E G"/></svg>
