<?xml version="1.0" encoding="iso-8859-1"?>
<!-- Generator: Adobe Illustrator 19.0.0, SVG Export Plug-In . SVG Version: 6.00 Build 0)  -->
<svg version="1.1" id="Layer_1" xmlns="http://www.w3.org/2000/svg" xmlns:xlink="http://www.w3.org/1999/xlink" x="0px" y="0px"
	 viewBox="0 0 512 512" style="enable-background:new 0 0 512 512;" xml:space="preserve">
<g>
	<g>
		<path d="M401.37,106.889h-17.102c-4.427,0-8.017,3.589-8.017,8.017s3.589,8.017,8.017,8.017h17.102
			c4.427,0,8.017-3.589,8.017-8.017S405.797,106.889,401.37,106.889z"/>
	</g>
</g>
<g>
	<g>
		<path d="M350.063,106.889H59.324c-4.427,0-8.017,3.589-8.017,8.017v188.125c0,4.427,3.589,8.017,8.017,8.017
			s8.017-3.589,8.017-8.017V122.923h282.722c4.427,0,8.017-3.589,8.017-8.017S354.49,106.889,350.063,106.889z"/>
	</g>
</g>
<g>
	<g>
		<path d="M452.676,106.889h-17.102c-4.427,0-8.017,3.589-8.017,8.017s3.589,8.017,8.017,8.017h9.086v223.399H67.34v-9.086
			c0-4.427-3.589-8.017-8.017-8.017s-8.017,3.589-8.017,8.017v17.102c0,4.427,3.589,8.017,8.017,8.017h393.353
			c4.427,0,8.017-3.589,8.017-8.017V114.906C460.693,110.479,457.104,106.889,452.676,106.889z"/>
	</g>
</g>
<g>
	<g>
		<path d="M503.983,380.526h-9.086V106.355c0-18.566-15.105-33.67-33.67-33.67H50.772c-18.566,0-33.67,15.105-33.67,33.67v274.171
			H8.017c-4.427,0-8.017,3.589-8.017,8.017v25.653c0,13.851,11.268,25.119,25.119,25.119h461.762
			c13.851,0,25.119-11.268,25.119-25.119v-25.653C512,384.115,508.411,380.526,503.983,380.526z M33.136,106.355
			c0-9.725,7.912-17.637,17.637-17.637h410.455c9.725,0,17.637,7.912,17.637,17.637v274.171H33.136V106.355z M495.967,414.196
			c0,5.01-4.076,9.086-9.086,9.086H25.119c-5.01,0-9.086-4.076-9.086-9.086V396.56h197.772c-0.012,0.177-0.027,0.354-0.027,0.534
			c0,4.427,3.589,8.017,8.017,8.017h68.409c4.427,0,8.017-3.589,8.017-8.017c0-0.181-0.015-0.357-0.027-0.534h197.772V414.196z"/>
	</g>
</g>
<g>
	<g>
		<path d="M247.449,243.708c-13.851,0-25.119,11.268-25.119,25.119v17.102c0,13.851,11.268,25.119,25.119,25.119
			s25.119-11.268,25.119-25.119v-17.102C272.568,254.976,261.3,243.708,247.449,243.708z M256.534,285.929
			c0,5.01-4.076,9.086-9.086,9.086s-9.086-4.076-9.086-9.086v-17.102c0-5.01,4.076-9.086,9.086-9.086s9.086,4.076,9.086,9.086
			V285.929z"/>
	</g>
</g>
<g>
	<g>
		<path d="M290.205,158.196c-13.851,0-25.119,11.268-25.119,25.119v17.102c0,13.851,11.268,25.119,25.119,25.119
			c13.851,0,25.119-11.268,25.119-25.119v-17.102C315.324,169.465,304.055,158.196,290.205,158.196z M299.29,200.418
			c0,5.01-4.076,9.086-9.086,9.086c-5.01,0-9.086-4.076-9.086-9.086v-17.102c0-5.01,4.076-9.086,9.086-9.086
			c5.01,0,9.086,4.076,9.086,9.086V200.418z"/>
	</g>
</g>
<g>
	<g>
		<path d="M179.04,158.196c-13.851,0-25.119,11.268-25.119,25.119v17.102c0,13.851,11.268,25.119,25.119,25.119
			s25.119-11.268,25.119-25.119v-17.102C204.159,169.465,192.89,158.196,179.04,158.196z M188.125,200.418
			c0,5.01-4.076,9.086-9.086,9.086s-9.086-4.076-9.086-9.086v-17.102c0-5.01,4.076-9.086,9.086-9.086s9.086,4.076,9.086,9.086
			V200.418z"/>
	</g>
</g>
<g>
	<g>
		<path d="M401.37,158.196c-13.851,0-25.119,11.268-25.119,25.119v17.102c0,13.851,11.268,25.119,25.119,25.119
			c13.851,0,25.119-11.268,25.119-25.119v-17.102C426.489,169.465,415.22,158.196,401.37,158.196z M410.455,200.418
			c0,5.01-4.076,9.086-9.086,9.086c-5.01,0-9.086-4.076-9.086-9.086v-17.102c0-5.01,4.076-9.086,9.086-9.086
			c5.01,0,9.086,4.076,9.086,9.086V200.418z"/>
	</g>
</g>
<g>
	<g>
		<path d="M119.182,158.196c-13.851,0-25.119,11.268-25.119,25.119v17.102c0,13.851,11.268,25.119,25.119,25.119
			s25.119-11.268,25.119-25.119v-17.102C144.301,169.465,133.032,158.196,119.182,158.196z M128.267,200.418
			c0,5.01-4.076,9.086-9.086,9.086s-9.086-4.076-9.086-9.086v-17.102c0-5.01,4.076-9.086,9.086-9.086s9.086,4.076,9.086,9.086
			V200.418z"/>
	</g>
</g>
<g>
	<g>
		<path d="M358.614,243.708c-13.851,0-25.119,11.268-25.119,25.119v17.102c0,13.851,11.268,25.119,25.119,25.119
			c13.851,0,25.119-11.268,25.119-25.119v-17.102C383.733,254.976,372.465,243.708,358.614,243.708z M367.699,285.929
			c0,5.01-4.076,9.086-9.086,9.086c-5.01,0-9.086-4.076-9.086-9.086v-17.102c0-5.01,4.076-9.086,9.086-9.086
			c5.01,0,9.086,4.076,9.086,9.086V285.929z"/>
	</g>
</g>
<g>
	<g>
		<path d="M200.357,244.905c-2.362-1.46-5.316-1.593-7.8-0.351l-17.102,8.551c-3.96,1.981-5.566,6.795-3.585,10.755
			c1.98,3.96,6.795,5.567,10.755,3.585l5.5-2.75v38.336c0,4.427,3.589,8.017,8.017,8.017s8.017-3.589,8.017-8.017v-51.307
			C204.159,248.945,202.72,246.365,200.357,244.905z"/>
	</g>
</g>
<g>
	<g>
		<path d="M114.845,244.905c-2.363-1.46-5.315-1.593-7.8-0.351l-17.102,8.551c-3.96,1.981-5.566,6.795-3.585,10.755
			c1.98,3.96,6.795,5.567,10.755,3.585l5.5-2.75v38.336c0,4.427,3.589,8.017,8.017,8.017s8.017-3.589,8.017-8.017v-51.307
			C118.647,248.945,117.208,246.365,114.845,244.905z"/>
	</g>
</g>
<g>
	<g>
		<path d="M311.522,244.905c-2.363-1.46-5.315-1.593-7.8-0.351l-17.102,8.551c-3.96,1.981-5.566,6.795-3.585,10.755
			c1.98,3.96,6.795,5.567,10.755,3.585l5.501-2.75v38.336c0,4.427,3.589,8.017,8.017,8.017s8.017-3.589,8.017-8.017v-51.307
			C315.324,248.945,313.885,246.365,311.522,244.905z"/>
	</g>
</g>
<g>
	<g>
		<path d="M422.686,244.905c-2.363-1.46-5.316-1.593-7.8-0.351l-17.102,8.551c-3.96,1.981-5.566,6.795-3.585,10.755
			c1.981,3.96,6.794,5.567,10.755,3.585l5.501-2.75v38.336c0,4.427,3.589,8.017,8.017,8.017c4.427,0,8.017-3.589,8.017-8.017
			v-51.307C426.489,248.945,425.05,246.365,422.686,244.905z"/>
	</g>
</g>
<g>
	<g>
		<path d="M243.112,159.393c-2.363-1.46-5.315-1.594-7.8-0.351l-17.102,8.551c-3.96,1.981-5.566,6.795-3.585,10.755
			c1.98,3.96,6.794,5.567,10.755,3.585l5.5-2.75v38.336c0,4.427,3.589,8.017,8.017,8.017s8.017-3.589,8.017-8.017v-51.307
			C246.914,163.434,245.476,160.854,243.112,159.393z"/>
	</g>
</g>
<g>
	<g>
		<path d="M354.277,159.393c-2.363-1.46-5.316-1.594-7.8-0.351l-17.102,8.551c-3.96,1.981-5.566,6.795-3.585,10.755
			c1.981,3.96,6.794,5.567,10.755,3.585l5.501-2.75v38.336c0,4.427,3.589,8.017,8.017,8.017s8.017-3.589,8.017-8.017v-51.307
			C358.079,163.434,356.641,160.854,354.277,159.393z"/>
	</g>
</g>
<g>
	<g>
		<path d="M157.601,244.905c-2.363-1.46-5.315-1.593-7.8-0.351l-17.102,8.551c-3.96,1.981-5.566,6.795-3.585,10.755
			c1.981,3.96,6.794,5.567,10.755,3.585l5.501-2.75v38.336c0,4.427,3.589,8.017,8.017,8.017s8.017-3.589,8.017-8.017v-51.307
			C161.403,248.945,159.964,246.365,157.601,244.905z"/>
	</g>
</g>
<g>
</g>
<g>
</g>
<g>
</g>
<g>
</g>
<g>
</g>
<g>
</g>
<g>
</g>
<g>
</g>
<g>
</g>
<g>
</g>
<g>
</g>
<g>
</g>
<g>
</g>
<g>
</g>
<g>
</g>
</svg>
