<?xml version="1.0" encoding="iso-8859-1"?>
<!-- Generator: Adobe Illustrator 19.0.0, SVG Export Plug-In . SVG Version: 6.00 Build 0)  -->
<svg version="1.1" id="Capa_1" xmlns="http://www.w3.org/2000/svg" xmlns:xlink="http://www.w3.org/1999/xlink" x="0px" y="0px"
	 viewBox="0 0 463.002 463.002" style="enable-background:new 0 0 463.002 463.002;" xml:space="preserve">
<path d="M348.12,419.308c3.417-2.17,6.239-5.184,8.175-8.864c2.922-5.554,3.508-11.915,1.648-17.91L335.122,319h8.381
	c4.142,0,7.5-3.358,7.5-7.5s-3.358-7.5-7.5-7.5h-13.036l-35.948-115.83c15.789-16.384,24.483-37.852,24.483-60.67
	c0-40.109-27.129-73.998-64-84.291V23.5c0-12.958-10.542-23.5-23.5-23.5s-23.5,10.542-23.5,23.5v19.709
	c-36.871,10.293-64,44.181-64,84.291c0,22.837,8.691,44.283,24.481,60.665L132.535,304h-13.032c-4.142,0-7.5,3.358-7.5,7.5
	s3.358,7.5,7.5,7.5h8.377l-22.821,73.536c-1.859,5.994-1.274,12.354,1.648,17.909c1.937,3.681,4.759,6.696,8.175,8.865
	l-10.542,33.968c-1.228,3.956,0.984,8.158,4.94,9.386c0.74,0.229,1.489,0.339,2.226,0.339c3.199,0,6.163-2.063,7.161-5.279
	l10.799-34.797c9.516-0.779,17.606-7.196,20.482-16.461L177.092,319h30.911v8.5c0,12.958,10.542,23.5,23.5,23.5
	s23.5-10.542,23.5-23.5V319h30.907l27.144,87.465c2.876,9.265,10.966,15.682,20.482,16.461l10.799,34.797
	c0.998,3.216,3.961,5.279,7.161,5.279c0.736,0,1.485-0.109,2.226-0.339c3.956-1.228,6.167-5.43,4.94-9.386L348.12,419.308z
	 M223.003,23.5c0-4.687,3.813-8.5,8.5-8.5s8.5,3.813,8.5,8.5v16.914c-2.798-0.271-5.632-0.414-8.5-0.414s-5.702,0.143-8.5,0.414
	V23.5z M135.621,402.019c-1.112,3.582-4.373,5.989-8.114,5.989c-0.845,0-1.691-0.13-2.525-0.39c-2.167-0.672-3.943-2.148-5-4.158
	c-1.057-2.01-1.269-4.312-0.597-6.479l72-232.001c0.674-2.172,2.156-3.952,4.175-5.011c1.233-0.648,2.574-0.977,3.927-0.977
	c0.849,0,1.702,0.129,2.537,0.391c2.167,0.672,3.943,2.148,5,4.158c1.057,2.01,1.269,4.312,0.597,6.479L135.621,402.019z
	 M231.503,336c-4.687,0-8.5-3.813-8.5-8.5v-32c0-4.687,3.813-8.5,8.5-8.5s8.5,3.813,8.5,8.5v15.99c0,0.003,0,0.006,0,0.01
	s0,0.006,0,0.01v15.99C240.003,332.187,236.19,336,231.503,336z M255.003,304v-8.5c0-12.958-10.542-23.5-23.5-23.5
	s-23.5,10.542-23.5,23.5v8.5h-26.256l40.201-129.536c1.859-5.994,1.274-12.354-1.648-17.909c-2.924-5.557-7.836-9.642-13.816-11.495
	c-5.98-1.87-12.337-1.292-17.897,1.627c-5.571,2.926-9.665,7.843-11.527,13.847l-3.339,10.759
	c-9.544-12.534-14.717-27.751-14.717-43.794c0-39.977,32.523-72.5,72.5-72.5s72.5,32.523,72.5,72.5
	c0,16.027-5.179,31.251-14.722,43.789l-3.337-10.754c-1.862-6.004-5.956-10.922-11.527-13.848c-5.56-2.919-11.916-3.498-17.88-1.633
	c-5.996,1.859-10.909,5.943-13.833,11.5c-2.922,5.554-3.508,11.915-1.648,17.91L281.255,304H255.003z M327.381,402.019l-72-231.999
	c-0.672-2.168-0.46-4.47,0.597-6.48c1.057-2.009,2.833-3.486,5.017-4.163c0.827-0.258,1.673-0.386,2.517-0.386
	c1.352,0,2.695,0.329,3.931,0.978c2.019,1.06,3.501,2.839,4.175,5.012l72,231.999c0.672,2.168,0.46,4.47-0.597,6.48
	c-1.057,2.009-2.833,3.486-5.012,4.162c-0.822,0.256-1.668,0.386-2.513,0.386C331.753,408.008,328.493,405.601,327.381,402.019z"/>
<g>
</g>
<g>
</g>
<g>
</g>
<g>
</g>
<g>
</g>
<g>
</g>
<g>
</g>
<g>
</g>
<g>
</g>
<g>
</g>
<g>
</g>
<g>
</g>
<g>
</g>
<g>
</g>
<g>
</g>
</svg>
