<svg xmlns="http://www.w3.org/2000/svg" xmlns:xlink="http://www.w3.org/1999/xlink" width="512.236" height="319.532" viewBox="0 0 384.177 239.649" xmlns:v="https://vecta.io/nano"><style><![CDATA[.B{stroke-miterlimit:10}.C{stroke-linecap:round}.D{stroke-linejoin:round}.E{stroke-width:.339}.F{overflow:visible}.G{stroke:none}.H{fill:rgb(0%,0%,0%)}.I{fill:none}.J{stroke:rgb(0%,0%,0%)}.K{stroke-width:.271}.L{stroke-dasharray:2.98883,2.98883}.M{stroke-width:.319}.N{stroke-width:.677}.O{stroke:rgb(49.803162%,49.803162%,49.803162%)}.P{stroke-width:.638}]]></style><defs><symbol id="A" class="F"><path d="M4.75-1.78c0-.687-.406-1.39-1.016-1.687l-1.36-.672c-.75-.375-.953-.594-.953-1.047 0-.578.39-.922 1.016-.922.422 0 .813.172 1.14.516.313.328.47.594.64 1.188h.266v-2h-.28c-.062.25-.125.313-.297.313-.078 0-.187-.03-.39-.094-.422-.156-.72-.22-1.078-.22-1.266 0-2.03.72-2.03 1.89 0 .234.03.422.11.61.188.5.688.938 1.47 1.313l.625.297c.813.39 1.047.625 1.047 1.125 0 .64-.453 1.047-1.172 1.047-.53 0-.984-.234-1.328-.672C.875-1.14.75-1.453.594-2.11H.328v2.28h.266C.656-.062.72-.14.875-.14c.063 0 .172.03.375.094.453.156.797.22 1.203.22C3.828.172 4.75-.61 4.75-1.78zm0 0" class="G"/></symbol><symbol id="B" class="F"><path d="M3.078-.922l-.234-.11c-.187.36-.328.484-.53.484-.25 0-.36-.156-.36-.53v-2.78h.875v-.406h-.875v-1.578H1.72C1.156-5.047.78-4.625.188-4.11v.25h.484v3c0 .594.39.97 1.03.97.625 0 1-.28 1.375-1.03zm0 0" class="G"/></symbol><symbol id="C" class="F"><path d="M4.516-.39l-.14-.203-.078.094c-.03.03-.062.03-.11.03C4.063-.47 4-.53 4-.687V-3.11c0-.797-.703-1.266-1.844-1.266-1.047 0-1.75.47-1.75 1.156 0 .39.22.61.61.61.36 0 .625-.22.625-.53 0-.125-.047-.25-.172-.406-.078-.078-.11-.14-.11-.203 0-.187.25-.344.594-.344.547 0 .766.25.766.828v.672c-1.078.328-1.516.5-1.86.734-.422.28-.625.594-.625 1 0 .578.422.984 1.016.984.53 0 .97-.187 1.47-.64.11.47.313.64.766.64.39 0 .688-.14 1.03-.516zM2.72-.922c-.25.28-.437.39-.656.39-.28 0-.484-.25-.484-.625 0-.53.39-.906 1.14-1.11zm0 0" class="G"/></symbol><symbol id="D" class="F"><path d="M4.016-3.656c0-.422-.312-.72-.75-.72-.453 0-.812.25-1.25.86v-.75H.266v.22c.406.047.5.172.5.547v2.72c0 .39-.094.484-.5.563V0h2.47v-.22c-.562-.047-.672-.156-.672-.734v-1.75c0-.484.25-.875.563-.875.078 0 .156.063.25.203.188.25.328.328.563.328.344 0 .578-.25.578-.61zm0 0" class="G"/></symbol><symbol id="E" class="F"><path d="M4.594-1.39c0-.344-.14-.64-.406-.875-.25-.22-.5-.328-1.03-.437.86-.266 1.188-.562 1.188-1.125 0-.766-.687-1.187-1.937-1.187H.125v.188c.5.03.64.14.64.516V-.72c0 .39-.11.47-.64.53V0h2.39c1.25 0 2.078-.562 2.078-1.39zm-1.28.063c0 .72-.297 1.094-.906 1.094-.328 0-.453-.125-.453-.453v-1.86h.234c.766 0 1.125.406 1.125 1.22zM3.125-3.78c0 .78-.25.984-1.172 1.016v-1.672c0-.266.125-.36.406-.36.516 0 .766.328.766 1.016zm0 0" class="G"/></symbol><symbol id="F" class="F"><path d="M1.89 0v-.172c-.25-.016-.36-.156-.36-.453v-4.39H.125v.172c.25.03.375.156.375.438v3.78c0 .28-.125.422-.375.453V0zm0 0" class="G"/></symbol><symbol id="G" class="F"><path d="M3.984-.156v-.156c-.328-.016-.422-.125-.422-.437v-2.672H2.078v.172c.375.03.453.125.453.438v2.11c-.234.25-.39.328-.594.328-.312 0-.422-.156-.422-.53v-2.516H.125v.172c.297.063.36.125.36.438v1.875C.484-.28.86.11 1.47.11c.39 0 .64-.125 1.078-.5v.484c.313-.11.5-.14.984-.187zm0 0" class="G"/></symbol><symbol id="H" class="F"><path d="M3.156-.828l-.172-.094c-.312.36-.53.484-.844.484-.28 0-.5-.125-.656-.375-.14-.234-.203-.484-.234-1h1.875c-.047-.625-.156-.97-.39-1.25-.234-.297-.578-.453-1-.453-.922 0-1.547.734-1.547 1.828C.188-.61.797.11 1.72.11c.594 0 .953-.234 1.438-.937zM2.22-2.094h-1c.016-.89.156-1.187.516-1.187.22 0 .344.125.406.344.047.14.063.36.078.734zm0 0" class="G"/></symbol><symbol id="I" class="F"><path d="M7.28-4.828v-.187H5.938v.188c.39.016.5.094.5.328 0 .094-.016.203-.047.313L5.563-1.64l-.812-2.5-.094-.422c0-.172.11-.234.438-.266h.094v-.187H2.875v.188c.297.016.453.078.53.25l.266.72-.875 2.28-.89-2.703c-.047-.11-.062-.172-.062-.234 0-.22.094-.28.484-.312v-.187H.14v.188c.313.047.39.11.516.47L2.234.11h.203l1.375-3.53L5.078.11h.203l1.484-4.47c.094-.297.266-.453.516-.47zm0 0" class="G"/></symbol><symbol id="J" class="F"><path d="M3.97 0v-.172c-.266-.03-.375-.14-.375-.453V-2.47c0-.64-.39-1.047-1-1.047-.39 0-.656.156-1.047.578v-2.078H.125v.172c.328.078.39.125.39.438v3.78c0 .313-.062.375-.39.453V0h1.78v-.172c-.266-.047-.36-.156-.36-.422v-1.984c0-.03.047-.11.125-.172.156-.172.344-.266.516-.266.25 0 .375.203.375.625v1.797c0 .266-.094.39-.344.422V0zm0 0" class="G"/></symbol><symbol id="K" class="F"><path d="M1.89 0v-.172c-.25-.047-.344-.14-.344-.422v-2.828H.125v.172c.328.078.39.14.39.438v2.188c0 .313-.062.36-.39.453V0zm-.297-4.562c0-.328-.25-.562-.578-.562a.55.55 0 0 0-.562.563c0 .328.25.578.563.578.328 0 .578-.25.578-.578zm0 0" class="G"/></symbol><symbol id="L" class="F"><path d="M2.47-.75L2.28-.828c-.156.28-.266.39-.422.39-.22 0-.297-.125-.297-.422v-2.234h.703v-.328h-.703v-1.25h-.187c-.453.64-.75.97-1.22 1.375v.203H.53v2.406c0 .484.328.78.828.78S2.156-.14 2.47-.75zm0 0" class="G"/></symbol><symbol id="M" class="F"><path d="M6.828 0v-.187c-.578-.078-.64-.156-.64-.687v-3.28c0-.53.11-.64.64-.672v-.187H4.97l-1.484 3.5L2-5.016H.125v.188c.53.047.656.14.656.516v3.53c0 .453-.094.53-.672.594V0h1.734v-.187c-.61-.047-.75-.187-.75-.734v-3.484L2.97 0h.188L5.03-4.516V-.75c0 .422-.11.516-.656.563V0zm0 0" class="G"/></symbol><symbol id="N" class="F"><path d="M3.625-.312l-.11-.156-.078.063c-.016.03-.047.03-.078.03-.11 0-.156-.062-.156-.187V-2.5c0-.625-.562-1.016-1.47-1.016-.844 0-1.406.39-1.406.938 0 .313.172.5.484.5.297 0 .5-.187.5-.437 0-.11-.03-.203-.125-.312-.078-.078-.094-.125-.094-.172 0-.156.203-.266.47-.266.438 0 .625.188.625.64v.547c-.875.266-1.22.406-1.5.594-.344.22-.5.47-.5.797C.188-.234.53.11 1 .11c.438 0 .78-.156 1.188-.53.078.39.234.53.61.53.313 0 .547-.125.828-.422zM2.172-.75c-.203.234-.344.328-.53.328-.22 0-.375-.203-.375-.5 0-.422.313-.734.906-.89zm0 0" class="G"/></symbol><symbol id="O" class="F"><path d="M3.22-2.937a.57.57 0 0 0-.594-.578c-.375 0-.656.203-1 .703v-.61H.22v.172c.313.047.39.14.39.438v2.188c0 .313-.062.39-.39.453V0h1.97v-.172c-.453-.03-.547-.125-.547-.594v-1.406c0-.375.22-.703.453-.703.063 0 .14.047.22.172.14.203.25.266.438.266.28 0 .47-.203.47-.5zm0 0" class="G"/></symbol><symbol id="P" class="F"><path d="M3.563-3.25v-.172H2.438v.172c.328.016.406.078.406.25 0 .078-.016.156-.078.328l-.5 1.438-.53-1.375c-.156-.375-.156-.375-.156-.437 0-.11.094-.172.28-.187l.11-.016v-.172H.125v.172c.172.03.203.047.25.125.03 0 .36.72.484 1.03L1.75.094l-.125.39c-.14.375-.328.61-.5.61C1.063 1.094 1 1.047 1 .97c0 0 0-.016.016-.047 0-.03.016-.062.016-.094C1.03.61.844.453.594.453c-.28 0-.47.203-.47.484 0 .344.297.578.72.578.25 0 .47-.078.625-.234.156-.172.297-.47.563-1.172l1.094-2.937c.14-.312.203-.39.438-.422zm0 0" class="G"/></symbol><symbol id="Q" class="F"><path d="M3.813-1.422c0-.562-.344-1.11-.828-1.36l-1.078-.53c-.61-.297-.766-.484-.766-.844 0-.453.313-.75.813-.75.328 0 .64.156.906.422s.375.47.53.953h.203v-1.61h-.22c-.062.203-.11.25-.25.25a.99.99 0 0 1-.297-.062c-.344-.125-.594-.172-.875-.172-1.016 0-1.625.563-1.625 1.516a1.5 1.5 0 0 0 .078.484c.156.39.563.75 1.188 1.047l.5.234c.656.313.828.5.828.906 0 .5-.36.828-.937.828-.422 0-.78-.172-1.062-.53-.22-.266-.328-.53-.453-1.047H.266V.14H.47c.047-.187.11-.25.234-.25.047 0 .14.016.297.078a2.76 2.76 0 0 0 .969.172c1.094 0 1.844-.625 1.844-1.562zm0 0" class="G"/></symbol><symbol id="R" class="F"><path d="M3.188-.672l-.125-.14c-.28.313-.47.422-.78.422-.64 0-1.047-.656-1.047-1.656 0-.766.234-1.234.625-1.234.11 0 .22.063.266.14.047.063.047.063.047.375 0 .375.125.53.406.53.313 0 .516-.172.516-.453 0-.47-.5-.828-1.156-.828-1.016 0-1.75.78-1.75 1.86C.188-.625.844.11 1.78.11c.563 0 .984-.234 1.406-.78zm0 0" class="G"/></symbol><symbol id="S" class="F"><path d="M3.53-1.703c0-1.03-.703-1.812-1.672-1.812-.937 0-1.672.78-1.672 1.797C.188-.656.89.11 1.86.11S3.53-.672 3.53-1.703zm-1.094.047c0 1.14-.14 1.53-.578 1.53S1.28-.5 1.28-1.594c0-1.297.125-1.687.594-1.687.422 0 .563.406.563 1.625zm0 0" class="G"/></symbol><symbol id="T" class="F"><path d="M5.64 0v-.187c-.547-.062-.656-.156-.656-.53v-3.594c0-.36.14-.484.656-.516v-.187H3.11v.188c.516.03.672.156.672.516v1.547H1.984v-1.547c0-.36.156-.484.672-.516v-.187h-2.5v.188c.5.047.625.156.625.516V-.72c0 .375-.11.47-.625.53V0h2.5v-.187c-.547-.062-.672-.156-.672-.53v-1.703H3.78V-.72c0 .375-.125.47-.672.53V0zm0 0" class="G"/></symbol><symbol id="U" class="F"><path d="M6.047 0v-.172c-.297-.016-.375-.11-.375-.422V-2.47c0-.64-.39-1.047-1-1.047-.422 0-.703.172-1.094.656-.22-.47-.484-.656-.953-.656s-.812.203-1.094.656v-.562H.125v.172c.328.047.406.14.406.438v2.188c0 .313-.078.39-.406.453V0h1.78v-.172c-.266-.047-.344-.14-.344-.422v-1.984c0-.047.11-.187.22-.266.156-.125.28-.172.406-.172.28 0 .39.172.39.625v1.797c0 .297-.078.39-.344.422V0H3.97v-.172c-.266-.03-.36-.14-.36-.422v-1.984c0-.047.125-.187.22-.25.172-.14.297-.187.422-.187.28 0 .39.188.39.625v1.797c0 .297-.078.39-.36.422V0zm0 0" class="G"/></symbol><symbol id="V" class="F"><path d="M3.016-.922c0-.22-.094-.422-.25-.578-.14-.125-.28-.187-.61-.266.266-.078.36-.125.484-.234s.203-.297.203-.5c0-.578-.453-.875-1.328-.875H.094v.094c.422.03.484.094.484.47v2.25c0 .39-.062.453-.484.47V0H1.78c.406 0 .766-.11.953-.28.188-.156.28-.39.28-.64zm-.578.016c0 .266-.11.47-.312.578-.156.094-.375.14-.703.14-.25 0-.328-.047-.328-.203v-1.266c.5 0 .734.016.906.094a.64.64 0 0 1 .438.656zm-.11-1.578c0 .39-.266.625-.75.625h-.484V-3.03c0-.11.03-.156.11-.156h.234c.578 0 .89.25.89.703zm0 0" class="G"/></symbol><symbol id="W" class="F"><path d="M1.313 0v-.078C.984-.094.922-.14.922-.422V-3.47l-.016-.016c-.266.094-.453.14-.812.234v.078h.03c.063 0 .125-.016.156-.016.172 0 .22.078.22.313v2.438c0 .266-.078.328-.39.36V0zm0 0" class="G"/></symbol><symbol id="X" class="F"><path d="M2.438-.187V-.25h-.016c-.234 0-.297-.062-.297-.297v-1.75h-.812v.094c.328.016.39.063.39.313v1.203c0 .14-.03.22-.094.266-.14.11-.297.172-.453.172-.203 0-.36-.172-.36-.375v-1.672h-.75v.078c.25.016.313.094.313.328v1.28c0 .406.25.656.625.656.188 0 .375-.078.516-.22l.22-.22V.03l.016.016c.266-.11.453-.156.703-.234zm0 0" class="G"/></symbol><symbol id="Y" class="F"><path d="M2.156-.797l-.078-.03c-.25.375-.47.53-.797.53-.266 0-.484-.14-.64-.406C.547-.906.5-1.078.5-1.406h1.563c-.047-.328-.094-.484-.22-.64a.84.84 0 0 0-.656-.297c-.625 0-1.062.516-1.062 1.25 0 .703.375 1.14.953 1.14.484 0 .875-.297 1.078-.844zm-.61-.78H.5c.063-.39.234-.578.547-.578s.438.14.5.578zm0 0" class="G"/></symbol><symbol id="Z" class="F"><path d="M4.75-3.28v-.094H3.734v.094c.266.03.36.094.36.22 0 .11-.03.25-.078.39l-.64 1.72-.672-1.734-.062-.156a.73.73 0 0 1-.078-.25c0-.125.11-.172.39-.187v-.094h-1.36v.094c.297.016.344.063.516.47l.172.406L1.734-.97 1-2.875C.97-2.97.938-3.062.938-3.11c0-.11.078-.156.344-.172v-.094H.03v.094c.25.03.328.125.516.61L1.53.063h.078l.78-2.156.813 2.156h.078l1.047-2.97c.094-.266.156-.312.422-.375zm0 0" class="G"/></symbol><symbol id="a" class="F"><path d="M2.484 0v-.078c-.28-.047-.312-.094-.312-.437V-1.53c0-.53-.203-.812-.625-.812-.297 0-.516.125-.75.422V-3.47L.78-3.484l-.594.188-.14.047v.078H.11c.22 0 .266.03.266.25v2.406c0 .36-.03.406-.328.438V0H1.14v-.078C.844-.11.797-.172.797-.516V-1.75c.22-.234.375-.312.563-.312.266 0 .39.172.39.53v1.016c0 .344-.047.406-.344.438V0zm0 0" class="G"/></symbol><symbol id="b" class="F"><path d="M1.28 0v-.078C.953-.11.906-.156.906-.516v-1.812L.89-2.344l-.78.28v.078h.03C.203-2 .266-2 .313-2c.125 0 .172.078.172.297v1.188c0 .36-.047.422-.406.438V0zM.953-3.22c0-.14-.11-.266-.25-.266s-.266.125-.266.266.125.266.266.266.25-.125.25-.266zm0 0" class="G"/></symbol><symbol id="c" class="F"><path d="M1.422-.344L1.36-.39c-.11.125-.203.172-.312.172C.86-.22.78-.344.78-.672v-1.453h.516v-.172H.78v-.594c0-.047 0-.062-.03-.062-.03.063-.062.094-.11.14-.187.28-.36.47-.484.547-.062.047-.094.063-.094.094 0 .016.016.03.03.047H.36v1.53c0 .422.156.64.453.64.25 0 .438-.125.61-.39zm0 0" class="G"/></symbol><symbol id="d" class="F"><path d="M4.39 0v-.094c-.36-.03-.437-.094-.437-.47v-2.25c0-.36.063-.437.438-.47v-.094H3.375L2.25-.797 1.078-3.375h-1v.094c.406.03.484.094.484.47V-.75c0 .53-.078.625-.5.656V0h1.203v-.094C.86-.11.78-.234.78-.75v-2.047L2.063 0h.063l1.313-2.922V-.61c0 .422-.062.484-.47.516V0zm0 0" class="G"/></symbol><symbol id="e" class="F"><path d="M2.25-.203v-.14c-.078.078-.14.11-.22.11-.125 0-.156-.078-.156-.297v-1c0-.25-.03-.406-.094-.516-.11-.187-.328-.297-.64-.297-.266 0-.5.078-.64.188s-.22.25-.22.39c0 .11.094.22.22.22s.234-.11.234-.22c0-.016 0-.047-.016-.078 0-.047-.016-.094-.016-.125 0-.14.172-.25.375-.25.25 0 .39.14.39.422v.313c-.797.313-.875.36-1.094.547-.11.11-.187.28-.187.438a.51.51 0 0 0 .531.547c.234 0 .438-.11.75-.375.03.28.11.375.328.375.172 0 .28-.062.453-.25zm-.78-.422c0 .156-.03.203-.14.266a.73.73 0 0 1-.375.109C.78-.25.64-.422.64-.64v-.016c0-.297.203-.484.828-.703zm0 0" class="G"/></symbol><symbol id="f" class="F"><path d="M1.703-2.078c0-.156-.11-.266-.28-.266-.203 0-.36.125-.61.484v-.47l-.016-.016-.766.28v.078C.11-2 .156-2 .22-2c.125 0 .172.078.172.297v1.28c0 .25-.047.28-.36.344V0h1.22v-.078C.906-.094.813-.172.813-.453V-1.61c0-.156.22-.406.36-.406.03 0 .078.016.125.063.094.078.14.11.203.11.125 0 .203-.094.203-.234zm0 0" class="G"/></symbol><symbol id="g" class="F"><path d="M2.422-2.22v-.078h-.687v.078c.156 0 .234.047.234.125 0 .03 0 .063-.016.094L1.47-.594.875-1.89c-.03-.062-.047-.125-.047-.187 0-.094.078-.125.297-.14v-.078H.078v.078c.125.016.22.078.25.156l.844 1.78c.03.078.063.14.063.188 0 .078-.125.39-.203.547C.953.578.844.688.766.688.734.688.688.672.64.64.547.61.453.594.375.594c-.125 0-.22.094-.22.22 0 .172.156.297.375.297.344 0 .578-.28.86-1.016l.78-2.078c.063-.172.125-.22.25-.234zm0 0" class="G"/></symbol><symbol id="h" class="F"><path d="M2.5-.86c0-.422-.28-.75-.953-1.11-.53-.297-.75-.516-.75-.797s.22-.47.53-.47c.234 0 .438.094.625.28.156.156.234.297.313.594h.125l-.11-1.078h-.11c-.016.11-.078.172-.172.172-.047 0-.125-.03-.22-.062a1.42 1.42 0 0 0-.547-.109c-.203 0-.422.078-.578.203-.203.172-.297.39-.297.672 0 .39.22.688.797.984.36.203.625.406.766.594.047.078.063.172.063.297 0 .344-.25.578-.625.578-.453 0-.78-.28-1.03-.906H.22L.36.063h.125c0-.094.063-.172.14-.172.047 0 .14.03.234.063.188.078.406.125.61.125.578 0 1.03-.406 1.03-.937zm0 0" class="G"/></symbol><symbol id="i" class="F"><path d="M2.094-.75L2.03-.797c-.25.36-.437.484-.72.484-.47 0-.797-.406-.797-1 0-.53.28-.89.703-.89.172 0 .25.063.297.25l.03.11c.03.156.125.234.234.234.14 0 .25-.094.25-.203 0-.297-.36-.53-.78-.53-.25 0-.484.094-.687.266-.28.22-.437.578-.437 1 0 .656.406 1.125.97 1.125.22 0 .406-.062.594-.203.14-.125.25-.28.406-.594zm0 0" class="G"/></symbol><symbol id="j" class="F"><path d="M2.39-1.187c0-.672-.47-1.156-1.11-1.156-.672 0-1.14.484-1.14 1.188C.14-.47.625.047 1.266.047S2.39-.484 2.39-1.187zm-.453.172c0 .578-.234.922-.61.922-.203 0-.39-.125-.5-.328-.14-.266-.22-.625-.22-.984 0-.484.234-.797.594-.797.438 0 .734.484.734 1.188zm0 0" class="G"/></symbol><symbol id="k" class="F"><path d="M3.578 0v-.094c-.39-.03-.453-.094-.453-.47v-2.25c0-.375.063-.422.453-.47v-.094H2.156v.094c.39.047.453.094.453.47v.984H1.063v-.984c0-.375.063-.422.453-.47v-.094H.094v.094c.39.047.453.094.453.47V-.61c0 .422-.047.484-.453.516V0h1.422v-.094c-.39-.03-.453-.094-.453-.47V-1.61H2.61v1c0 .422-.047.484-.453.516V0zm0 0" class="G"/></symbol><symbol id="l" class="F"><path d="M3.953 0v-.078l-.14-.016c-.156 0-.22-.094-.22-.297v-1.047c0-.594-.203-.906-.594-.906-.297 0-.547.14-.828.422-.094-.28-.266-.422-.53-.422-.234 0-.375.078-.797.39v-.375l-.03-.016-.72.234v.078c.063-.016.11-.016.172-.016.125 0 .172.078.172.328v1.28c0 .28-.078.36-.36.36V0h1.14v-.078C.938-.094.86-.14.86-.344V-1.78s.047-.062.078-.094a.89.89 0 0 1 .531-.203c.22 0 .328.172.328.53v1.11c0 .28-.047.344-.344.36V0h1.14v-.078c-.28 0-.36-.094-.36-.406v-1.28c.156-.22.313-.312.547-.312.297 0 .39.14.39.563v1.078c0 .28-.047.328-.344.36V0zm0 0" class="G"/></symbol><clipPath id="m"><path d="M12 113h50v13H12zm0 0"/></clipPath><clipPath id="n"><path d="M57.727 112.96H16.313a3.39 3.39 0 0 0-3.387 3.391v5.96c0 1.87 1.516 3.387 3.387 3.387h41.414c1.87 0 3.387-1.516 3.387-3.387v-5.96a3.39 3.39 0 0 0-3.387-3.391zm0 0"/></clipPath><linearGradient id="o" x1="-11.176" y1="125.699" x2="-11.176" y2="112.962" xlink:href="#Bk"><stop offset="0" stop-color="rgb(49.803162%,49.803162%,49.803162%)"/><stop offset="1" stop-color="rgb(49.803162%,49.803162%,49.803162%)"/></linearGradient><clipPath id="p"><path d="M144 22h40v10h-40zm0 0"/></clipPath><clipPath id="q"><path d="M179.934 21.78h-31.777c-1.87 0-3.387 1.516-3.387 3.387v3.38c0 1.87 1.516 3.387 3.387 3.387h31.777c1.87 0 3.387-1.516 3.387-3.387v-3.38c0-1.87-1.516-3.387-3.387-3.387zm0 0"/></clipPath><linearGradient id="r" x1="125.488" y1="31.933" x2="125.488" y2="21.78" xlink:href="#Bk"><stop offset="0" stop-color="rgb(12.156677%,46.665955%,70.588684%)"/><stop offset="1" stop-color="rgb(12.156677%,46.665955%,70.588684%)"/></linearGradient><clipPath id="s"><path d="M277 6h28v7h-28zm0 0"/></clipPath><clipPath id="t"><path d="M300.934 5.797h-19.73a3.39 3.39 0 0 0-3.387 3.391V9.3a3.39 3.39 0 0 0 3.387 3.387h19.73a3.39 3.39 0 0 0 3.387-3.387v-.113a3.39 3.39 0 0 0-3.387-3.391zm0 0"/></clipPath><linearGradient id="u" x1="264.562" y1="12.686" x2="264.562" y2="5.798" xlink:href="#Bk"><stop offset="0" stop-color="rgb(12.156677%,46.665955%,70.588684%)"/><stop offset="1" stop-color="rgb(12.156677%,46.665955%,70.588684%)"/></linearGradient><clipPath id="v"><path d="M277 15h28v7h-28zm0 0"/></clipPath><clipPath id="w"><path d="M300.934 14.594h-19.73c-1.87 0-3.387 1.516-3.387 3.387v.137c0 1.87 1.516 3.387 3.387 3.387h19.73c1.87 0 3.387-1.516 3.387-3.387v-.137c0-1.87-1.516-3.387-3.387-3.387zm0 0"/></clipPath><linearGradient id="x" x1="264.562" y1="21.505" x2="264.562" y2="14.594" xlink:href="#Bk"><stop offset="0" stop-color="rgb(83.921814%,15.293884%,15.686035%)"/><stop offset="1" stop-color="rgb(83.921814%,15.293884%,15.686035%)"/></linearGradient><clipPath id="y"><path d="M277 23h28v8h-28zm0 0"/></clipPath><clipPath id="z"><path d="M300.934 22.88h-19.73a3.39 3.39 0 0 0-3.387 3.391v1.176c0 1.87 1.516 3.387 3.387 3.387h19.73c1.87 0 3.387-1.516 3.387-3.387V26.27a3.39 3.39 0 0 0-3.387-3.391zm0 0"/></clipPath><linearGradient id="AA" x1="264.562" y1="30.832" x2="264.562" y2="22.881" xlink:href="#Bk"><stop offset="0" stop-color="rgb(58.039856%,40.391541%,74.118042%)"/><stop offset="1" stop-color="rgb(58.039856%,40.391541%,74.118042%)"/></linearGradient><clipPath id="AB"><path d="M277 32h28v7h-28zm0 0"/></clipPath><clipPath id="AC"><path d="M300.934 32.207h-19.73c-1.87 0-3.387 1.516-3.387 3.387v.137c0 1.87 1.516 3.387 3.387 3.387h19.73c1.87 0 3.387-1.516 3.387-3.387v-.137c0-1.87-1.516-3.387-3.387-3.387zm0 0"/></clipPath><linearGradient id="AD" x1="264.562" y1="39.119" x2="264.562" y2="32.208" xlink:href="#Bk"><stop offset="0" stop-color="rgb(100%,49.803162%,5.490112%)"/><stop offset="1" stop-color="rgb(100%,49.803162%,5.490112%)"/></linearGradient><clipPath id="AE"><path d="M277 41h28v7h-28zm0 0"/></clipPath><clipPath id="AF"><path d="M300.934 41.027h-19.73c-1.87 0-3.387 1.516-3.387 3.387v.113c0 1.87 1.516 3.387 3.387 3.387h19.73c1.87 0 3.387-1.516 3.387-3.387v-.113c0-1.87-1.516-3.387-3.387-3.387zm0 0"/></clipPath><linearGradient id="AG" x1="264.562" y1="47.915" x2="264.562" y2="41.027" xlink:href="#Bk"><stop offset="0" stop-color="rgb(17.254639%,62.745667%,17.254639%)"/><stop offset="1" stop-color="rgb(17.254639%,62.745667%,17.254639%)"/></linearGradient><clipPath id="AH"><path d="M144 68h40v10h-40zm0 0"/></clipPath><clipPath id="AI"><path d="M179.934 68.016h-31.777a3.39 3.39 0 0 0-3.387 3.391v3.375c0 1.87 1.516 3.387 3.387 3.387h31.777c1.87 0 3.387-1.516 3.387-3.387v-3.375a3.39 3.39 0 0 0-3.387-3.391zm0 0"/></clipPath><linearGradient id="AJ" x1="125.488" y1="78.17" x2="125.488" y2="68.017" xlink:href="#Bk"><stop offset="0" stop-color="rgb(83.921814%,15.293884%,15.686035%)"/><stop offset="1" stop-color="rgb(83.921814%,15.293884%,15.686035%)"/></linearGradient><clipPath id="AK"><path d="M277 52h28v7h-28zm0 0"/></clipPath><clipPath id="AL"><path d="M300.934 52.035h-19.73c-1.87 0-3.387 1.516-3.387 3.387v.113c0 1.87 1.516 3.387 3.387 3.387h19.73c1.87 0 3.387-1.516 3.387-3.387v-.113c0-1.87-1.516-3.387-3.387-3.387zm0 0"/></clipPath><linearGradient id="AM" x1="264.562" y1="58.924" x2="264.562" y2="52.036" xlink:href="#Bk"><stop offset="0" stop-color="rgb(12.156677%,46.665955%,70.588684%)"/><stop offset="1" stop-color="rgb(12.156677%,46.665955%,70.588684%)"/></linearGradient><clipPath id="AN"><path d="M277 61h28v7h-28zm0 0"/></clipPath><clipPath id="AO"><path d="M300.934 60.832h-19.73c-1.87 0-3.387 1.516-3.387 3.387v.137c0 1.87 1.516 3.387 3.387 3.387h19.73c1.87 0 3.387-1.516 3.387-3.387v-.137c0-1.87-1.516-3.387-3.387-3.387zm0 0"/></clipPath><linearGradient id="AP" x1="264.562" y1="67.742" x2="264.562" y2="60.831" xlink:href="#Bk"><stop offset="0" stop-color="rgb(83.921814%,15.293884%,15.686035%)"/><stop offset="1" stop-color="rgb(83.921814%,15.293884%,15.686035%)"/></linearGradient><clipPath id="AQ"><path d="M277 69h28v8h-28zm0 0"/></clipPath><clipPath id="AR"><path d="M300.934 69.117h-19.73c-1.87 0-3.387 1.516-3.387 3.387v1.18c0 1.87 1.516 3.387 3.387 3.387h19.73c1.87 0 3.387-1.516 3.387-3.387v-1.18c0-1.87-1.516-3.387-3.387-3.387zm0 0"/></clipPath><linearGradient id="AS" x1="264.562" y1="77.069" x2="264.562" y2="69.118" xlink:href="#Bk"><stop offset="0" stop-color="rgb(58.039856%,40.391541%,74.118042%)"/><stop offset="1" stop-color="rgb(58.039856%,40.391541%,74.118042%)"/></linearGradient><clipPath id="AT"><path d="M277 78h28v7h-28zm0 0"/></clipPath><clipPath id="AU"><path d="M300.934 78.445h-19.73c-1.87 0-3.387 1.516-3.387 3.387v.137c0 1.87 1.516 3.387 3.387 3.387h19.73c1.87 0 3.387-1.516 3.387-3.387v-.137c0-1.87-1.516-3.387-3.387-3.387zm0 0"/></clipPath><linearGradient id="AV" x1="264.562" y1="85.356" x2="264.562" y2="78.445" xlink:href="#Bk"><stop offset="0" stop-color="rgb(100%,49.803162%,5.490112%)"/><stop offset="1" stop-color="rgb(100%,49.803162%,5.490112%)"/></linearGradient><clipPath id="AW"><path d="M277 87h28v7h-28zm0 0"/></clipPath><clipPath id="AX"><path d="M300.934 87.266h-19.73c-1.87 0-3.387 1.516-3.387 3.387v.113c0 1.87 1.516 3.387 3.387 3.387h19.73c1.87 0 3.387-1.516 3.387-3.387v-.113c0-1.87-1.516-3.387-3.387-3.387zm0 0"/></clipPath><linearGradient id="AY" x1="264.562" y1="94.152" x2="264.562" y2="87.264" xlink:href="#Bk"><stop offset="0" stop-color="rgb(17.254639%,62.745667%,17.254639%)"/><stop offset="1" stop-color="rgb(17.254639%,62.745667%,17.254639%)"/></linearGradient><clipPath id="AZ"><path d="M144 114h40v11h-40zm0 0"/></clipPath><clipPath id="Aa"><path d="M179.934 113.547h-31.777c-1.87 0-3.387 1.516-3.387 3.387v4.793a3.39 3.39 0 0 0 3.387 3.391h31.777a3.39 3.39 0 0 0 3.387-3.391v-4.793c0-1.87-1.516-3.387-3.387-3.387zm0 0"/></clipPath><linearGradient id="Ab" x1="125.488" y1="125.116" x2="125.488" y2="113.546" xlink:href="#Bk"><stop offset="0" stop-color="rgb(58.039856%,40.391541%,74.118042%)"/><stop offset="1" stop-color="rgb(58.039856%,40.391541%,74.118042%)"/></linearGradient><clipPath id="Ac"><path d="M277 98h28v7h-28zm0 0"/></clipPath><clipPath id="Ad"><path d="M300.934 98.273h-19.73c-1.87 0-3.387 1.516-3.387 3.387v.113c0 1.87 1.516 3.387 3.387 3.387h19.73c1.87 0 3.387-1.516 3.387-3.387v-.113c0-1.87-1.516-3.387-3.387-3.387zm0 0"/></clipPath><linearGradient id="Ae" x1="264.562" y1="105.161" x2="264.562" y2="98.273" xlink:href="#Bk"><stop offset="0" stop-color="rgb(12.156677%,46.665955%,70.588684%)"/><stop offset="1" stop-color="rgb(12.156677%,46.665955%,70.588684%)"/></linearGradient><clipPath id="Af"><path d="M277 107h28v7h-28zm0 0"/></clipPath><clipPath id="Ag"><path d="M300.934 107.07h-19.73c-1.87 0-3.387 1.516-3.387 3.387v.137c0 1.87 1.516 3.387 3.387 3.387h19.73c1.87 0 3.387-1.516 3.387-3.387v-.137c0-1.87-1.516-3.387-3.387-3.387zm0 0"/></clipPath><linearGradient id="Ah" x1="264.562" y1="113.979" x2="264.562" y2="107.068" xlink:href="#Bk"><stop offset="0" stop-color="rgb(83.921814%,15.293884%,15.686035%)"/><stop offset="1" stop-color="rgb(83.921814%,15.293884%,15.686035%)"/></linearGradient><clipPath id="Ai"><path d="M277 115h28v8h-28zm0 0"/></clipPath><clipPath id="Aj"><path d="M300.934 115.355h-19.73c-1.87 0-3.387 1.516-3.387 3.387v1.176c0 1.87 1.516 3.387 3.387 3.387h19.73c1.87 0 3.387-1.516 3.387-3.387v-1.176c0-1.87-1.516-3.387-3.387-3.387zm0 0"/></clipPath><linearGradient id="Ak" x1="264.562" y1="123.307" x2="264.562" y2="115.355" xlink:href="#Bk"><stop offset="0" stop-color="rgb(58.039856%,40.391541%,74.118042%)"/><stop offset="1" stop-color="rgb(58.039856%,40.391541%,74.118042%)"/></linearGradient><clipPath id="Al"><path d="M277 125h28v7h-28zm0 0"/></clipPath><clipPath id="Am"><path d="M300.934 124.684h-19.73c-1.87 0-3.387 1.516-3.387 3.387v.137c0 1.87 1.516 3.387 3.387 3.387h19.73c1.87 0 3.387-1.516 3.387-3.387v-.137c0-1.87-1.516-3.387-3.387-3.387zm0 0"/></clipPath><linearGradient id="An" x1="264.562" y1="131.593" x2="264.562" y2="124.682" xlink:href="#Bk"><stop offset="0" stop-color="rgb(100%,49.803162%,5.490112%)"/><stop offset="1" stop-color="rgb(100%,49.803162%,5.490112%)"/></linearGradient><clipPath id="Ao"><path d="M277 134h28v6h-28zm0 0"/></clipPath><clipPath id="Ap"><path d="M300.934 133.5h-19.73a3.39 3.39 0 0 0-3.387 3.387V137a3.39 3.39 0 0 0 3.387 3.391h19.73A3.39 3.39 0 0 0 304.32 137v-.113a3.39 3.39 0 0 0-3.387-3.387zm0 0"/></clipPath><linearGradient id="Aq" x1="264.562" y1="140.389" x2="264.562" y2="133.501" xlink:href="#Bk"><stop offset="0" stop-color="rgb(17.254639%,62.745667%,17.254639%)"/><stop offset="1" stop-color="rgb(17.254639%,62.745667%,17.254639%)"/></linearGradient><clipPath id="Ar"><path d="M144 160h40v11h-40zm0 0"/></clipPath><clipPath id="As"><path d="M179.934 160.473h-31.777c-1.87 0-3.387 1.516-3.387 3.387v3.418c0 1.87 1.516 3.387 3.387 3.387h31.777c1.87 0 3.387-1.516 3.387-3.387v-3.418c0-1.87-1.516-3.387-3.387-3.387zm0 0"/></clipPath><linearGradient id="At" x1="125.488" y1="170.663" x2="125.488" y2="160.473" xlink:href="#Bk"><stop offset="0" stop-color="rgb(100%,49.803162%,5.490112%)"/><stop offset="1" stop-color="rgb(100%,49.803162%,5.490112%)"/></linearGradient><clipPath id="Au"><path d="M277 145h28v6h-28zm0 0"/></clipPath><clipPath id="Av"><path d="M300.934 144.512h-19.73c-1.87 0-3.387 1.516-3.387 3.387v.113c0 1.87 1.516 3.387 3.387 3.387h19.73c1.87 0 3.387-1.516 3.387-3.387v-.113c0-1.87-1.516-3.387-3.387-3.387zm0 0"/></clipPath><linearGradient id="Aw" x1="264.562" y1="151.398" x2="264.562" y2="144.51" xlink:href="#Bk"><stop offset="0" stop-color="rgb(12.156677%,46.665955%,70.588684%)"/><stop offset="1" stop-color="rgb(12.156677%,46.665955%,70.588684%)"/></linearGradient><clipPath id="Ax"><path d="M277 153h28v7h-28zm0 0"/></clipPath><clipPath id="Ay"><path d="M300.934 153.305h-19.73c-1.87 0-3.387 1.516-3.387 3.387v.137c0 1.87 1.516 3.387 3.387 3.387h19.73c1.87 0 3.387-1.516 3.387-3.387v-.137c0-1.87-1.516-3.387-3.387-3.387zm0 0"/></clipPath><linearGradient id="Az" x1="264.562" y1="160.216" x2="264.562" y2="153.305" xlink:href="#Bk"><stop offset="0" stop-color="rgb(83.921814%,15.293884%,15.686035%)"/><stop offset="1" stop-color="rgb(83.921814%,15.293884%,15.686035%)"/></linearGradient><clipPath id="BA"><path d="M277 162h28v8h-28zm0 0"/></clipPath><clipPath id="BB"><path d="M300.934 161.594h-19.73c-1.87 0-3.387 1.516-3.387 3.387v1.176c0 1.87 1.516 3.387 3.387 3.387h19.73c1.87 0 3.387-1.516 3.387-3.387v-1.176c0-1.87-1.516-3.387-3.387-3.387zm0 0"/></clipPath><linearGradient id="BC" x1="264.562" y1="169.544" x2="264.562" y2="161.593" xlink:href="#Bk"><stop offset="0" stop-color="rgb(58.039856%,40.391541%,74.118042%)"/><stop offset="1" stop-color="rgb(58.039856%,40.391541%,74.118042%)"/></linearGradient><clipPath id="BD"><path d="M277 171h28v7h-28zm0 0"/></clipPath><clipPath id="BE"><path d="M300.934 170.918h-19.73a3.39 3.39 0 0 0-3.387 3.391v.137a3.39 3.39 0 0 0 3.387 3.387h19.73a3.39 3.39 0 0 0 3.387-3.387v-.137a3.39 3.39 0 0 0-3.387-3.391zm0 0"/></clipPath><linearGradient id="BF" x1="264.562" y1="177.831" x2="264.562" y2="170.92" xlink:href="#Bk"><stop offset="0" stop-color="rgb(100%,49.803162%,5.490112%)"/><stop offset="1" stop-color="rgb(100%,49.803162%,5.490112%)"/></linearGradient><clipPath id="BG"><path d="M277 180h28v7h-28zm0 0"/></clipPath><clipPath id="BH"><path d="M300.934 179.738h-19.73c-1.87 0-3.387 1.516-3.387 3.387v.113c0 1.87 1.516 3.387 3.387 3.387h19.73c1.87 0 3.387-1.516 3.387-3.387v-.113c0-1.87-1.516-3.387-3.387-3.387zm0 0"/></clipPath><linearGradient id="BI" x1="264.562" y1="186.626" x2="264.562" y2="179.738" xlink:href="#Bk"><stop offset="0" stop-color="rgb(17.254639%,62.745667%,17.254639%)"/><stop offset="1" stop-color="rgb(17.254639%,62.745667%,17.254639%)"/></linearGradient><clipPath id="BJ"><path d="M144 207h40v10h-40zm0 0"/></clipPath><clipPath id="BK"><path d="M179.934 206.73h-31.777c-1.87 0-3.387 1.516-3.387 3.387v3.38a3.39 3.39 0 0 0 3.387 3.387h31.777a3.39 3.39 0 0 0 3.387-3.387v-3.38c0-1.87-1.516-3.387-3.387-3.387zm0 0"/></clipPath><linearGradient id="BL" x1="125.488" y1="216.881" x2="125.488" y2="206.729" xlink:href="#Bk"><stop offset="0" stop-color="rgb(17.254639%,62.745667%,17.254639%)"/><stop offset="1" stop-color="rgb(17.254639%,62.745667%,17.254639%)"/></linearGradient><clipPath id="BM"><path d="M277 191h28v7h-28zm0 0"/></clipPath><clipPath id="BN"><path d="M300.934 190.746h-19.73c-1.87 0-3.387 1.516-3.387 3.387v.113a3.39 3.39 0 0 0 3.387 3.391h19.73a3.39 3.39 0 0 0 3.387-3.391v-.113c0-1.87-1.516-3.387-3.387-3.387zm0 0"/></clipPath><linearGradient id="BO" x1="264.562" y1="197.635" x2="264.562" y2="190.747" xlink:href="#Bk"><stop offset="0" stop-color="rgb(12.156677%,46.665955%,70.588684%)"/><stop offset="1" stop-color="rgb(12.156677%,46.665955%,70.588684%)"/></linearGradient><clipPath id="BP"><path d="M277 200h28v6h-28zm0 0"/></clipPath><clipPath id="BQ"><path d="M300.934 199.543h-19.73c-1.87 0-3.387 1.516-3.387 3.387v.137c0 1.87 1.516 3.387 3.387 3.387h19.73c1.87 0 3.387-1.516 3.387-3.387v-.137c0-1.87-1.516-3.387-3.387-3.387zm0 0"/></clipPath><linearGradient id="BR" x1="264.562" y1="206.454" x2="264.562" y2="199.543" xlink:href="#Bk"><stop offset="0" stop-color="rgb(83.921814%,15.293884%,15.686035%)"/><stop offset="1" stop-color="rgb(83.921814%,15.293884%,15.686035%)"/></linearGradient><clipPath id="BS"><path d="M277 208h28v8h-28zm0 0"/></clipPath><clipPath id="BT"><path d="M300.934 207.828h-19.73a3.39 3.39 0 0 0-3.387 3.391v1.176c0 1.87 1.516 3.387 3.387 3.387h19.73c1.87 0 3.387-1.516 3.387-3.387v-1.176a3.39 3.39 0 0 0-3.387-3.391zm0 0"/></clipPath><linearGradient id="BU" x1="264.562" y1="215.781" x2="264.562" y2="207.83" xlink:href="#Bk"><stop offset="0" stop-color="rgb(58.039856%,40.391541%,74.118042%)"/><stop offset="1" stop-color="rgb(58.039856%,40.391541%,74.118042%)"/></linearGradient><clipPath id="BV"><path d="M277 217h28v7h-28zm0 0"/></clipPath><clipPath id="BW"><path d="M300.934 217.156h-19.73c-1.87 0-3.387 1.516-3.387 3.387v.137c0 1.87 1.516 3.387 3.387 3.387h19.73c1.87 0 3.387-1.516 3.387-3.387v-.137c0-1.87-1.516-3.387-3.387-3.387zm0 0"/></clipPath><linearGradient id="BX" x1="264.562" y1="224.068" x2="264.562" y2="217.157" xlink:href="#Bk"><stop offset="0" stop-color="rgb(100%,49.803162%,5.490112%)"/><stop offset="1" stop-color="rgb(100%,49.803162%,5.490112%)"/></linearGradient><clipPath id="BY"><path d="M277 226h28v7h-28zm0 0"/></clipPath><clipPath id="BZ"><path d="M300.934 225.977h-19.73c-1.87 0-3.387 1.516-3.387 3.387v.113c0 1.87 1.516 3.387 3.387 3.387h19.73c1.87 0 3.387-1.516 3.387-3.387v-.113c0-1.87-1.516-3.387-3.387-3.387zm0 0"/></clipPath><linearGradient id="Ba" x1="264.562" y1="232.863" x2="264.562" y2="225.975" xlink:href="#Bk"><stop offset="0" stop-color="rgb(17.254639%,62.745667%,17.254639%)"/><stop offset="1" stop-color="rgb(17.254639%,62.745667%,17.254639%)"/></linearGradient><path id="Bb" d="M277.816 12.688v-6.89h26.504v6.89zm0 0"/><path id="Bc" d="M277.816 21.504v-6.9h26.504v6.9zm0 0"/><path id="Bd" d="M277.816 47.914v-6.887h26.504v6.887zm0 0"/><path id="Be" d="M365.88 7.887c.086.508 1.016 1.27 1.27 1.355-.254.086-1.184.848-1.27 1.355"/><path id="Bf" d="M365.88 16.695c.086.508 1.016 1.27 1.27 1.355-.254.082-1.184.844-1.27 1.352"/><path id="Bg" d="M276.32 71.738c.082.508 1.016 1.27 1.27 1.355-.254.086-1.188.848-1.27 1.355"/><path id="Bh" d="M365.88 54.125c.086.508 1.016 1.27 1.27 1.355-.254.082-1.184.848-1.27 1.355"/><path id="Bi" d="M365.88 62.934c.086.508 1.016 1.27 1.27 1.352-.254.086-1.184.848-1.27 1.355"/><path id="Bj" d="M365.88 89.352c.086.508 1.016 1.273 1.27 1.355-.254.086-1.184.848-1.27 1.355"/><linearGradient id="Bk" gradientUnits="userSpaceOnUse"/></defs><g clip-path="url(#m)"><g clip-path="url(#n)"><path d="M12.926 125.7V112.96h48.188V125.7zm0 0" fill="url(#o)"/></g></g><g class="H"><use xlink:href="#A" x="26.934" y="122.438"/><use xlink:href="#B" x="32.089" y="122.438"/><use xlink:href="#C" x="35.27" y="122.438"/><use xlink:href="#D" x="39.906" y="122.438"/><use xlink:href="#B" x="44.023" y="122.438"/></g><g clip-path="url(#p)"><g clip-path="url(#q)"><path d="M144.77 31.934V21.78h38.55v10.152zm0 0" fill="url(#r)"/></g></g><g class="H"><use xlink:href="#E" x="156.832" y="29.362"/><use xlink:href="#F" x="161.78" y="29.362"/><use xlink:href="#G" x="163.842" y="29.362"/><use xlink:href="#H" x="167.966" y="29.362"/></g><g class="B I J"><path d="M45.984 112.793l110.418-80.37" class="N"/><path d="M-1.555 2.07C-1.426 1.294.001.13.4.001c-.39-.13-1.813-1.295-1.947-2.073" transform="matrix(.6872 -.5002 -.5002 -.6872 156.4005 32.4222)" class="C D P"/></g><g clip-path="url(#s)"><g clip-path="url(#t)"><use xlink:href="#Bb" fill="url(#u)"/></g></g><g class="H"><use xlink:href="#V" x="286.253" y="10.947"/><use xlink:href="#W" x="289.654" y="10.947"/><use xlink:href="#X" x="291.072" y="10.947"/><use xlink:href="#Y" x="293.622" y="10.947"/></g><g class="B I J"><path d="M183.457 24.168l93.883-13.023" class="E"/><path d="M-1.197 1.594C-1.094.996.002.1.3 0 .002-.098-1.097-.995-1.194-1.594" transform="matrix(.841908 -.116782 -.116782 -.841908 277.3384 11.144)" class="C D M"/></g><g clip-path="url(#v)"><g clip-path="url(#w)"><use xlink:href="#Bc" fill="url(#x)"/></g></g><g class="H"><use xlink:href="#Z" x="284.837" y="19.742"/><use xlink:href="#a" x="289.652" y="19.742"/><use xlink:href="#b" x="292.202" y="19.742"/><use xlink:href="#c" x="293.62" y="19.742"/><use xlink:href="#Y" x="295.037" y="19.742"/></g><g class="B I J"><path d="M183.457 25.512L277.336 19" class="E"/><path d="M-1.197 1.594C-1.096.998-.002.102.3-.002c-.302-.1-1.396-.995-1.497-1.59" transform="matrix(.847952 -.058803 -.058803 -.847952 277.3356 19.0003)" class="C D M"/></g><g clip-path="url(#y)"><g clip-path="url(#z)"><path d="M277.816 30.832V22.88h26.504v7.953zm0 0" fill="url(#AA)"/></g></g><g class="H"><use xlink:href="#d" x="282.66" y="28.03"/><use xlink:href="#b" x="287.194" y="28.03"/><use xlink:href="#W" x="288.611" y="28.03"/><use xlink:href="#b" x="290.029" y="28.03"/><use xlink:href="#c" x="291.447" y="28.03"/><use xlink:href="#e" x="292.865" y="28.03"/><use xlink:href="#f" x="295.129" y="28.03"/><use xlink:href="#g" x="296.929" y="28.03"/></g><g class="B I J"><path d="M183.457 26.855h93.88" class="E"/><path d="M276.32 25.5c.082.512 1.016 1.273 1.27 1.355-.254.086-1.188.848-1.27 1.355" class="C D K"/></g><g clip-path="url(#AB)"><g clip-path="url(#AC)"><path d="M277.816 39.117v-6.9h26.504v6.9zm0 0" fill="url(#AD)"/></g></g><g class="H"><use xlink:href="#h" x="284.024" y="37.357"/><use xlink:href="#i" x="286.86" y="37.357"/><use xlink:href="#a" x="289.047" y="37.357"/><use xlink:href="#j" x="291.597" y="37.357"/><use xlink:href="#j" x="294.147" y="37.357"/><use xlink:href="#W" x="296.697" y="37.357"/></g><g class="B I J"><path d="M183.457 28.2l93.88 6.512" class="E"/><path d="M-1.197 1.596C-1.096.995-.002.098.3 0-.002-.1-1.096-.996-1.197-1.592" transform="matrix(.847952 .058803 .058803 -.847952 277.3356 34.7125)" class="C D M"/></g><g clip-path="url(#AE)"><g clip-path="url(#AF)"><use xlink:href="#Bd" fill="url(#AG)"/></g></g><g class="H"><use xlink:href="#k" x="284.837" y="46.175"/><use xlink:href="#j" x="288.52" y="46.175"/><use xlink:href="#l" x="291.07" y="46.175"/><use xlink:href="#Y" x="295.037" y="46.175"/></g><g class="I B"><g class="J"><path d="M183.457 29.543L277.34 42.57" class="E"/><path d="M-1.194 1.596C-1.097.997.002.1.3-.002.002-.1-1.094-.998-1.197-1.592" transform="matrix(.841908 .116782 .116782 -.841908 277.3384 42.5689)" class="C D M"/></g><g class="O"><path d="M304.414 9.242h62.48" class="E L"/><use xlink:href="#Be" class="C D K"/><path d="M304.414 18.05h62.48" class="E L"/><use xlink:href="#Bf" class="C D K"/><path d="M304.414 26.855h62.48" class="E L"/><path d="M365.88 25.5c.086.512 1.016 1.273 1.27 1.355-.254.086-1.184.848-1.27 1.355" class="C D K"/><path d="M304.414 35.664h62.48" class="E L"/><use xlink:href="#Be" y="26.423" class="C D K"/><path d="M304.414 44.473h62.48" class="E L"/><use xlink:href="#Bf" y="26.422" class="C D K"/></g></g><g clip-path="url(#AH)"><g clip-path="url(#AI)"><path d="M144.77 78.168V68.016h38.55v10.152zm0 0" fill="url(#AJ)"/></g></g><g class="H"><use xlink:href="#I" x="154.362" y="75.598"/><use xlink:href="#J" x="161.78" y="75.598"/><use xlink:href="#K" x="165.904" y="75.598"/><use xlink:href="#L" x="167.966" y="75.598"/><use xlink:href="#H" x="170.437" y="75.598"/></g><g class="B I J"><path d="M54.97 112.793l94.195-34.28" class="N"/><path d="M-1.554 2.07C-1.426 1.296-.001.13.387 0 .002-.13-1.425-1.296-1.556-2.07" transform="matrix(.798745 -.2907 -.2907 -.798745 149.164 78.511)" class="C D P"/></g><g clip-path="url(#AK)"><g clip-path="url(#AL)"><path d="M277.816 58.922v-6.887h26.504v6.887zm0 0" fill="url(#AM)"/></g></g><g class="H"><use xlink:href="#V" x="286.253" y="57.184"/><use xlink:href="#W" x="289.654" y="57.184"/><use xlink:href="#X" x="291.072" y="57.184"/><use xlink:href="#Y" x="293.622" y="57.184"/></g><g class="B I J"><path d="M183.457 70.406l93.883-13.023" class="E"/><path d="M-1.197 1.593C-1.095.994.002.1.298-.001.002-.1-1.097-.996-1.194-1.595" transform="matrix(.841908 -.116782 -.116782 -.841908 277.3384 57.3813)" class="C D M"/></g><g clip-path="url(#AN)"><g clip-path="url(#AO)"><path d="M277.816 67.742v-6.9h26.504v6.9zm0 0" fill="url(#AP)"/></g></g><g class="H"><use xlink:href="#Z" x="284.837" y="65.979"/><use xlink:href="#a" x="289.652" y="65.979"/><use xlink:href="#b" x="292.202" y="65.979"/><use xlink:href="#c" x="293.62" y="65.979"/><use xlink:href="#Y" x="295.037" y="65.979"/></g><g class="B I J"><path d="M183.457 71.75l93.88-6.512" class="E"/><path d="M-1.197 1.593C-1.096.997-.002.1.3.001c-.302-.1-1.396-1-1.497-1.596" transform="matrix(.847952 -.058803 -.058803 -.847952 277.3356 65.2376)" class="C D M"/></g><g clip-path="url(#AQ)"><g clip-path="url(#AR)"><path d="M277.816 77.07v-7.953h26.504v7.953zm0 0" fill="url(#AS)"/></g></g><g class="H"><use xlink:href="#d" x="282.66" y="74.266"/><use xlink:href="#b" x="287.194" y="74.266"/><use xlink:href="#W" x="288.611" y="74.266"/><use xlink:href="#b" x="290.029" y="74.266"/><use xlink:href="#c" x="291.447" y="74.266"/><use xlink:href="#e" x="292.865" y="74.266"/><use xlink:href="#f" x="295.129" y="74.266"/><use xlink:href="#g" x="296.929" y="74.266"/></g><g class="B I J"><path d="M183.457 73.094h93.88" class="E"/><use xlink:href="#Bg" class="C D K"/></g><g clip-path="url(#AT)"><g clip-path="url(#AU)"><path d="M277.816 85.355v-6.9h26.504v6.9zm0 0" fill="url(#AV)"/></g></g><g class="H"><use xlink:href="#h" x="284.024" y="83.594"/><use xlink:href="#i" x="286.86" y="83.594"/><use xlink:href="#a" x="289.047" y="83.594"/><use xlink:href="#j" x="291.597" y="83.594"/><use xlink:href="#j" x="294.147" y="83.594"/><use xlink:href="#W" x="296.697" y="83.594"/></g><g class="B I J"><path d="M183.457 74.437l93.88 6.512" class="E"/><path d="M-1.197 1.594C-1.096.998-.002.097.3-.002-.002-.1-1.096-.997-1.197-1.593" transform="matrix(.847952 .058803 .058803 -.847952 277.3356 80.9498)" class="C D M"/></g><g clip-path="url(#AW)"><g clip-path="url(#AX)"><path d="M277.816 94.152v-6.887h26.504v6.887zm0 0" fill="url(#AY)"/></g></g><g class="H"><use xlink:href="#k" x="284.837" y="92.411"/><use xlink:href="#j" x="288.52" y="92.411"/><use xlink:href="#l" x="291.07" y="92.411"/><use xlink:href="#Y" x="295.037" y="92.411"/></g><g class="I B"><g class="J"><path d="M183.457 75.78l93.883 13.023" class="E"/><path d="M-1.194 1.594C-1.097.995.002.1.3.001.002-.1-1.094-.995-1.197-1.594" transform="matrix(.841908 .116782 .116782 -.841908 277.3384 88.8059)" class="C D M"/></g><g class="O"><path d="M304.414 55.48h62.48" class="E L"/><use xlink:href="#Bh" class="C D K"/><path d="M304.414 64.285h62.48" class="E L"/><use xlink:href="#Bi" class="C D K"/><path d="M304.414 73.094h62.48" class="E L"/><use xlink:href="#Be" y="63.851" class="C D K"/><path d="M304.414 81.902h62.48" class="E L"/><use xlink:href="#Bf" y="63.852" class="C D K"/><path d="M304.414 90.707h62.48" class="E L"/><use xlink:href="#Bj" class="C D K"/></g></g><g clip-path="url(#AZ)"><g clip-path="url(#Aa)"><path d="M144.77 125.117v-11.57h38.55v11.57zm0 0" fill="url(#Ab)"/></g></g><g class="H"><use xlink:href="#M" x="150.823" y="121.126"/><use xlink:href="#K" x="157.826" y="121.126"/><use xlink:href="#F" x="159.888" y="121.126"/><use xlink:href="#K" x="161.95" y="121.126"/><use xlink:href="#L" x="164.012" y="121.126"/><use xlink:href="#N" x="166.557" y="121.126"/><use xlink:href="#O" x="170.266" y="121.126"/><use xlink:href="#P" x="173.56" y="121.126"/></g><g class="B I J"><path d="M61.28 119.332h82.75" class="N"/><path d="M142.71 117.57c.11.66 1.32 1.652 1.652 1.762-.332.11-1.543 1.102-1.652 1.762" stroke-width=".542" class="C D"/></g><g clip-path="url(#Ac)"><g clip-path="url(#Ad)"><path d="M277.816 105.16v-6.887h26.504v6.887zm0 0" fill="url(#Ae)"/></g></g><g class="H"><use xlink:href="#V" x="286.253" y="103.421"/><use xlink:href="#W" x="289.654" y="103.421"/><use xlink:href="#X" x="291.072" y="103.421"/><use xlink:href="#Y" x="293.622" y="103.421"/></g><g class="B I J"><path d="M183.457 116.645l93.883-13.027" class="E"/><path d="M-1.197 1.596C-1.094.998.001.1.3.002.002-.1-1.097-.997-1.194-1.596" transform="matrix(.841908 -.116782 -.116782 -.841908 277.3384 103.6184)" class="C D M"/></g><g clip-path="url(#Af)"><g clip-path="url(#Ag)"><path d="M277.816 113.98v-6.9h26.504v6.9zm0 0" fill="url(#Ah)"/></g></g><g class="H"><use xlink:href="#Z" x="284.837" y="112.216"/><use xlink:href="#a" x="289.652" y="112.216"/><use xlink:href="#b" x="292.202" y="112.216"/><use xlink:href="#c" x="293.62" y="112.216"/><use xlink:href="#Y" x="295.037" y="112.216"/></g><g class="B I J"><path d="M183.457 117.988l93.88-6.512" class="E"/><path d="M-1.197 1.592C-1.096.996-.002.1.3 0c-.302-.1-1.396-.995-1.497-1.596" transform="matrix(.847952 -.058803 -.058803 -.847952 277.3356 111.475)" class="C D M"/></g><g clip-path="url(#Ai)"><g clip-path="url(#Aj)"><path d="M277.816 123.305v-7.95h26.504v7.95zm0 0" fill="url(#Ak)"/></g></g><g class="H"><use xlink:href="#d" x="282.66" y="120.503"/><use xlink:href="#b" x="287.194" y="120.503"/><use xlink:href="#W" x="288.611" y="120.503"/><use xlink:href="#b" x="290.029" y="120.503"/><use xlink:href="#c" x="291.447" y="120.503"/><use xlink:href="#e" x="292.865" y="120.503"/><use xlink:href="#f" x="295.129" y="120.503"/><use xlink:href="#g" x="296.929" y="120.503"/></g><g class="B I J"><path d="M183.457 119.332h93.88" class="E"/><path d="M276.32 117.977c.082.508 1.016 1.27 1.27 1.355-.254.082-1.188.844-1.27 1.355" class="C D K"/></g><g clip-path="url(#Al)"><g clip-path="url(#Am)"><path d="M277.816 131.594v-6.9h26.504v6.9zm0 0" fill="url(#An)"/></g></g><g class="H"><use xlink:href="#h" x="284.024" y="129.83"/><use xlink:href="#i" x="286.86" y="129.83"/><use xlink:href="#a" x="289.047" y="129.83"/><use xlink:href="#j" x="291.597" y="129.83"/><use xlink:href="#j" x="294.147" y="129.83"/><use xlink:href="#W" x="296.697" y="129.83"/></g><g class="B I J"><path d="M183.457 120.676l93.88 6.512" class="E"/><path d="M-1.197 1.593C-1.096.997-.002.1.3.002c-.302-.1-1.396-1-1.497-1.596" transform="matrix(.847952 .058803 .058803 -.847952 277.3356 127.1868)" class="C D M"/></g><g clip-path="url(#Ao)"><g clip-path="url(#Ap)"><path d="M277.816 140.39v-6.89h26.504v6.89zm0 0" fill="url(#Aq)"/></g></g><g class="H"><use xlink:href="#k" x="284.837" y="138.648"/><use xlink:href="#j" x="288.52" y="138.648"/><use xlink:href="#l" x="291.07" y="138.648"/><use xlink:href="#Y" x="295.037" y="138.648"/></g><g class="I B"><g class="J"><path d="M183.457 122.02l93.883 13.023" class="E"/><path d="M-1.194 1.593C-1.097.994.002.098.3 0c-.297-.1-1.393-.996-1.496-1.595" transform="matrix(.841908 .116782 .116782 -.841908 277.3384 135.0432)" class="C D M"/></g><g class="O"><path d="M304.414 101.715h62.48" class="E L"/><use xlink:href="#Bi" y="37.429" class="C D K"/><path d="M304.414 110.523h62.48" class="E L"/><use xlink:href="#Be" y="101.281" class="C D K"/><path d="M304.414 119.332h62.48" class="E L"/><path d="M365.88 117.977c.086.508 1.016 1.27 1.27 1.355-.254.082-1.184.844-1.27 1.355" class="C D K"/><path d="M304.414 128.137h62.48" class="E L"/><use xlink:href="#Bj" y="37.428" class="C D K"/><path d="M304.414 136.945h62.48" class="E L"/><use xlink:href="#Be" y="127.713" class="C D K"/></g></g><g clip-path="url(#Ar)"><g clip-path="url(#As)"><path d="M144.77 170.664v-10.19h38.55v10.19zm0 0" fill="url(#At)"/></g></g><g class="H"><use xlink:href="#Q" x="153.59" y="168.053"/><use xlink:href="#R" x="157.714" y="168.053"/><use xlink:href="#J" x="160.897" y="168.053"/><use xlink:href="#S" x="165.021" y="168.053"/><use xlink:href="#S" x="168.73" y="168.053"/><use xlink:href="#F" x="172.439" y="168.053"/></g><g class="B I J"><path d="M54.977 125.867l94.137 34.266" class="N"/><path d="M-1.557 2.074C-1.425 1.295.001.132.387-.002c-.39-.127-1.812-1.295-1.94-2.07" transform="matrix(.798728 .290709 .290709 -.798728 149.1131 160.1323)" class="C D P"/></g><g clip-path="url(#Au)"><g clip-path="url(#Av)"><path d="M277.816 151.398v-6.887h26.504v6.887zm0 0" fill="url(#Aw)"/></g></g><g class="H"><use xlink:href="#V" x="286.253" y="149.657"/><use xlink:href="#W" x="289.654" y="149.657"/><use xlink:href="#X" x="291.072" y="149.657"/><use xlink:href="#Y" x="293.622" y="149.657"/></g><g class="B I J"><path d="M183.457 162.88l93.883-13.023" class="E"/><path d="M-1.197 1.595C-1.094.996.001.098.3.001c-.297-.103-1.396-1-1.492-1.593" transform="matrix(.841908 -.116782 -.116782 -.841908 277.3384 149.8557)" class="C D M"/></g><g clip-path="url(#Ax)"><g clip-path="url(#Ay)"><path d="M277.816 160.215v-6.9h26.504v6.9zm0 0" fill="url(#Az)"/></g></g><g class="H"><use xlink:href="#Z" x="284.837" y="158.452"/><use xlink:href="#a" x="289.652" y="158.452"/><use xlink:href="#b" x="292.202" y="158.452"/><use xlink:href="#c" x="293.62" y="158.452"/><use xlink:href="#Y" x="295.037" y="158.452"/></g><g class="B I J"><path d="M183.457 164.223l93.88-6.512" class="E"/><path d="M-1.197 1.595C-1.096.994-.002.098.3-.001c-.302-.1-1.396-.995-1.497-1.59" transform="matrix(.847952 -.058803 -.058803 -.847952 277.3356 157.712)" class="C D M"/></g><g clip-path="url(#BA)"><g clip-path="url(#BB)"><path d="M277.816 169.543v-7.95h26.504v7.95zm0 0" fill="url(#BC)"/></g></g><g class="H"><use xlink:href="#d" x="282.66" y="166.74"/><use xlink:href="#b" x="287.194" y="166.74"/><use xlink:href="#W" x="288.611" y="166.74"/><use xlink:href="#b" x="290.029" y="166.74"/><use xlink:href="#c" x="291.447" y="166.74"/><use xlink:href="#e" x="292.865" y="166.74"/><use xlink:href="#f" x="295.129" y="166.74"/><use xlink:href="#g" x="296.929" y="166.74"/></g><g class="B I J"><path d="M183.457 165.566h93.88" class="E"/><path d="M276.32 164.215c.082.508 1.016 1.27 1.27 1.352-.254.086-1.188.848-1.27 1.355" class="C D K"/></g><g clip-path="url(#BD)"><g clip-path="url(#BE)"><path d="M277.816 177.832v-6.914h26.504v6.914zm0 0" fill="url(#BF)"/></g></g><g class="H"><use xlink:href="#h" x="284.024" y="176.067"/><use xlink:href="#i" x="286.86" y="176.067"/><use xlink:href="#a" x="289.047" y="176.067"/><use xlink:href="#j" x="291.597" y="176.067"/><use xlink:href="#j" x="294.147" y="176.067"/><use xlink:href="#W" x="296.697" y="176.067"/></g><g class="B I J"><path d="M183.457 166.914l93.88 6.512" class="E"/><path d="M-1.197 1.592C-1.096.995-.002.1.3 0-.002-.1-1.096-.995-1.197-1.596" transform="matrix(.847952 .058803 .058803 -.847952 277.3356 173.4242)" class="C D M"/></g><g clip-path="url(#BG)"><g clip-path="url(#BH)"><path d="M277.816 186.625v-6.887h26.504v6.887zm0 0" fill="url(#BI)"/></g></g><g class="H"><use xlink:href="#k" x="284.837" y="184.885"/><use xlink:href="#j" x="288.52" y="184.885"/><use xlink:href="#l" x="291.07" y="184.885"/><use xlink:href="#Y" x="295.037" y="184.885"/></g><g class="I B"><g class="J"><path d="M183.457 168.258l93.883 13.023" class="E"/><path d="M-1.194 1.596C-1.097.997.002.1.3-.001.001-.098-1.094-.997-1.197-1.596" transform="matrix(.841908 .116782 .116782 -.841908 277.3384 181.2804)" class="C D M"/></g><g class="O"><path d="M304.414 147.953h62.48" class="E L"/><use xlink:href="#Bj" y="57.246" class="C D K"/><path d="M304.414 156.762h62.48" class="E L"/><use xlink:href="#Bh" y="101.281" class="C D K"/><path d="M304.414 165.566h62.48" class="E L"/><use xlink:href="#Bi" y="101.281" class="C D K"/><path d="M304.414 174.375h62.48" class="E L"/><use xlink:href="#Be" y="165.133" class="C D K"/><path d="M304.414 183.184h62.48" class="E L"/><use xlink:href="#Bf" y="165.133" class="C D K"/></g></g><g clip-path="url(#BJ)"><g clip-path="url(#BK)"><path d="M144.77 216.883V206.73h38.55v10.152zm0 0" fill="url(#BL)"/></g></g><g class="H"><use xlink:href="#T" x="154.569" y="214.307"/><use xlink:href="#S" x="160.34" y="214.307"/><use xlink:href="#U" x="164.049" y="214.307"/><use xlink:href="#H" x="170.229" y="214.307"/></g><g class="B I J"><path d="M45.984 125.867l110.418 80.37" class="N"/><path d="M-1.555 2.07C-1.424 1.296.001.128.39.001 0-.13-1.424-1.296-1.553-2.072" transform="matrix(.6872 .5002 .5002 -.6872 156.4005 206.2396)" class="C D P"/></g><g clip-path="url(#BM)"><g clip-path="url(#BN)"><path d="M277.816 197.637v-6.89h26.504v6.89zm0 0" fill="url(#BO)"/></g></g><g class="H"><use xlink:href="#V" x="286.253" y="195.894"/><use xlink:href="#W" x="289.654" y="195.894"/><use xlink:href="#X" x="291.072" y="195.894"/><use xlink:href="#Y" x="293.622" y="195.894"/></g><g class="B I J"><path d="M183.457 209.117l93.883-13.023" class="E"/><path d="M-1.197 1.594C-1.094.995.002.1.3-.001.002-.1-1.097-.995-1.194-1.594" transform="matrix(.841908 -.116782 -.116782 -.841908 277.3384 196.0927)" class="C D M"/></g><g clip-path="url(#BP)"><g clip-path="url(#BQ)"><path d="M277.816 206.453v-6.9h26.504v6.9zm0 0" fill="url(#BR)"/></g></g><g class="H"><use xlink:href="#Z" x="284.837" y="204.689"/><use xlink:href="#a" x="289.652" y="204.689"/><use xlink:href="#b" x="292.202" y="204.689"/><use xlink:href="#c" x="293.62" y="204.689"/><use xlink:href="#Y" x="295.037" y="204.689"/></g><g class="B I J"><path d="M183.457 210.46l93.88-6.512" class="E"/><path d="M-1.197 1.594C-1.096.997-.002.102.3-.002c-.302-.1-1.396-.995-1.497-1.59" transform="matrix(.847952 -.058803 -.058803 -.847952 277.3356 203.9493)" class="C D M"/></g><g clip-path="url(#BS)"><g clip-path="url(#BT)"><path d="M277.816 215.78v-7.953h26.504v7.953zm0 0" fill="url(#BU)"/></g></g><g class="H"><use xlink:href="#d" x="282.66" y="212.975"/><use xlink:href="#b" x="287.194" y="212.975"/><use xlink:href="#W" x="288.611" y="212.975"/><use xlink:href="#b" x="290.029" y="212.975"/><use xlink:href="#c" x="291.447" y="212.975"/><use xlink:href="#e" x="292.865" y="212.975"/><use xlink:href="#f" x="295.129" y="212.975"/><use xlink:href="#g" x="296.929" y="212.975"/></g><g class="B I J"><path d="M183.457 211.805h93.88" class="E"/><use xlink:href="#Bg" y="138.712" class="C D K"/></g><g clip-path="url(#BV)"><g clip-path="url(#BW)"><path d="M277.816 224.066v-6.9h26.504v6.9zm0 0" fill="url(#BX)"/></g></g><g class="H"><use xlink:href="#h" x="284.024" y="222.303"/><use xlink:href="#i" x="286.86" y="222.303"/><use xlink:href="#a" x="289.047" y="222.303"/><use xlink:href="#j" x="291.597" y="222.303"/><use xlink:href="#j" x="294.147" y="222.303"/><use xlink:href="#W" x="296.697" y="222.303"/></g><g class="B I J"><path d="M183.457 213.148l93.88 6.512" class="E"/><path d="M-1.197 1.595C-1.096.994-.002.098.3-.001-.002-.1-1.096-.996-1.197-1.592" transform="matrix(.847952 .058803 .058803 -.847952 277.3356 219.6615)" class="C D M"/></g><g clip-path="url(#BY)"><g clip-path="url(#BZ)"><path d="M277.816 232.863v-6.887h26.504v6.887zm0 0" fill="url(#Ba)"/></g></g><g class="H"><use xlink:href="#k" x="284.837" y="231.121"/><use xlink:href="#j" x="288.52" y="231.121"/><use xlink:href="#l" x="291.07" y="231.121"/><use xlink:href="#Y" x="295.037" y="231.121"/></g><g class="I B"><g class="J"><path d="M183.457 214.492l93.883 13.027" class="E"/><path d="M-1.194 1.595C-1.097.996.002.1.298.002.002-.1-1.095-.994-1.197-1.593" transform="matrix(.841908 .116782 .116782 -.841908 277.3384 227.5176)" class="C D M"/></g><g class="O"><path d="M304.414 194.19h62.48" class="E L"/><use xlink:href="#Be" y="184.949" class="C D K"/><path d="M304.414 203h62.48" class="E L"/><use xlink:href="#Bf" y="184.95" class="C D K"/><path d="M304.414 211.805h62.48" class="E L"/><use xlink:href="#Be" y="202.563" class="C D K"/><path d="M304.414 220.613h62.48" class="E L"/><use xlink:href="#Bh" y="165.133" class="C D K"/><path d="M304.414 229.418h62.48" class="E L"/><use xlink:href="#Bi" y="165.132" class="C D K"/></g></g></svg>
