<?xml version="1.0" encoding="iso-8859-1"?>
<!-- Generator: Adobe Illustrator 19.0.0, SVG Export Plug-In . SVG Version: 6.00 Build 0)  -->
<svg version="1.1" id="Capa_1" xmlns="http://www.w3.org/2000/svg" xmlns:xlink="http://www.w3.org/1999/xlink" x="0px" y="0px"
	 viewBox="0 0 460.5 460.5" style="enable-background:new 0 0 460.5 460.5;" xml:space="preserve">
<g>
	<path d="M123.5,142.75c-37.22,0-67.5,30.28-67.5,67.5s30.28,67.5,67.5,67.5s67.5-30.28,67.5-67.5S160.72,142.75,123.5,142.75z
		 M123.5,262.75c-28.948,0-52.5-23.551-52.5-52.5s23.552-52.5,52.5-52.5s52.5,23.551,52.5,52.5S152.448,262.75,123.5,262.75z"/>
	<path d="M224.97,272.829l-8.555-8.555c4.882-8.357,8.574-17.24,11.025-26.524h12.06c4.143,0,7.5-3.358,7.5-7.5v-40
		c0-4.142-3.357-7.5-7.5-7.5h-12.06c-2.451-9.285-6.144-18.167-11.025-26.524l8.555-8.555c2.929-2.929,2.929-7.678,0-10.606
		l-28.284-28.284c-2.93-2.929-7.678-2.929-10.607,0l-8.554,8.554c-8.356-4.881-17.239-8.573-26.524-11.025V94.25
		c0-4.142-3.357-7.5-7.5-7.5h-40c-4.143,0-7.5,3.358-7.5,7.5v12.06c-9.285,2.452-18.168,6.144-26.525,11.025l-8.554-8.554
		c-1.407-1.407-3.314-2.197-5.304-2.197s-3.896,0.79-5.304,2.197L22.03,137.064c-2.929,2.929-2.929,7.678,0,10.606l8.555,8.555
		c-4.882,8.356-8.574,17.239-11.025,26.524H7.5c-4.143,0-7.5,3.358-7.5,7.5v40c0,4.142,3.357,7.5,7.5,7.5h12.06
		c2.451,9.285,6.144,18.168,11.025,26.524l-8.555,8.555c-2.929,2.929-2.929,7.678,0,10.606l28.283,28.284
		c1.407,1.407,3.314,2.197,5.304,2.197s3.896-0.79,5.304-2.197l8.554-8.554c8.357,4.881,17.24,8.573,26.525,11.025v12.06
		c0,4.142,3.357,7.5,7.5,7.5h40c4.143,0,7.5-3.358,7.5-7.5v-12.06c9.285-2.452,18.168-6.144,26.524-11.025l8.554,8.554
		c2.93,2.929,7.678,2.929,10.607,0l28.284-28.284C227.898,280.507,227.898,275.758,224.97,272.829z M214.141,228.758
		c-2.349,11.573-6.888,22.497-13.491,32.469c-1.97,2.974-1.572,6.923,0.949,9.444l7.461,7.46l-17.678,17.678l-7.46-7.46
		c-2.524-2.522-6.472-2.918-9.444-0.95c-9.972,6.603-20.896,11.143-32.47,13.492c-3.496,0.71-6.008,3.783-6.008,7.35v10.508h-25
		v-10.508c0-3.567-2.513-6.641-6.008-7.35c-11.574-2.35-22.499-6.889-32.471-13.492c-2.973-1.968-6.922-1.572-9.444,0.95l-7.46,7.46
		L37.94,278.132l7.461-7.46c2.521-2.521,2.919-6.471,0.949-9.444c-6.603-9.971-11.143-20.896-13.493-32.47
		c-0.709-3.495-3.783-6.007-7.35-6.007H15v-25h10.508c3.566,0,6.641-2.512,7.35-6.007c2.351-11.574,6.891-22.499,13.493-32.47
		c1.97-2.974,1.572-6.923-0.949-9.444l-7.461-7.46l17.677-17.677l7.46,7.46c2.522,2.522,6.472,2.918,9.444,0.95
		c9.972-6.603,20.896-11.143,32.471-13.492c3.495-0.709,6.008-3.783,6.008-7.35V101.75h25v10.508c0,3.567,2.512,6.64,6.008,7.35
		c11.574,2.35,22.498,6.889,32.47,13.492c2.973,1.968,6.922,1.572,9.444-0.95l7.46-7.46l17.678,17.678l-7.461,7.46
		c-2.521,2.521-2.919,6.471-0.949,9.444c6.604,9.972,11.143,20.896,13.491,32.469c0.71,3.496,3.783,6.008,7.351,6.008H232v25
		h-10.509C217.924,222.75,214.851,225.262,214.141,228.758z"/>
	<path d="M351.5,294.75h-9.021c-1.317-9.703-5.143-18.615-10.813-26.059l6.392-6.393c2.929-2.929,2.929-7.678-0.001-10.606
		c-2.928-2.93-7.677-2.929-10.606,0l-6.392,6.392c-7.444-5.67-16.357-9.496-26.059-10.813v-9.021c0-4.142-3.357-7.5-7.5-7.5
		s-7.5,3.358-7.5,7.5v9.021c-9.703,1.317-18.615,5.143-26.059,10.813l-6.392-6.392c-2.929-2.929-7.678-2.93-10.606,0
		c-2.93,2.929-2.93,7.677-0.001,10.606l6.392,6.393c-5.67,7.444-9.496,16.356-10.813,26.059H223.5c-4.143,0-7.5,3.358-7.5,7.5
		s3.357,7.5,7.5,7.5h9.021c1.317,9.703,5.143,18.615,10.813,26.059l-6.392,6.393c-2.929,2.929-2.929,7.678,0.001,10.606
		c1.464,1.465,3.384,2.197,5.303,2.197s3.839-0.732,5.304-2.197l6.392-6.392c7.444,5.67,16.357,9.496,26.059,10.813v9.021
		c0,4.142,3.357,7.5,7.5,7.5s7.5-3.358,7.5-7.5v-9.021c9.703-1.317,18.615-5.143,26.059-10.813l6.392,6.392
		c1.465,1.465,3.384,2.197,5.304,2.197c1.919,0,3.839-0.732,5.303-2.197c2.93-2.929,2.93-7.677,0.001-10.606l-6.392-6.393
		c5.67-7.444,9.496-16.356,10.813-26.059h9.021c4.143,0,7.5-3.358,7.5-7.5S355.643,294.75,351.5,294.75z M287.5,342.75
		c-22.332,0-40.5-18.168-40.5-40.5s18.168-40.5,40.5-40.5s40.5,18.168,40.5,40.5S309.832,342.75,287.5,342.75z"/>
	<path d="M123.5,174.75c-19.575,0-35.5,15.925-35.5,35.5s15.925,35.5,35.5,35.5s35.5-15.925,35.5-35.5S143.075,174.75,123.5,174.75z
		 M123.5,230.75c-11.304,0-20.5-9.196-20.5-20.5s9.196-20.5,20.5-20.5s20.5,9.196,20.5,20.5S134.804,230.75,123.5,230.75z"/>
	<path d="M287.5,278.75c-12.958,0-23.5,10.542-23.5,23.5s10.542,23.5,23.5,23.5s23.5-10.542,23.5-23.5S300.458,278.75,287.5,278.75z
		 M287.5,310.75c-4.687,0-8.5-3.813-8.5-8.5s3.813-8.5,8.5-8.5s8.5,3.813,8.5,8.5S292.187,310.75,287.5,310.75z"/>
	<path d="M375.5,134.75c-21.78,0-39.5,17.72-39.5,39.5s17.72,39.5,39.5,39.5s39.5-17.72,39.5-39.5S397.28,134.75,375.5,134.75z
		 M375.5,198.75c-13.51,0-24.5-10.991-24.5-24.5s10.99-24.5,24.5-24.5s24.5,10.991,24.5,24.5S389.01,198.75,375.5,198.75z"/>
	<path d="M445.424,159.001l-0.078-0.003c-1.838-8.425-5.168-16.294-9.695-23.328l0.075-0.081c5.824-5.955,5.783-15.538-0.121-21.443
		c-2.881-2.88-6.71-4.467-10.783-4.467c-0.001,0,0,0-0.001,0c-4.016,0-7.795,1.542-10.66,4.346l-0.081,0.074
		c-7.034-4.527-14.902-7.857-23.327-9.695l-0.003-0.078c-0.094-8.328-6.897-15.076-15.249-15.077
		c-8.351,0-15.155,6.748-15.249,15.077l-0.003,0.078c-8.425,1.839-16.294,5.168-23.327,9.695l-0.081-0.075
		c-5.957-5.824-15.537-5.783-21.444,0.122c-5.904,5.905-5.944,15.487-0.122,21.443l0.076,0.082
		c-4.527,7.034-7.856,14.903-9.695,23.328l-0.078,0.003c-8.329,0.093-15.076,6.898-15.076,15.249
		c0,8.352,6.748,15.156,15.078,15.249l0.076,0.003c1.838,8.425,5.168,16.293,9.695,23.327l-0.076,0.082
		c-5.823,5.956-5.782,15.538,0.122,21.442c2.88,2.881,6.71,4.467,10.783,4.467c0.001,0,0,0,0.001,0c4.016,0,7.794-1.542,10.66-4.345
		l0.081-0.075c7.033,4.527,14.902,7.856,23.327,9.695l0.003,0.078c0.094,8.329,6.898,15.077,15.248,15.077c0.001,0,0.001,0,0.002,0
		c4.073,0,7.902-1.586,10.782-4.466c2.84-2.84,4.422-6.602,4.466-10.61l0.003-0.078c8.425-1.838,16.293-5.168,23.327-9.695
		l0.082,0.075c5.956,5.824,15.538,5.782,21.443-0.122c5.905-5.905,5.945-15.488,0.121-21.443l-0.075-0.081
		c4.527-7.034,7.856-14.902,9.695-23.327l0.076-0.003c8.33-0.093,15.078-6.897,15.078-15.249
		C460.5,165.899,453.753,159.095,445.424,159.001z M375.5,230.75c-31.204,0-56.5-25.296-56.5-56.5s25.296-56.5,56.5-56.5
		s56.5,25.296,56.5,56.5S406.704,230.75,375.5,230.75z"/>
</g>
<g>
</g>
<g>
</g>
<g>
</g>
<g>
</g>
<g>
</g>
<g>
</g>
<g>
</g>
<g>
</g>
<g>
</g>
<g>
</g>
<g>
</g>
<g>
</g>
<g>
</g>
<g>
</g>
<g>
</g>
</svg>
