<svg id="Layer_1" data-name="Layer 1" xmlns="http://www.w3.org/2000/svg" xmlns:xlink="http://www.w3.org/1999/xlink" viewBox="0 0 756.62 107.82"><defs><style>.cls-1{fill:none;}.cls-2{clip-path:url(#clip-path);}.cls-3,.cls-4{fill:#00786b;}.cls-3{fill-rule:evenodd;}</style><clipPath id="clip-path" transform="translate(0 0)"><rect class="cls-1" width="756.62" height="107.82"/></clipPath></defs><g class="cls-2"><path class="cls-3" d="M743.09,90.76h13.54V17h-11V73.24L716.22,17H702.79V90.76h11v-56Zm-71.64,0h11V17h-11Zm-52.09,0h40V81H630.54V17H619.36ZM574.47,26.23c7.69,0,13.75,3,13.75,10.65s-6.57,12.8-16.62,12.8c-1.94,0-3.69-.1-5.44-.2V26.64c2.47-.21,5.13-.41,8.31-.41M555.3,90.76h10.86V59.31c7.29,0,11.18,3.89,15.18,11.47l10.47,20h12.61L590.88,66.48a29.69,29.69,0,0,0-8-9.43c9.44-3.16,16.52-10.13,16.52-20.48,0-13.83-11.08-20.07-25.23-20.07a166,166,0,0,0-18.87,1.23Zm-61,0h43.07V80.92h-32.1V57.57h29V47.84h-29v-21H536.3l.52-9.83H494.26ZM452.56,26c8,0,12.51,2.77,12.51,9.43s-4.82,12-16.61,12h-5.13V26.53a91.59,91.59,0,0,1,9.23-.51M450.5,56.54c12.41,0,17.85,3.8,17.85,12.5S462,82,452.56,82c-3,0-6.15-.11-9.23-.41v-25ZM432.35,90.25c6.46.61,12.82,1.12,19.69,1.12,14.15,0,27.58-5.42,27.58-21.82,0-9.63-5.32-15.66-13.63-18.54,6.36-3.28,10.26-8.8,10.26-16.18,0-12.8-9.86-18.33-23.79-18.33a194.74,194.74,0,0,0-20.11,1.23Z" transform="translate(0 0)"/><path class="cls-4" d="M22.86,70.14A236.11,236.11,0,0,1,0,48v56.79A410.12,410.12,0,0,0,40.81,83.32a193.65,193.65,0,0,1-18-13.18" transform="translate(0 0)"/><path class="cls-4" d="M211.31,28.9a95.93,95.93,0,0,0-10.67.62V78.37c3.29.31,6.57.41,9.65.41,14.86,0,22.66-8.29,22.66-25.91,0-18.23-8.31-24-21.64-24" transform="translate(0 0)"/><path class="cls-4" d="M5.06,107.82H95A194,194,0,0,1,47.5,87.52C29.12,97.3,14.11,104,5.06,107.82" transform="translate(0 0)"/><path class="cls-4" d="M51.14,76.69C97.66,47,129.65,14.51,142.8,0H0C3.71,13.86,12,33.2,30.1,55.72a153,153,0,0,0,21,21" transform="translate(0 0)"/><path class="cls-4" d="M168.08,0C131.43,36.49,90.68,63.51,58,81.8c19.64,14.4,39.3,21.65,53.58,26h293V0Zm41.18,91.35c-7.18,0-14.66-.52-23.07-1.23V17.84c7.28-.72,16.2-1.43,24.61-1.43,24.1,0,36.91,11,36.91,35.54,0,26.73-13,39.44-38.45,39.44m69.11-.61H263.82V17.06h14.55Zm90,0h-19L337.88,35.15,326.4,90.77H307.32L291.73,17h15.18l10.67,57.05L329,17h18.56l11.27,56.44L369.87,17h14.67Z" transform="translate(0 0)"/></g></svg>
