<?xml version="1.0" encoding="iso-8859-1"?>
<!-- Generator: Adobe Illustrator 19.0.0, SVG Export Plug-In . SVG Version: 6.00 Build 0)  -->
<svg version="1.1" id="Layer_1" xmlns="http://www.w3.org/2000/svg" xmlns:xlink="http://www.w3.org/1999/xlink" x="0px" y="0px"
	 viewBox="0 0 295.575 295.575" style="enable-background:new 0 0 295.575 295.575;" xml:space="preserve">
<g>
	<g>
		<g>
			<path d="M257.311,52.718v-23.81h-95.69l0.238-1.786c0.852-6.381-0.848-12.7-4.776-17.8c-3.929-5.095-9.614-8.338-15.995-9.138
				c-12.99-1.619-24.986,7.619-26.719,20.605l-1.086,8.119H14.454v242.857h23.81v23.81h242.857V52.718H257.311z M123.806,22.052
				c1.048-7.824,8.276-13.371,16.1-12.414c3.848,0.481,7.271,2.438,9.638,5.505c2.371,3.071,3.39,6.876,2.876,10.719l-0.405,3.048
				h-14.414l0.61-4.057c0.39-2.6-1.4-5.024-4-5.414c-2.581-0.405-5.029,1.395-5.414,4l-0.824,5.471h-5.081L123.806,22.052z
				 M23.978,262.243V38.433h88.038l-2.095,15.733c-0.852,6.381,0.848,12.7,4.776,17.8c3.929,5.095,9.614,8.338,15.995,9.138
				c1,0.124,1.99,0.186,2.971,0.186c11.81,0,22.148-8.8,23.748-20.79c0.348-2.61-1.486-5.005-4.09-5.352
				c-2.586-0.319-5.005,1.481-5.352,4.09c-1.043,7.824-8.276,13.39-16.095,12.414c-3.848-0.481-7.271-2.433-9.638-5.505
				c-2.371-3.071-3.39-6.876-2.876-10.719l2.262-16.995h126.167v223.81H23.978z M271.597,286.052L271.597,286.052H47.787v-14.286
				h209.524V62.242h14.286V286.052z"/>
			<rect x="38.263" y="109.861" width="195.238" height="9.524"/>
			<rect x="38.263" y="133.671" width="195.238" height="9.524"/>
			<rect x="38.263" y="157.48" width="195.238" height="9.524"/>
			<rect x="223.978" y="181.29" width="9.524" height="9.524"/>
			<rect x="200.168" y="181.29" width="9.524" height="9.524"/>
			<rect x="176.359" y="181.29" width="9.524" height="9.524"/>
		</g>
	</g>
</g>
<g>
</g>
<g>
</g>
<g>
</g>
<g>
</g>
<g>
</g>
<g>
</g>
<g>
</g>
<g>
</g>
<g>
</g>
<g>
</g>
<g>
</g>
<g>
</g>
<g>
</g>
<g>
</g>
<g>
</g>
</svg>
