<?xml version="1.0" encoding="iso-8859-1"?>
<!-- Generator: Adobe Illustrator 17.1.0, SVG Export Plug-In . SVG Version: 6.00 Build 0)  -->
<!DOCTYPE svg PUBLIC "-//W3C//DTD SVG 1.1//EN" "http://www.w3.org/Graphics/SVG/1.1/DTD/svg11.dtd">
<svg version="1.1" id="Capa_1" xmlns="http://www.w3.org/2000/svg" xmlns:xlink="http://www.w3.org/1999/xlink" x="0px" y="0px"
	 viewBox="0 0 196.083 196.083" style="enable-background:new 0 0 196.083 196.083;" xml:space="preserve">
<path d="M182.917,195h-63.333c-7.26,0-13.167-5.907-13.167-13.167V118.5c0-7.26,5.906-13.167,13.167-13.167h63.333
	c7.26,0,13.167,5.907,13.167,13.167v63.333C196.083,189.093,190.177,195,182.917,195z M119.583,110.333
	c-4.503,0-8.167,3.664-8.167,8.167v63.333c0,4.503,3.664,8.167,8.167,8.167h63.333c4.503,0,8.167-3.664,8.167-8.167V118.5
	c0-4.503-3.664-8.167-8.167-8.167H119.583z M76.5,195H13.167C5.906,195,0,189.093,0,181.833V118.5
	c0-7.26,5.906-13.167,13.167-13.167H76.5c7.26,0,13.167,5.907,13.167,13.167v63.333C89.667,189.093,83.76,195,76.5,195z
	 M13.167,110.333C8.664,110.333,5,113.997,5,118.5v63.333C5,186.336,8.664,190,13.167,190H76.5c4.503,0,8.167-3.664,8.167-8.167
	V118.5c0-4.503-3.664-8.167-8.167-8.167H13.167z M47,177.333H30.667c-1.381,0-2.5-1.119-2.5-2.5s1.119-2.5,2.5-2.5h16
	c5.422,0,9.833-4.411,9.833-9.833c0-5.422-4.411-9.833-9.833-9.833h-16c-1.381,0-2.5-1.119-2.5-2.5s1.119-2.5,2.5-2.5h16
	c5.422,0,9.833-4.411,9.833-9.833c0-5.422-4.411-9.833-9.833-9.833h-16c-1.381,0-2.5-1.119-2.5-2.5s1.119-2.5,2.5-2.5h16
	c8.179,0,14.833,6.654,14.833,14.833c0,5.135-2.624,9.67-6.601,12.333c3.977,2.664,6.601,7.198,6.601,12.333
	c0,7.99-6.35,14.524-14.268,14.822C47.156,177.33,47.078,177.333,47,177.333z M163.917,177.167c-1.381,0-2.5-1.119-2.5-2.5v-23.833
	h-16.5c-4.871,0-8.833-3.962-8.833-8.833v-16.333c0-1.381,1.119-2.5,2.5-2.5s2.5,1.119,2.5,2.5V142c0,2.114,1.72,3.833,3.833,3.833
	h16.5v-20.167c0-1.381,1.119-2.5,2.5-2.5s2.5,1.119,2.5,2.5v49C166.417,176.047,165.297,177.167,163.917,177.167z M129.083,90.75
	H65.75c-7.26,0-13.167-5.907-13.167-13.167V14.25c0-7.26,5.907-13.167,13.167-13.167h63.333c7.26,0,13.167,5.907,13.167,13.167
	v63.333C142.25,84.843,136.343,90.75,129.083,90.75z M65.75,6.083c-4.503,0-8.167,3.664-8.167,8.167v63.333
	c0,4.503,3.664,8.167,8.167,8.167h63.333c4.503,0,8.167-3.664,8.167-8.167V14.25c0-4.503-3.664-8.167-8.167-8.167H65.75z
	 M109.723,71.396H85.109c-1.004,0-1.911-0.601-2.302-1.525s-0.191-1.994,0.507-2.715l18.858-19.447
	c3.257-3.359,5.051-7.785,5.051-12.464c0-5.407-4.399-9.807-9.807-9.807c-5.408,0-9.807,4.399-9.807,9.807v3.654
	c0,1.381-1.119,2.5-2.5,2.5s-2.5-1.119-2.5-2.5v-3.654c0-8.165,6.643-14.807,14.807-14.807s14.807,6.642,14.807,14.807
	c0,5.986-2.294,11.648-6.461,15.945L91.016,66.396h18.707c1.381,0,2.5,1.119,2.5,2.5S111.104,71.396,109.723,71.396z"/>
<g>
</g>
<g>
</g>
<g>
</g>
<g>
</g>
<g>
</g>
<g>
</g>
<g>
</g>
<g>
</g>
<g>
</g>
<g>
</g>
<g>
</g>
<g>
</g>
<g>
</g>
<g>
</g>
<g>
</g>
</svg>
