<?xml version="1.0" encoding="iso-8859-1"?>
<!-- Generator: Adobe Illustrator 19.0.0, SVG Export Plug-In . SVG Version: 6.00 Build 0)  -->
<svg version="1.1" id="Capa_1" xmlns="http://www.w3.org/2000/svg" xmlns:xlink="http://www.w3.org/1999/xlink" x="0px" y="0px"
	 viewBox="0 0 470 470" style="enable-background:new 0 0 470 470;" xml:space="preserve">
<g>
	<path d="M194.96,15h82.137c4.142,0,7.5-3.358,7.5-7.5s-3.358-7.5-7.5-7.5H194.96c-4.142,0-7.5,3.358-7.5,7.5S190.818,15,194.96,15z
		"/>
	<path d="M414.378,455h-23.06v-44.166c23.748-3.625,42-24.187,42-48.932s-18.252-45.307-42-48.932V208.935
		c0-46.682-37.979-84.661-84.661-84.661h-22.06V37.5c0-4.142-3.358-7.5-7.5-7.5H194.96c-4.142,0-7.5,3.358-7.5,7.5v156.295h-2.5
		c-4.142,0-7.5,3.358-7.5,7.5s3.358,7.5,7.5,7.5h13.687v27.3c0,4.142,3.358,7.5,7.5,7.5h59.764c4.142,0,7.5-3.358,7.5-7.5v-27.3
		h13.687c4.142,0,7.5-3.358,7.5-7.5s-3.358-7.5-7.5-7.5h-2.5v-54.521h22.06c38.411,0,69.661,31.25,69.661,69.661V312.97
		c-23.748,3.625-42,24.187-42,48.932s18.252,45.307,42,48.932V455H52.984c3.083-8.575,11.297-14.723,20.92-14.723h279.914
		c4.142,0,7.5-3.358,7.5-7.5s-3.358-7.5-7.5-7.5H273.41V293.596h62.16v2.5c0,4.142,3.358,7.5,7.5,7.5s7.5-3.358,7.5-7.5v-87.161
		c0-24.214-19.7-43.914-43.914-43.914c-4.142,0-7.5,3.358-7.5,7.5s3.358,7.5,7.5,7.5c15.943,0,28.914,12.971,28.914,28.914v69.661
		H153.984c-4.142,0-7.5,3.358-7.5,7.5s3.358,7.5,7.5,7.5H258.41v100.622h-52.264c-4.142,0-7.5,3.358-7.5,7.5s3.358,7.5,7.5,7.5
		h52.264v16.06H73.904c-20.524,0-37.222,16.698-37.222,37.223c0,4.142,3.358,7.5,7.5,7.5h370.196c4.142,0,7.5-3.358,7.5-7.5
		S418.52,455,414.378,455z M258.41,228.596h-44.764v-19.8h44.764V228.596z M202.46,193.795V45h67.137v148.795H202.46z
		 M349.318,361.902c0-19.021,15.473-34.496,34.494-34.5c0.002,0,0.004,0,0.006,0s0.004,0,0.006,0
		c19.021,0.003,34.494,15.479,34.494,34.5c0,19.023-15.477,34.5-34.5,34.5S349.318,380.926,349.318,361.902z"/>
</g>
<g>
</g>
<g>
</g>
<g>
</g>
<g>
</g>
<g>
</g>
<g>
</g>
<g>
</g>
<g>
</g>
<g>
</g>
<g>
</g>
<g>
</g>
<g>
</g>
<g>
</g>
<g>
</g>
<g>
</g>
</svg>
