<?xml version="1.0" encoding="iso-8859-1"?>
<!-- Generator: Adobe Illustrator 19.0.0, SVG Export Plug-In . SVG Version: 6.00 Build 0)  -->
<svg version="1.1" id="Layer_1" xmlns="http://www.w3.org/2000/svg" xmlns:xlink="http://www.w3.org/1999/xlink" x="0px" y="0px"
	 viewBox="0 0 512 512" style="enable-background:new 0 0 512 512;" xml:space="preserve">
<g>
	<g>
		<path d="M256.544,0.542c-40.46,0-73.376,32.916-73.376,73.376s32.916,73.376,73.376,73.376s73.376-32.916,73.376-73.376
			S297.003,0.542,256.544,0.542z M256.544,130.988c-31.469,0-57.07-25.602-57.07-57.07c0-31.468,25.601-57.07,57.07-57.07
			s57.07,25.602,57.07,57.07S288.013,130.988,256.544,130.988z"/>
	</g>
</g>
<g>
	<g>
		<path d="M502.76,247.846h-24.459V231.54h25.546c2.722,0,5.265-1.358,6.777-3.621c1.513-2.262,1.797-5.131,0.758-7.646
			l-33.698-81.529c-1.261-3.049-4.235-5.038-7.534-5.038s-6.273,1.989-7.534,5.038l-33.699,81.529
			c-1.04,2.515-0.755,5.384,0.758,7.646c1.513,2.263,4.055,3.621,6.777,3.621h25.546v16.306h-83.703V231.54h25.546
			c2.722,0,5.265-1.358,6.777-3.621c1.513-2.262,1.797-5.131,0.758-7.646l-33.698-81.529c-1.261-3.049-4.235-5.038-7.534-5.038
			s-6.273,1.989-7.534,5.038l-33.699,81.529c-1.04,2.515-0.755,5.384,0.758,7.646c1.513,2.263,4.055,3.621,6.777,3.621h25.546
			v16.306h-51.012c-0.037,0-0.073,0-0.11,0H202.213c-0.031,0-0.063,0-0.094,0h-52.107V231.54h25.546
			c2.722,0,5.265-1.358,6.777-3.621c1.513-2.262,1.797-5.131,0.758-7.646l-33.698-81.529c-1.261-3.049-4.235-5.038-7.534-5.038
			s-6.273,1.989-7.534,5.038l-33.699,81.529c-1.04,2.515-0.755,5.384,0.758,7.646c1.513,2.263,4.055,3.621,6.777,3.621h25.546
			v16.306H50.004V231.54H75.55c2.722,0,5.265-1.358,6.777-3.621c1.513-2.262,1.797-5.131,0.758-7.646l-33.698-81.529
			c-1.261-3.049-4.235-5.038-7.534-5.038s-6.273,1.989-7.534,5.038L0.619,220.273c-1.04,2.515-0.755,5.384,0.758,7.646
			c1.513,2.263,4.055,3.621,6.777,3.621h25.546v16.306H8.153c-4.503,0-8.153,3.649-8.153,8.153s3.65,8.153,8.153,8.153h182.999
			l-72.847,236.753c-1.324,4.304,1.091,8.866,5.395,10.19c0.799,0.247,1.607,0.363,2.4,0.363c3.485,0,6.711-2.252,7.79-5.757
			l74.323-241.549h96.661L379.196,505.7c1.078,3.505,4.305,5.757,7.79,5.757c0.794,0,1.602-0.116,2.4-0.363
			c4.304-1.324,6.719-5.886,5.395-10.19l-72.848-236.753H502.76c4.503,0,8.153-3.649,8.153-8.153S507.263,247.846,502.76,247.846z
			 M20.344,215.234l21.507-52.033l21.507,52.033H20.344z M120.354,215.234l21.506-52.033l21.507,52.033H120.354z M348.634,215.234
			l21.506-52.033l21.507,52.033H348.634z M448.642,215.234l21.506-52.033l21.507,52.033H448.642z"/>
	</g>
</g>
<g>
	<g>
		<path d="M438.624,356.551c-4.503,0-8.153,3.649-8.153,8.153v10.87c0,4.504,3.65,8.153,8.153,8.153s8.153-3.649,8.153-8.153v-10.87
			C446.777,360.2,443.127,356.551,438.624,356.551z"/>
	</g>
</g>
<g>
	<g>
		<path d="M107.074,378.292c-4.503,0-8.153,3.649-8.153,8.153v10.87c0,4.504,3.65,8.153,8.153,8.153
			c4.503,0,8.153-3.649,8.153-8.153v-10.87C115.227,381.941,111.577,378.292,107.074,378.292z"/>
	</g>
</g>
<g>
	<g>
		<path d="M74.463,345.68c-4.503,0-8.153,3.649-8.153,8.153v10.87c0,4.504,3.65,8.153,8.153,8.153s8.153-3.649,8.153-8.153v-10.87
			C82.616,349.329,78.965,345.68,74.463,345.68z"/>
	</g>
</g>
<g>
	<g>
		<path d="M406.013,313.069c-4.503,0-8.153,3.649-8.153,8.153v10.87c0,4.504,3.65,8.153,8.153,8.153s8.153-3.649,8.153-8.153v-10.87
			C414.166,316.718,410.515,313.069,406.013,313.069z"/>
	</g>
</g>
<g>
	<g>
		<path d="M41.851,451.667c-4.503,0-8.153,3.649-8.153,8.153v10.871c0,4.504,3.65,8.153,8.153,8.153s8.153-3.649,8.153-8.153V459.82
			C50.004,455.317,46.354,451.667,41.851,451.667z"/>
	</g>
</g>
<g>
	<g>
		<path d="M256.544,450.761c-4.503,0-8.153,3.649-8.153,8.153v44.389c0,4.504,3.65,8.153,8.153,8.153s8.153-3.649,8.153-8.153
			v-44.388C264.696,454.41,261.046,450.761,256.544,450.761z"/>
	</g>
</g>
<g>
	<g>
		<path d="M256.544,368.327c-4.503,0-8.153,3.649-8.153,8.153v38.953c0,4.504,3.65,8.153,8.153,8.153s8.153-3.649,8.153-8.153
			V376.48C264.696,371.976,261.046,368.327,256.544,368.327z"/>
	</g>
</g>
<g>
	<g>
		<path d="M256.544,280.457c-4.503,0-8.153,3.649-8.153,8.153v44.387c0,4.504,3.65,8.153,8.153,8.153s8.153-3.649,8.153-8.153
			V288.61C264.696,284.107,261.046,280.457,256.544,280.457z"/>
	</g>
</g>
<g>
</g>
<g>
</g>
<g>
</g>
<g>
</g>
<g>
</g>
<g>
</g>
<g>
</g>
<g>
</g>
<g>
</g>
<g>
</g>
<g>
</g>
<g>
</g>
<g>
</g>
<g>
</g>
<g>
</g>
</svg>
