<?xml version="1.0" encoding="iso-8859-1"?>
<!-- Generator: Adobe Illustrator 19.0.0, SVG Export Plug-In . SVG Version: 6.00 Build 0)  -->
<svg version="1.1" id="Capa_1" xmlns="http://www.w3.org/2000/svg" xmlns:xlink="http://www.w3.org/1999/xlink" x="0px" y="0px"
	 viewBox="0 0 60 60" style="enable-background:new 0 0 60 60;" xml:space="preserve">
<g>
	<g>
		<path d="M53,12c0-0.1,0-0.2-0.1-0.3v-0.1c-0.1-0.1-0.1-0.2-0.2-0.3l-11-11c-0.1-0.1-0.2-0.1-0.3-0.2h-0.1C41.2,0.1,41.1,0,41,0
			l0,0H8C7.4,0,7,0.4,7,1v58c0,0.6,0.4,1,1,1h5h6h5h9h19c0.6,0,1-0.4,1-1V12L53,12z M49.6,11H42V3.4L49.6,11z M14,23h4v29h-4V23z
			 M14.5,21l1.5-3.5l1.5,3.5H14.5z M14,58v-4h4v4H14z M25,58v-6h4v-2h-4v-6h4v-2h-4v-7h4v-2h-4v-6h4v-2h-4v-5h7v38H25z M34,58V19
			c0-0.6-0.4-1-1-1h-9c-0.6,0-1,0.4-1,1v39h-3v-5V22c0-0.3-0.1-0.6-0.3-0.7l-2.8-6.6c-0.1-0.4-0.5-0.6-0.9-0.6s-0.7,0.2-0.9,0.6
			l-2.8,6.6C12.1,21.5,12,21.7,12,22v31v5H9V2h31v10c0,0.6,0.4,1,1,1h10v45H34z"/>
		<rect x="12" y="5" width="8" height="2"/>
		<rect x="38" y="22" width="9" height="2"/>
		<rect x="38" y="27" width="9" height="2"/>
		<rect x="38" y="32" width="9" height="2"/>
		<rect x="38" y="37" width="9" height="2"/>
		<rect x="38" y="42" width="9" height="2"/>
		<rect x="38" y="47" width="9" height="2"/>
		<rect x="38" y="52" width="9" height="2"/>
		<rect x="12" y="9" width="16" height="2"/>
	</g>
</g>
<g>
</g>
<g>
</g>
<g>
</g>
<g>
</g>
<g>
</g>
<g>
</g>
<g>
</g>
<g>
</g>
<g>
</g>
<g>
</g>
<g>
</g>
<g>
</g>
<g>
</g>
<g>
</g>
<g>
</g>
</svg>
