<svg xmlns="http://www.w3.org/2000/svg" xmlns:xlink="http://www.w3.org/1999/xlink" width="617.8" height="158.997" viewBox="0 0 463.35 119.248" xmlns:v="https://vecta.io/nano"><style><![CDATA[.B{overflow:visible}.C{stroke:none}.D{stroke-linecap:square}]]></style><defs><symbol id="A" class="B"><path d="M2.97-4.297h-.797l.28-1.03c.016-.03.016-.047.016-.062 0-.062-.03-.094-.094-.094-.047 0-.078.016-.14.094C1.28-4.156.578-4.36.578-4.03v.047h.75L.61-1.22c-.03.14-.234.75-.234.953 0 .22.203.375.484.375.453 0 .78-.28 1.422-1.22l-.125-.062c-.5.625-.656.797-.812.797-.094 0-.156-.094-.156-.203 0-.016 0-.03.016-.062l.875-3.344h.844zm0 0" class="C"/></symbol><symbol id="B" class="B"><path d="M4.766-1.078l-.14-.094c-.53.656-.672.797-.828.797-.062 0-.11-.062-.11-.172 0-.062 0-.062.188-.797l.797-3h-.75C3.39-2.86 3.28-2.61 2.828-1.89c-.61.953-1.094 1.47-1.422 1.47-.125 0-.203-.094-.203-.25v-.094l.922-3.64-.03-.03a12.9 12.9 0 0 1-1.516.281v.14c.39 0 .406 0 .5.063.063.016.11.11.11.172 0 .078-.047.344-.14.672L.672-1.672C.484-.937.422-.64.422-.437c0 .36.188.547.53.547.72 0 1.25-.547 2.406-2.484-.312 1.11-.453 1.766-.453 1.984 0 .313.172.484.484.484.47 0 .688-.187 1.375-1.172zm0 0" class="C"/></symbol><symbol id="C" class="B"><path d="M3.047-1.203c0-.39-.203-.812-.672-1.406-.39-.47-.547-.78-.547-1.047 0-.344.22-.547.563-.547.516 0 .828.375.922 1.156h.156l.203-1.39h-.14a.27.27 0 0 1-.297.172 1.53 1.53 0 0 1-.359-.062c-.25-.078-.39-.11-.562-.11-.75 0-1.22.438-1.22 1.11 0 .328.22.75.64 1.297.39.516.563.86.563 1.156 0 .47-.312.78-.75.78-.562 0-.86-.422-1.03-1.375H.36L.156.125h.172c.078-.172.125-.203.234-.203s.297.03.5.094a1.91 1.91 0 0 0 .547.094c.844 0 1.438-.547 1.438-1.312zm0 0" class="C"/></symbol><symbol id="D" class="B"><path d="M4.78-1l-.125-.11-.28.28c-.312.328-.422.422-.516.422a.14.14 0 0 1-.141-.141c0-.203.422-1.922.89-3.64.03-.11.047-.125.063-.22l-.078-.03-.61.078-.03.03-.11.484c-.078-.375-.375-.594-.797-.594C1.703-4.437.172-2.61.172-1c0 .703.375 1.11 1.03 1.11.703 0 1.125-.328 2.016-1.578-.22.828-.234.906-.234 1.156 0 .297.125.406.406.406.39 0 .64-.187 1.39-1.094zm-1.11-2.594c0 .844-.516 2.03-1.203 2.766-.234.28-.578.453-.875.453-.36 0-.578-.28-.578-.75 0-.547.344-1.53.766-2.156.406-.594.86-.922 1.266-.922h.063a.56.56 0 0 1 .563.609zm0 0" class="C"/></symbol><symbol id="E" class="B"><path d="M2.5-2.875H.297v.672H2.5V0h.672v-2.203H5.36v-.672H3.172v-2.203H2.5zm0 0" class="C"/></symbol><symbol id="F" class="B"><path d="M2.453-5.64c0-.375.297-1.11 1.11-1.312.047-.016.078-.047.078-.094 0-.11-.078-.125-.187-.11-.78.125-1.72.766-1.72 1.438v1.797c0 .344-.062.844-.203.938-.36.25-.734.266-.953.266-.062.016-.094.078-.094.125 0 .11.063.125.156.125.672.03.953.344 1.063.797.03.11.03.11.03.453V.375c0 .39-.11.844.375 1.188.39.266.953.422 1.344.422.11 0 .188 0 .188-.11 0-.094-.047-.062-.156-.094-.672-.172-.875-.53-1-1-.03-.078-.03-.094-.03-.422v-1.72c0-.422-.078-.578-.406-.875-.203-.187-.297-.28-.578-.36.828-.203.984-.625.984-1.156zm0 0" class="C"/></symbol><symbol id="G" class="B"><path d="M2.97-7.203C1.5-6.266.484-4.625.484-2.578c0 1.86 1.063 3.75 2.453 4.61l.11-.156C1.734.828 1.344-.39 1.344-2.61c0-2.234.422-3.39 1.703-4.437zm0 0" class="C"/></symbol><symbol id="H" class="B"><path d="M.375-7.203l-.078.156C1.594-6 2-4.844 2-2.61 2-.39 1.625.828.297 1.875l.11.156c1.39-.86 2.453-2.75 2.453-4.61 0-2.047-1.016-3.687-2.484-4.625zm0 0" class="C"/></symbol><symbol id="I" class="B"><path d="M1.672-5.64v1.89c0 .53.172.953.984 1.156-.28.078-.36.172-.578.36-.312.297-.406.453-.406.875V.36c0 .328 0 .344-.03.422-.125.47-.328.828-1 1-.094.03-.156 0-.156.094 0 .11.078.11.188.11.39 0 .953-.156 1.344-.422.484-.344.39-.797.39-1.187V-1.22c0-.344 0-.344.03-.453.11-.453.39-.766 1.047-.797.11 0 .156-.016.156-.125 0-.047-.03-.11-.078-.125-.234 0-.594-.016-.953-.266-.14-.094-.203-.594-.203-.937V-5.72C2.39-6.39 1.453-7.03.672-7.156c-.11-.016-.187 0-.187.11 0 .047.03.078.094.094.797.203 1.094.938 1.094 1.313zm0 0" class="C"/></symbol><symbol id="J" class="B"><path d="M3.953 0v-.156C3.172-.156 3-.266 3-.75v-6.016l-.078-.03-1.812.922v.14l.28-.11c.172-.078.344-.11.453-.11.203 0 .297.14.297.47v4.547c0 .328-.078.563-.234.656s-.297.125-.72.125V0zm0 0" class="C"/></symbol><symbol id="K" class="B"><path d="M2.172-3.14h-.594l.203-.75c.016-.016.016-.03.016-.03 0-.062-.03-.078-.062-.078-.047 0-.062 0-.11.063-.687.906-1.203.75-1.203.984v.047H.97L.438-.89c-.016.094-.172.547-.172.688 0 .172.156.28.36.28.328 0 .578-.203 1.03-.89L1.563-.86c-.36.47-.47.578-.594.578-.062 0-.11-.062-.11-.14 0-.016 0-.016.016-.047l.64-2.437h.61zm0 0" class="C"/></symbol><symbol id="L" class="B"><path d="M3.484-.734l-.078-.078-.22.22c-.22.234-.312.297-.375.297S2.72-.344 2.72-.39c0-.156.297-1.406.64-2.672.03-.062.03-.078.047-.14l-.047-.03-.453.047-.016.03-.078.344c-.062-.266-.28-.422-.594-.422-.97 0-2.094 1.344-2.094 2.5 0 .516.28.813.75.813.516 0 .828-.234 1.47-1.14-.156.594-.172.656-.172.828 0 .22.094.313.297.313.297 0 .47-.14 1.016-.812zm-.812-1.89c0 .61-.375 1.484-.875 2.03-.172.188-.422.313-.625.313-.266 0-.437-.203-.437-.547 0-.39.266-1.11.563-1.562.297-.437.625-.687.938-.687h.03c.25.016.406.203.406.453zm0 0" class="C"/></symbol><symbol id="M" class="B"><path d="M1.953-.062c0-.828-.578-.97-.812-.97-.25 0-.578.156-.578.594 0 .39.36.5.625.5.063 0 .125-.016.156-.016.03-.016.063-.03.078-.03a.14.14 0 0 1 .141.141c0 .203-.156.64-.812 1.063l.078.203c.313-.11 1.125-.766 1.125-1.484zm0 0" class="C"/></symbol><symbol id="N" class="B"><path d="M1.406-.61l-.078-.03c-.297.344-.39.438-.484.438S.72-.28.75-.344l.5-1.828h.53l.03-.187h-.5l.14-.562-.062-.094h-.016c-.016 0-.047.016-.062.047-.234.28-.625.578-.812.625-.156.047-.203.078-.203.14 0 0 0 .016.016.03h.47L.328-.547c-.062.172-.094.36-.094.422 0 .11.125.203.297.203.297 0 .5-.156.875-.687zm0 0" class="C"/></symbol><symbol id="O" class="B"><path d="M3.547-.062v-.36h-1.39C1.5-.422.844-.97.766-1.703h2.656v-.36H.766c.078-.703.656-1.28 1.39-1.28h1.39v-.36h-1.36C1.172-3.703.375-2.86.375-1.89c0 .984.797 1.828 1.813 1.828zm0 0" class="C"/></symbol><symbol id="P" class="B"><path d="M6.328-.28v-.094c-.078.03-.172.063-.25.063-.28 0-.406-1.14-.406-1.36 0-.937.047-2.297.547-3.11l-.047-.03c-.25.094-.516.125-.78.125-.562 0-1.125-.078-1.687-.078-.547 0-1.11.266-1.562.53-.25.14-.922.61-.922.922 0 .22.406.672.625.672h.047a1.02 1.02 0 0 1-.156-.562c0-.953 1.297-1.266 2.047-1.266l.766.016c-.766.313-1.11 1.14-1.422 1.86-.297 0-.86.14-.86.516 0 .063.047.11.094.14.094-.203.375-.28.578-.28.03 0 .063 0 .094.016-.328.828-.687 2.11-1.797 2.11-.562 0-.937-.47-.937-1.016l-.062-.016C.11-.97.047-.75.047-.547.047 0 .484.28 1 .28c.89 0 1.86-1.11 2.25-1.844.11-.203.188-.422.297-.64.547.03.906-.062 1.406-.328-.03.438-.094 2.72.422 2.72.234 0 .766-.312.953-.47zM5.313-4.484l-.344 1.75a1.23 1.23 0 0 1-.578.156c-.234 0-.484 0-.72-.016.203-.72.906-1.687 1.64-1.89zm0 0" class="C"/></symbol><symbol id="Q" class="B"><path d="M1.828-2.094H.22v.484h1.61V0h.484v-1.61h1.594v-.484H2.313v-1.61h-.484zm0 0" class="C"/></symbol><symbol id="R" class="B"><path d="M2.89 0v-.11c-.578-.016-.703-.078-.703-.437v-4.39l-.062-.016-1.312.672v.094l.203-.078c.125-.047.25-.078.328-.078.156 0 .22.11.22.344v3.313c0 .25-.062.422-.172.484s-.22.078-.53.094V0zm0 0" class="C"/></symbol><symbol id="S" class="B"><path d="M1.375-1.578H.172v.36h1.203V0h.36v-1.22h1.22v-.36h-1.22v-1.22h-.36zm0 0" class="C"/></symbol><symbol id="T" class="B"><path d="M2.172 0v-.078c-.437-.016-.516-.062-.516-.328V-3.72l-.047-.016-1 .5v.078c.063-.016.125-.047.156-.047.094-.047.188-.062.25-.062.11 0 .156.078.156.25v2.5c0 .188-.047.313-.125.36-.094.047-.172.063-.39.078V0zm0 0" class="C"/></symbol><symbol id="U" class="B"><path d="M6.016-1.75H5.75c-.156.36-.28.578-.422.75-.36.422-.906.61-1.766.61H2.89c-.734 0-.875-.062-.875-.406v-4.766c0-.703.14-.844.938-.89v-.203H.125v.203c.734.047.875.188.875.89v4.47c0 .72-.14.86-.875.906V0H5.53zm0 0" class="C"/></symbol><symbol id="V" class="B"><path d="M4.266-1.578l-.172-.062C3.61-.89 3.188-.594 2.547-.594c-.562 0-.984-.266-1.266-.797C1.078-1.78 1-2.14.97-2.78h3.094c-.078-.656-.172-.953-.422-1.266-.312-.36-.766-.578-1.297-.578C1.11-4.625.25-3.61.25-2.156.25-.766.97.094 2.125.094c.97 0 1.72-.594 2.14-1.672zm-1.22-1.53H1c.11-.78.453-1.156 1.063-1.156s.844.28.984 1.156zm0 0" class="C"/></symbol><symbol id="W" class="B"><path d="M4.438-.406v-.25c-.172.14-.28.188-.437.188-.234 0-.297-.14-.297-.594v-1.953c0-.516-.062-.797-.203-1.016-.203-.39-.64-.594-1.25-.594-.516 0-1 .14-1.28.375-.25.22-.406.5-.406.75 0 .234.188.438.438.438.234 0 .453-.203.453-.422 0-.047-.016-.094-.03-.156-.016-.094-.03-.172-.03-.25 0-.266.328-.484.734-.484.484 0 .766.28.766.828v.61c-1.547.625-1.72.703-2.156 1.094-.22.203-.36.53-.36.875A1 1 0 0 0 1.422.094c.453 0 .86-.203 1.47-.734.047.547.234.734.64.734.344 0 .563-.11.906-.5zM2.89-1.234c0 .313-.062.406-.266.53-.25.14-.53.22-.734.22-.36 0-.64-.344-.64-.766v-.047c0-.594.422-.953 1.64-1.39zm0 0" class="C"/></symbol><symbol id="X" class="B"><path d="M3.36-4.094c0-.328-.203-.53-.547-.53-.422 0-.72.234-1.203.953v-.922l-.047-.03-1.484.547v.156c.14-.03.22-.03.344-.03.25 0 .344.156.344.594v2.516c0 .5-.078.578-.72.688V0H2.47v-.156c-.687-.03-.86-.172-.86-.75v-2.266c0-.312.438-.812.703-.812.063 0 .156.047.266.14.156.14.266.203.39.203.25 0 .39-.172.39-.453zm0 0" class="C"/></symbol><symbol id="Y" class="B"><path d="M4.875 0v-.156c-.5-.047-.61-.172-.61-.656V-3.11c0-.953-.453-1.516-1.187-1.516-.47 0-.78.172-1.453.813v-.78l-.078-.03a13.22 13.22 0 0 1-1.391.453V-4c.063-.03.172-.03.28-.03.28 0 .36.14.36.64v2.484c0 .578-.11.72-.61.75V0h2.125v-.156c-.516-.03-.672-.156-.672-.516V-3.5c.484-.453.703-.562 1.047-.562.484 0 .734.313.734.97V-1c0 .64-.14.813-.64.844V0zm0 0" class="C"/></symbol><symbol id="Z" class="B"><path d="M6.36-1.14l-.187-.172C5.438-.61 4.766-.297 3.938-.297c-.61 0-1.14-.187-1.562-.53-.594-.5-.922-1.406-.922-2.562 0-1.828.922-3 2.39-3 .578 0 1.094.22 1.484.61.328.328.484.61.672 1.266h.234l-.094-2.28h-.22c-.047.22-.22.344-.406.344a1.31 1.31 0 0 1-.406-.094c-.484-.172-.984-.25-1.47-.25-.78 0-1.578.297-2.187.797C.688-5.36.28-4.406.28-3.266.28-1.22 1.625.14 3.61.14c1.14 0 2.14-.47 2.75-1.28zm0 0" class="C"/></symbol><symbol id="a" class="B"><path d="M4.89 0v-.156c-.547-.094-.594-.172-.594-.875v-2c0-1.047-.422-1.594-1.25-1.594-.578 0-1 .25-1.47.844v-3.047l-.047-.03-1.156.36-.28.078v.156H.22c.438 0 .516.078.516.516v4.72c0 .703-.062.797-.64.875V0h2.172v-.156c-.594-.062-.687-.172-.687-.875v-2.422c.422-.453.72-.625 1.11-.625.5 0 .766.36.766 1.063v1.984c0 .688-.11.813-.687.875V0zm0 0" class="C"/></symbol><symbol id="b" class="B"><path d="M4.72-2.344c0-1.328-.922-2.28-2.203-2.28-1.312 0-2.22.97-2.22 2.36 0 1.344.922 2.36 2.188 2.36S4.72-.97 4.72-2.344zM3.813-2c0 1.14-.453 1.813-1.203 1.813-.39 0-.766-.234-.97-.64-.28-.516-.437-1.22-.437-1.937 0-.953.47-1.578 1.172-1.578.844 0 1.438.97 1.438 2.344zm0 0" class="C"/></symbol><symbol id="c" class="B"><path d="M3.5-1.187c0-.5-.234-.828-.844-1.187L1.563-3.03c-.28-.156-.422-.406-.422-.672 0-.422.313-.687.766-.687.578 0 .875.328 1.11 1.234h.156l-.047-1.36h-.11L3-4.5c-.094.063-.11.078-.14.078a.77.77 0 0 1-.281-.062c-.203-.094-.437-.125-.672-.125-.828 0-1.39.5-1.39 1.234 0 .563.313.953 1.172 1.453l.578.328c.36.203.53.438.53.75 0 .438-.328.72-.844.72C1.266-.125.922-.5.688-1.53H.516V.047h.14c.063-.11.11-.125.234-.125.11 0 .22.016.453.078.28.063.53.094.75.094.766 0 1.406-.578 1.406-1.28zm0 0" class="C"/></symbol><symbol id="d" class="B"><path d="M6.625 0v-.187c-.39-.03-.594-.14-.875-.47L3.672-3.203c.672-.125.984-.25 1.313-.53.328-.25.516-.672.516-1.156a1.67 1.67 0 0 0-.391-1.094c-.39-.406-1.22-.672-2.172-.672H.172v.203c.75.078.86.188.86.89v4.36c0 .828-.11.953-.86 1.016V0h2.78v-.187c-.766-.047-.906-.187-.906-.906v-1.984l.563-.016L5 0zm-2.22-4.906c0 .5-.22.922-.578 1.125-.47.25-.812.313-1.78.328v-2.47c0-.28.11-.36.516-.36 1.25 0 1.844.438 1.844 1.375zm0 0" class="C"/></symbol><symbol id="e" class="B"><path d="M4.14-1.484L4-1.562c-.484.703-.844.938-1.422.938-.922 0-1.547-.797-1.547-1.953 0-1.047.547-1.75 1.36-1.75.36 0 .5.11.594.484l.063.22c.078.297.266.453.484.453.25 0 .47-.187.47-.422 0-.562-.703-1.03-1.547-1.03-.47 0-.953.188-1.36.516C.547-3.656.25-2.97.25-2.125c0 1.297.797 2.22 1.906 2.22a1.76 1.76 0 0 0 1.156-.422c.297-.234.5-.53.828-1.156zm0 0" class="C"/></symbol><symbol id="f" class="B"><path d="M2.547 0v-.156c-.672-.047-.75-.14-.75-.875v-3.562l-.03-.03-1.562.563v.14H.28c.125-.03.25-.03.344-.03.234 0 .328.156.328.594v2.328c0 .734-.094.844-.797.875V0zM1.89-6.344a.51.51 0 0 0-.516-.516.52.52 0 0 0-.516.516c0 .28.234.5.516.5.297 0 .516-.22.516-.5zm0 0" class="C"/></symbol><symbol id="g" class="B"><path d="M4.797-4.375v-.14H3.39v.14c.328.03.484.14.484.328a1.01 1.01 0 0 1-.062.297l-1 2.61L1.78-3.72c-.047-.14-.078-.28-.078-.375 0-.172.11-.25.453-.28v-.14H.188v.14c.39.03.453.125.922 1.156l1.203 2.89c.016.063.047.125.078.203.063.188.125.266.188.266.047 0 .125-.125.28-.5l1.28-3.234c.297-.672.344-.75.656-.78zm0 0" class="C"/></symbol></defs><g fill="rgb(0%,0%,0%)"><use xlink:href="#A" x="120.926" y="78.05"/><use xlink:href="#A" x="328.642" y="106.213"/><use xlink:href="#E" x="334.247" y="106.213"/><use xlink:href="#J" x="342.143" y="106.213"/><use xlink:href="#F" x="23.177" y="47.825"/><use xlink:href="#B" x="27.525" y="47.825"/><use xlink:href="#G" x="33.39" y="47.825"/><use xlink:href="#C" x="37.398" y="47.825"/><use xlink:href="#K" x="41.475" y="49.332"/><use xlink:href="#M" x="44.284" y="47.825"/><use xlink:href="#D" x="48.713" y="47.825"/><use xlink:href="#K" x="54.073" y="49.332"/><use xlink:href="#H" x="56.882" y="47.825"/><use xlink:href="#I" x="60.979" y="47.825"/><use xlink:href="#L" x="65.453" y="49.332"/><use xlink:href="#N" x="69.413" y="50.43"/><use xlink:href="#O" x="72.139" y="49.332"/><use xlink:href="#P" x="76.32" y="49.332"/><use xlink:href="#D" x="108.691" y="32.125"/><use xlink:href="#K" x="114.055" y="33.632"/><use xlink:href="#B" x="155.622" y="48.188"/><use xlink:href="#G" x="161.488" y="48.188"/><use xlink:href="#C" x="165.494" y="48.188"/><use xlink:href="#K" x="169.573" y="49.695"/><use xlink:href="#M" x="172.381" y="48.188"/><use xlink:href="#D" x="176.81" y="48.188"/><use xlink:href="#K" x="182.17" y="49.695"/><use xlink:href="#H" x="184.979" y="48.188"/><use xlink:href="#F" x="243.923" y="75.295"/><use xlink:href="#B" x="248.271" y="75.295"/><use xlink:href="#G" x="254.136" y="75.295"/><use xlink:href="#C" x="258.143" y="75.295"/><use xlink:href="#K" x="262.221" y="76.802"/><use xlink:href="#Q" x="264.681" y="76.802"/><use xlink:href="#R" x="268.811" y="76.802"/><use xlink:href="#M" x="272.821" y="75.295"/><use xlink:href="#D" x="277.25" y="75.295"/><use xlink:href="#K" x="282.61" y="76.802"/><use xlink:href="#Q" x="285.07" y="76.802"/><use xlink:href="#R" x="289.2" y="76.802"/><use xlink:href="#H" x="293.21" y="75.295"/><use xlink:href="#I" x="297.307" y="75.295"/><use xlink:href="#L" x="301.781" y="76.802"/><use xlink:href="#N" x="305.741" y="77.937"/><use xlink:href="#S" x="307.972" y="77.937"/><use xlink:href="#T" x="311.079" y="77.937"/><use xlink:href="#O" x="314.329" y="76.802"/><use xlink:href="#P" x="318.51" y="76.802"/><use xlink:href="#D" x="330.281" y="59.612"/><use xlink:href="#K" x="335.645" y="61.119"/><use xlink:href="#Q" x="338.105" y="61.119"/><use xlink:href="#R" x="342.235" y="61.119"/><use xlink:href="#B" x="373.043" y="75.676"/><use xlink:href="#G" x="378.908" y="75.676"/><use xlink:href="#C" x="382.915" y="75.676"/><use xlink:href="#K" x="386.993" y="77.183"/><use xlink:href="#Q" x="389.453" y="77.183"/><use xlink:href="#R" x="393.583" y="77.183"/><use xlink:href="#M" x="397.593" y="75.676"/><use xlink:href="#D" x="402.022" y="75.676"/><use xlink:href="#K" x="407.382" y="77.183"/><use xlink:href="#Q" x="409.842" y="77.183"/><use xlink:href="#R" x="413.972" y="77.183"/><use xlink:href="#H" x="417.982" y="75.676"/><use xlink:href="#U" x="41.375" y="29.134"/><use xlink:href="#V" x="47.511" y="29.134"/><use xlink:href="#W" x="51.969" y="29.134"/><use xlink:href="#X" x="56.428" y="29.134"/><use xlink:href="#Y" x="59.973" y="29.134"/><use xlink:href="#Z" x="97.648" y="14.23"/><use xlink:href="#a" x="104.346" y="14.23"/><use xlink:href="#b" x="109.367" y="14.23"/><use xlink:href="#b" x="114.388" y="14.23"/><use xlink:href="#c" x="119.409" y="14.23"/><use xlink:href="#V" x="123.316" y="14.23"/><use xlink:href="#d" x="156.367" y="29.111"/><use xlink:href="#V" x="162.814" y="29.111"/><use xlink:href="#e" x="167.273" y="29.111"/><use xlink:href="#V" x="171.731" y="29.111"/><use xlink:href="#f" x="176.19" y="29.111"/><use xlink:href="#g" x="178.982" y="29.111"/><use xlink:href="#V" x="183.652" y="29.111"/><use xlink:href="#U" x="266.586" y="56.622"/><use xlink:href="#V" x="272.722" y="56.622"/><use xlink:href="#W" x="277.18" y="56.622"/><use xlink:href="#X" x="281.639" y="56.622"/><use xlink:href="#Y" x="285.184" y="56.622"/><use xlink:href="#Z" x="322.86" y="41.717"/><use xlink:href="#a" x="329.558" y="41.717"/><use xlink:href="#b" x="334.579" y="41.717"/><use xlink:href="#b" x="339.6" y="41.717"/><use xlink:href="#c" x="344.621" y="41.717"/><use xlink:href="#V" x="348.528" y="41.717"/><use xlink:href="#d" x="381.579" y="56.599"/><use xlink:href="#V" x="388.026" y="56.599"/><use xlink:href="#e" x="392.485" y="56.599"/><use xlink:href="#V" x="396.943" y="56.599"/><use xlink:href="#f" x="401.402" y="56.599"/><use xlink:href="#g" x="404.194" y="56.599"/><use xlink:href="#V" x="408.864" y="56.599"/></g><g fill="none" stroke-width=".399" stroke="rgb(0%,0%,0%)" stroke-miterlimit="10"><path d="M6.56 65.465h212.305"/><path d="M6.46 62.875v5.18m212.5 0v-5.18" class="D"/><path d="M219.168 92.953H454"/><path d="M219.07 90.363v5.18m235.028 0v-5.18" class="D"/></g></svg>
