<svg id="Ebene_1" data-name="Ebene 1" xmlns="http://www.w3.org/2000/svg" xmlns:xlink="http://www.w3.org/1999/xlink" viewBox="0 0 3298.5 1274.25"><defs><style>.cls-1{fill:none;}.cls-2{clip-path:url(#clip-path);}.cls-3{fill:#07529a;}.cls-4{fill:#909085;}.cls-5{fill:#eab90c;}.cls-6{fill:#7a7a7a;}</style><clipPath id="clip-path"><rect class="cls-1" width="3298.5" height="1274.25"/></clipPath></defs><g class="cls-2"><path class="cls-3" d="M2625.75,351.75C2731.5,227.25,2790.75,125.25,2838,0H2024.25V703.5c161.25-21.75,387-99,601.5-351.75"/><path class="cls-4" d="M3298.5,0H2891.25C2842.5,132.75,2769,266.25,2656.5,399c-222,261-467.25,339.75-632.25,361.5v99H3298.5Z"/><path class="cls-5" d="M2383.5,1015.5c-39,0-51,19.5-51,84s12,84,51,84c39.75,0,51.75-19.5,51.75-84s-12-84-51.75-84"/><path class="cls-5" d="M2169.75,1110.75h-42v72.75l43.5.75c31.5,0,41.25-6.75,41.25-34.5,0-30.75-10.5-39-42.75-39"/><path class="cls-5" d="M2207.25,1047c0-25.5-10.5-31.5-41.25-31.5h-38.25V1080H2169c28.5,0,38.25-6.75,38.25-33"/><path class="cls-5" d="M2024.25,1274.25H3298.5V915.75H2024.25Zm154.5-56.25c-42.75,0-64.5-.75-92.25-3V984c24.75-2.25,45-3,81.75-3,57.75,0,78.75,12.75,78.75,60.75,0,33-11.25,50.25-39.75,52.5v1.5c35.25,3,46.5,24.75,46.5,61.5,0,48-21.75,60.75-75,60.75m204.75,1.5c-70.5,0-95.25-27.75-95.25-120,0-91.5,24.75-120,95.25-120,71.25,0,96,28.5,96,120,0,92.25-24.75,120-96,120m327-19.5c0,9.75-5.25,15-15,15h-33.75c-9,0-13.5-3.75-17.25-12.75l-65.25-141.75c-3.75-9-11.25-23.25-13.5-34.5H2562a287.15,287.15,0,0,1,2.25,35.25V1215H2523V999.75q0-15.75,15.75-15.75H2571c9,0,13.5,3.75,17.25,12.75l63,138c4.5,9.75,11.25,24,16.5,36h3.75c-.75-12.75-1.5-24.75-1.5-37.5V984h40.5Zm239.25,0c0,9.75-5.25,15-15,15h-33c-9,0-14.25-3.75-18-12.75l-64.5-141.75c-4.5-9-11.25-23.25-14.25-34.5h-3.75a287.15,287.15,0,0,1,2.25,35.25V1215h-41.25V999.75q0-15.75,15.75-15.75h32.25c9,0,13.5,3.75,17.25,12.75l63,138c4.5,9.75,11.25,24,16.5,36h3.75c-.75-12.75-1.5-24.75-1.5-37.5V984h40.5Z"/><path class="cls-6" d="M170.25,1125.75c0,68.25-22.5,93.75-84,93.75C22.5,1219.5,0,1194,0,1125.75V984H33v141.75c0,48,13.5,63.75,51.75,63.75s51.75-15.75,51.75-63.75V984h33.75Z"/><path class="cls-6" d="M405.75,1202.25c0,8.25-4.5,12.75-12.75,12.75H361.5c-7.5,0-11.25-3-14.25-10.5l-72-157.5c-4.5-8.25-11.25-22.5-14.25-32.25h-4.5c1.5,11.25,1.5,22.5,1.5,32.25v168H225V996.75c0-8.25,4.5-12.75,12.75-12.75H268.5c6.75,0,11.25,3,14.25,10.5l70.5,153c4.5,9.75,10.5,23.25,15.75,34.5h5.25c-1.5-12-1.5-23.25-1.5-35.25V984h33Z"/><rect class="cls-6" x="462" y="984" width="33.75" height="231"/><path class="cls-6" d="M655.5,1206c-1.5,5.25-6.75,9-12.75,9h-33c-6,0-11.25-3.75-12.75-9L528.75,984h34.5l52.5,180c2.25,8.25,4.5,17.25,6,25.5h9c2.25-8.25,4.5-17.25,6.75-25.5l51.75-180h34.5Z"/><path class="cls-6" d="M900.75,1213.5c-30,2.25-66,2.25-99,2.25-28.5,0-46.5-15.75-46.5-41.25v-150c0-25.5,18-41.25,46.5-41.25,33,0,69,0,99,3l-1.5,25.5h-91.5c-13.5,0-18.75,6-18.75,21.75V1080h97.5v27H789v59.25c0,15.75,5.25,21,18.75,21h91.5Z"/><path class="cls-6" d="M1075.5,1215l-20.25-72c-5.25-16.5-14.25-23.25-28.5-23.25h-48V1215h-33V984c25.5-3,42.75-3,81-3,54,0,75.75,15,75.75,66.75,0,36.75-11.25,55.5-42,59.25v1.5c11.25,3.75,24,13.5,29.25,33.75L1111.5,1215ZM1026,1091.25c32.25-.75,42.75-9.75,42.75-41.25,0-32.25-10.5-40.5-42.75-40.5-18.75,0-34.5,0-47.25.75v81Z"/><path class="cls-6" d="M1289.25,987l-2.25,24.75c-19.5-.75-45-2.25-66.75-2.25-31.5,0-43.5,1.5-43.5,32.25,0,24,8.25,30,27.75,35.25l46.5,12.75c35.25,9.75,46.5,31.5,46.5,66,0,53.25-23.25,63.75-78.75,63.75a393.61,393.61,0,0,1-72.75-6.75l2.25-24.75c42,.75,54,1.5,71.25,1.5,33.75-.75,44.25-5.25,44.25-34.5,0-24.75-9-30-27.75-35.25l-47.25-13.5c-33.75-9-45.75-30-45.75-65.25,0-54,24-60.75,76.5-60.75,21.75,0,45.75.75,69.75,6.75"/><rect class="cls-6" x="1342.5" y="984" width="33" height="231"/><polygon class="cls-6" points="1518.75 1014 1518.75 1215 1485 1215 1485 1014 1412.25 1014 1412.25 984 1592.25 984 1592.25 1014 1518.75 1014"/><path class="cls-6" d="M1639.5,1145.25,1617.75,1215h-34.5L1656,993c1.5-6,6.75-9,12-9h34.5c6,0,10.5,3,12,9l72.75,222h-34.5l-21-69.75Zm11.25-186.75c-6,0-9-2.25-9-9v-18c0-5.25,3-9,9-9h10.5c6,0,8.25,3.75,8.25,9v18c0,6.75-2.25,9-8.25,9Zm44.25,69.75c-1.5-6-3.75-12.75-5.25-18.75h-9c-1.5,6-3.75,12.75-5.25,18.75l-27,87.75h74.25Zm15-69.75c-6,0-9-2.25-9-9v-18c0-5.25,3-9,9-9h10.5c6,0,9,3.75,9,9v18c0,6.75-3,9-9,9Z"/><polygon class="cls-6" points="1885.5 1014 1885.5 1215 1851.75 1215 1851.75 1014 1779 1014 1779 984 1959 984 1959 1014 1885.5 1014"/></g></svg>
